<?xml version="1.0" encoding="UTF-8"?>
<svg version="1.1" xmlns="http://www.w3.org/2000/svg" width="512" height="512">
<path d="M0 0 C168.96 0 337.92 0 512 0 C512 168.96 512 337.92 512 512 C343.04 512 174.08 512 0 512 C0 343.04 0 174.08 0 0 Z " fill="#6449AC" transform="translate(0,0)"/>
<path d="M0 0 C1.8749179 -0.00576172 1.8749179 -0.00576172 3.78771293 -0.01163983 C5.18247093 -0.01085955 6.57722888 -0.00998075 7.97198677 -0.00901413 C9.44769179 -0.01159702 10.92339612 -0.01460997 12.39909947 -0.01801753 C16.46443528 -0.02609958 20.52975345 -0.02787777 24.59509635 -0.028615 C28.9755531 -0.03046343 33.35600065 -0.03800965 37.7364521 -0.04475021 C47.31894794 -0.05834207 56.90143959 -0.06435943 66.48394346 -0.06876087 C72.46426387 -0.07152155 78.44458265 -0.07575855 84.42490196 -0.08026505 C100.97438328 -0.09245825 117.52386329 -0.10275784 134.073349 -0.10614014 C135.13289065 -0.1063597 136.19243231 -0.10657927 137.28408129 -0.10680549 C138.34619107 -0.10702377 139.40830085 -0.10724204 140.50259578 -0.10746694 C142.65491923 -0.10791041 144.80724267 -0.10835697 146.95956612 -0.10880661 C148.02719815 -0.10902804 149.09483018 -0.10924947 150.1948147 -0.10947761 C167.50215691 -0.11342734 184.80945705 -0.13088648 202.11678301 -0.15416613 C219.87504868 -0.17786008 237.63329323 -0.19034107 255.39157498 -0.19150805 C265.36664312 -0.19242586 275.34165645 -0.19820466 285.31670952 -0.21632767 C293.80903396 -0.23170219 302.30128665 -0.23686478 310.79362236 -0.22858956 C315.12838709 -0.2246738 319.46300721 -0.22565767 323.79775429 -0.23964691 C327.76405422 -0.25233034 331.73010005 -0.2512376 335.69639935 -0.2390562 C337.13313447 -0.23708952 338.56988725 -0.24022216 340.0065975 -0.24890056 C341.95634463 -0.25993461 343.90617504 -0.25074562 345.85592651 -0.24050903 C347.48191782 -0.24140467 347.48191782 -0.24140467 349.14075744 -0.24231839 C353.52962995 0.32077731 356.12702252 2.28376692 359.33624077 5.21900845 C361.80202653 9.4001648 361.59609972 12.95798441 361.53482246 17.73013687 C361.53824654 18.69986938 361.54167061 19.6696019 361.54519844 20.66872025 C361.55182369 23.93108313 361.52971951 27.19262617 361.50790596 30.45491409 C361.50668077 32.82843976 361.50721433 35.20196689 361.50936699 37.57549191 C361.51027091 43.93802871 361.48706929 50.30026527 361.45892525 56.66273117 C361.43616392 62.63061863 361.43507379 68.59843265 361.43222237 74.56636429 C361.4112239 92.02559196 361.3553794 109.48476364 361.3038044 126.94392776 C361.2213044 165.94580276 361.1388044 204.94767776 361.0538044 245.13142776 C236.9738044 245.13142776 112.8938044 245.13142776 -14.9461956 245.13142776 C-15.0699456 206.17080276 -15.1936956 167.21017776 -15.3211956 127.06892776 C-15.37581963 114.75958939 -15.43044365 102.45025101 -15.48672295 89.76790237 C-15.51382256 74.75557327 -15.51382256 74.75557327 -15.51885796 67.73129654 C-15.52445593 62.81727271 -15.54697201 57.90363641 -15.57964897 52.98971939 C-15.62076569 46.72376109 -15.63314989 40.45836731 -15.62462926 34.19228661 C-15.62641127 31.8913813 -15.63833236 29.59045651 -15.66148639 27.28966701 C-15.69130447 24.18261096 -15.68415023 21.07775172 -15.6677227 17.9706459 C-15.68519869 17.06914086 -15.70267467 16.16763582 -15.72068024 15.23881245 C-15.63993086 9.56204761 -14.42392227 6.56714254 -10.52629817 2.414424 C-7.27755061 -0.22346229 -3.99956005 0.00460052 0 0 Z " fill="#D2B9FE" transform="translate(82.94619560241699,251.86857223510742)"/>
<path d="M0 0 C1.09706772 0.00565979 2.19413544 0.01131958 3.32444763 0.01715088 C6.79878981 0.03938726 10.27206782 0.08956118 13.74609375 0.140625 C16.11391731 0.1607064 18.48175717 0.17895428 20.84960938 0.1953125 C26.62796196 0.23921016 32.4057018 0.30599395 38.18359375 0.390625 C38.18579359 1.44362069 38.18579359 1.44362069 38.18803787 2.51788902 C38.22515121 19.62918539 38.28422572 36.74026632 38.36749649 53.85140038 C38.40724126 62.1263599 38.43965685 70.40122496 38.45458984 78.67626953 C38.4676301 85.89201896 38.49465501 93.10756013 38.53820682 100.32319224 C38.56076858 104.14095178 38.57650763 107.95845496 38.5754776 111.77628708 C38.57472783 115.37647839 38.59280403 118.97610414 38.62476158 122.57614899 C38.63722102 124.51364723 38.63022129 126.45124071 38.62245178 128.38876343 C38.7269006 137.20918817 39.7257374 144.98343955 46.18359375 151.390625 C46.18359375 152.050625 46.18359375 152.710625 46.18359375 153.390625 C46.77207452 153.67746031 47.36055529 153.96429562 47.96686882 154.25982291 C50.18359375 155.390625 50.18359375 155.390625 51.88411814 156.44284385 C58.00148273 160.04530612 63.74185086 159.95468383 70.70201111 159.9052887 C72.5770896 159.91570699 72.5770896 159.91570699 74.49004847 159.92633575 C77.94361733 159.94490856 81.39675582 159.93867696 84.85034215 159.92818272 C88.58118919 159.92117534 92.31194917 159.93720027 96.04277039 159.95018005 C103.3453276 159.97179968 110.64772885 159.97169841 117.95030754 159.96355451 C123.88684002 159.95724946 129.82332708 159.95839617 135.75985909 159.96482658 C136.6054372 159.96572824 137.45101531 159.96662989 138.32221701 159.96755887 C140.04011516 159.96941011 141.75801331 159.97127267 143.47591145 159.97314643 C159.57806587 159.98971783 175.68013262 159.98101135 191.78228176 159.96416085 C206.50651713 159.94946479 221.23054842 159.96409211 235.9547575 159.99293102 C251.08255251 160.02233919 266.21025337 160.03329314 281.3380757 160.02374882 C283.049888 160.02272629 284.76170032 160.02173168 286.47351265 160.0207653 C287.7367998 160.02005072 287.7367998 160.02005072 289.0256079 160.0193217 C294.95263929 160.01715943 300.87958135 160.02695169 306.80659294 160.04153633 C314.03319974 160.0590712 321.25954641 160.05892587 328.48614305 160.03618468 C332.17143286 160.02505275 335.85626456 160.02185554 339.54153442 160.04048538 C343.54079641 160.06044198 347.53894537 160.04148262 351.53819275 160.01881409 C352.6971504 160.03064982 353.85610804 160.04248554 355.05018562 160.05467993 C361.52594738 159.98012085 365.89914369 159.11871242 371.36643988 155.55994648 C373.18359375 154.390625 373.18359375 154.390625 376.18359375 153.390625 C377.30512731 151.55987825 377.30512731 151.55987825 378.18359375 149.390625 C378.52519531 148.71902344 378.86679687 148.04742187 379.21875 147.35546875 C379.55777344 146.68644531 379.89679688 146.01742187 380.24609375 145.328125 C380.58769531 144.65652344 380.92929687 143.98492187 381.28125 143.29296875 C383.00906032 139.65035564 383.31648225 136.77487666 383.34181213 132.79084778 C383.35160095 131.62557053 383.36138977 130.46029327 383.37147522 129.25970459 C383.37723068 127.9800885 383.38298615 126.70047241 383.38891602 125.38208008 C383.39849542 124.02204593 383.40850554 122.66201475 383.41891479 121.30198669 C383.44596322 117.60808629 383.46697312 113.91417311 383.48691678 110.22022843 C383.50877671 106.36047424 383.53616537 102.50075942 383.56297302 98.64103699 C383.61289981 91.33130278 383.6578387 84.02154673 383.70099539 76.71176976 C383.75036787 68.39018806 383.80528596 60.06864587 383.86067498 51.74710238 C383.97449482 34.62831297 384.08119876 17.50948642 384.18359375 0.390625 C393.49763476 -0.80705901 399.45519113 0.715556 406.90139556 6.36971784 C408.03608532 7.27631511 409.16611729 8.18876742 410.2918396 9.10647583 C410.88014385 9.57869413 411.4684481 10.05091244 412.07457975 10.53744039 C434.84511796 29.00955667 453.92410729 48.70645795 457.38529088 78.83013777 C459.37484969 99.04120468 458.69725439 119.50440054 457.97346864 139.76503199 C457.58400886 150.97409938 457.5180073 162.17927911 457.46393923 173.39414538 C457.35913121 193.38974392 457.00872235 213.3727763 456.49755859 233.36181641 C456.00321392 252.7129588 455.6363893 272.06005369 455.43115234 291.41650391 C455.41202197 293.21523757 455.41202197 293.21523757 455.39250512 295.05030929 C455.3417463 299.8719943 455.29192757 304.69368777 455.2433391 309.51539516 C454.86182199 347.31209457 454.33129096 385.10607685 453.46167493 422.8948772 C453.39762377 425.75945417 453.33873148 428.62409252 453.28141403 431.48881149 C453.19228278 435.90997896 453.08917857 440.33059382 452.97459082 444.75117292 C452.93521072 446.34781966 452.9003666 447.94458625 452.87057622 449.54144071 C452.52915176 467.3934624 452.52915176 467.3934624 447.640625 474.6953125 C447.09792969 475.21351563 446.55523437 475.73171875 445.99609375 476.265625 C445.46628906 476.79929687 444.93648438 477.33296875 444.390625 477.8828125 C437.76707167 482.40793035 431.44431317 482.79808725 423.68359375 482.578125 C422.76578125 482.56458984 421.84796875 482.55105469 420.90234375 482.53710938 C418.66212572 482.50210597 416.42318781 482.45301369 414.18359375 482.390625 C414.18397078 481.1699445 414.1843478 479.94926399 414.18473625 478.69159317 C414.19235843 449.68160776 414.1690148 420.67176296 414.10780346 391.66184635 C414.10028788 388.08722744 414.0930323 384.51260805 414.0859375 380.93798828 C414.08452075 380.22637908 414.083104 379.51476987 414.08164431 378.78159675 C414.05935702 367.27602844 414.05810833 355.77054991 414.06470512 344.26496604 C414.07100866 332.44941684 414.05453986 320.63405572 414.01715767 308.81856322 C413.99682078 302.18602716 413.98757066 295.55377472 414.00317001 288.92121124 C414.01753259 282.67317061 414.00370621 276.42581482 413.96864128 270.17786217 C413.96069948 267.88985856 413.96288884 265.60179282 413.97620201 263.31381416 C414.32595346 246.36617073 414.32595346 246.36617073 407.18359375 231.390625 C399.38430265 223.5688674 390.41792803 222.05657994 379.67233473 221.98473269 C378.29474397 221.99052629 376.9171544 221.99660724 375.53956604 222.00294495 C374.05811804 221.99876744 372.57667324 221.99328764 371.09523433 221.98662513 C367.04164535 221.97220651 362.9882603 221.97640397 358.93466032 221.98379195 C354.55624394 221.98853018 350.17787127 221.97600801 345.79946899 221.96577454 C337.22872684 221.94859435 328.65805802 221.94774487 320.08730311 221.95298744 C313.12010896 221.95703164 306.15293645 221.95558261 299.18574333 221.95023918 C298.19349529 221.94949076 297.20124724 221.94874234 296.17893107 221.94797124 C294.16307918 221.94643973 292.1472273 221.94490139 290.13137542 221.94335627 C271.23508703 221.92963418 252.33884006 221.93506699 233.44255262 221.94654148 C216.16158078 221.95647468 198.88071599 221.94353117 181.59976066 221.91960729 C163.84692149 221.89521566 146.09413218 221.88560851 128.34127659 221.89226002 C118.37786714 221.89575194 108.41454003 221.89352182 98.45114326 221.87600899 C89.97005905 221.86128628 81.48911517 221.86065256 73.0080337 221.8780799 C68.68270025 221.88659147 64.3576175 221.88873562 60.03229713 221.87342834 C56.06897981 221.85957604 52.10612784 221.86435111 48.1428374 221.88366758 C46.71292585 221.88742624 45.28297698 221.88450944 43.8530987 221.87405593 C34.10470413 221.8078832 23.99289817 222.56616659 16.5506916 229.71992874 C7.38976546 240.91526855 8.33065721 252.9459008 8.41064453 266.69238281 C8.40246522 269.04881296 8.39165792 271.40523522 8.37843323 273.76164246 C8.35008317 280.13072784 8.3583213 286.49929429 8.37330103 292.86840534 C8.38174716 298.85858523 8.36258994 304.8486516 8.34363817 310.83879277 C8.30701798 322.69512855 8.29691302 334.55133025 8.30371094 346.40771484 C8.31025303 357.91785231 8.30416565 369.42787014 8.28125 380.93798828 C8.27983935 381.64872754 8.27842869 382.3594668 8.27697529 383.09174362 C8.26982031 386.65768948 8.26241869 390.22363477 8.2548945 393.78957987 C8.1928965 423.32325961 8.17447181 452.85688033 8.18359375 482.390625 C4.68404391 482.53734245 1.18529672 482.62516088 -2.31640625 482.703125 C-3.29867187 482.74501953 -4.2809375 482.78691406 -5.29296875 482.83007812 C-13.31659765 482.96380527 -18.00680962 480.92810759 -23.83984375 475.51171875 C-24.28585938 474.95613281 -24.731875 474.40054687 -25.19140625 473.828125 C-25.65289063 473.26996094 -26.114375 472.71179688 -26.58984375 472.13671875 C-29.66244409 467.76266668 -30.10388216 464.2266973 -30.07088184 458.93981552 C-30.07408832 458.18289388 -30.0772948 457.42597224 -30.08059844 456.64611357 C-30.0889377 454.09519672 -30.08296048 451.54451225 -30.07710266 448.99359131 C-30.08012157 447.15205329 -30.08400973 445.31051652 -30.08869523 443.46898198 C-30.09901785 438.39693933 -30.09678258 433.32496702 -30.09251463 428.25291848 C-30.09005508 422.78720087 -30.09905203 417.32150054 -30.10655212 411.85578918 C-30.11932327 401.14272969 -30.12108976 390.42969524 -30.11875186 379.71662942 C-30.11697101 371.01017248 -30.11871333 362.30372317 -30.1229763 353.59726715 C-30.12357149 352.35953242 -30.12416668 351.12179769 -30.12477991 349.84655584 C-30.12599162 347.33230883 -30.12720576 344.81806181 -30.12842228 342.3038148 C-30.13806647 321.39657869 -30.13849778 300.4893522 -30.13311837 279.58211526 C-30.13294728 278.91695017 -30.13277619 278.25178508 -30.13259992 277.56646347 C-30.13225327 276.2213366 -30.13190474 274.87620974 -30.13155433 273.53108287 C-30.12619821 252.6051779 -30.13412337 231.67931508 -30.15258789 210.75341797 C-30.17330381 187.24840296 -30.18400016 163.74340812 -30.1800124 140.23838258 C-30.17809811 127.79116727 -30.18060997 115.34399035 -30.19472694 102.89678192 C-30.20662473 92.29872974 -30.20806374 81.70073957 -30.19593678 71.10268655 C-30.19003645 65.69416569 -30.18898046 60.28575834 -30.20093918 54.87724495 C-30.21175875 49.92641493 -30.20874145 44.97579375 -30.19467749 40.02497366 C-30.19201969 38.23357658 -30.19443094 36.44216334 -30.20241336 34.65078208 C-30.21251327 32.21520246 -30.20410298 29.78034962 -30.19113636 27.34479904 C-30.19844571 26.64981613 -30.20575505 25.95483322 -30.21328589 25.23879021 C-30.13249086 17.91376395 -27.76524586 11.36641717 -22.66868591 6.05316162 C-16.09698419 0.15464911 -8.4316245 -0.16622027 0 0 Z " fill="#FEFEFE" transform="translate(44.81640625,14.609375)"/>
<path d="M0 0 C104.28 0 208.56 0 316 0 C316 136 316 136 312 142 C308.5346093 144.64985771 306.05750191 145.3755848 301.73192692 145.38311005 C300.68413659 145.39216669 299.63634627 145.40122333 298.55680472 145.41055441 C297.4120681 145.40522648 296.26733149 145.39989856 295.08790588 145.39440918 C293.25637456 145.40354584 293.25637456 145.40354584 291.3878426 145.41286707 C288.00148807 145.42663938 284.61561834 145.42694741 281.22927225 145.4214921 C277.57614874 145.41882278 273.9230874 145.43335178 270.26998901 145.44558716 C263.11444033 145.46664705 255.95897266 145.47118171 248.80339665 145.46939927 C242.98786271 145.46809201 237.17235406 145.47189396 231.35682487 145.47932434 C229.68212523 145.48142352 228.00742559 145.48352112 226.33272594 145.48561716 C225.49920303 145.48666069 224.66568012 145.48770422 223.80689894 145.48877937 C208.04107593 145.50768375 192.27529945 145.50663084 176.5094698 145.49981004 C162.08371427 145.49423352 147.65813628 145.51506423 133.23242224 145.54817051 C118.42227714 145.58189544 103.61221712 145.5970774 88.80203289 145.59245348 C80.48633461 145.59020769 72.17080046 145.595468 63.85513496 145.62034607 C56.77623363 145.6413437 49.69758642 145.64496656 42.6186747 145.62604648 C39.00667614 145.61687922 35.3951516 145.6157751 31.78318977 145.63640213 C27.86825586 145.65851223 23.9540332 145.64191828 20.03907776 145.62145996 C18.89657187 145.63397781 17.75406597 145.64649566 16.57693869 145.65939283 C8.00741425 145.56308064 8.00741425 145.56308064 4.37255764 142.71115875 C-26.96965858 106.89591768 0 47.59270963 0 0 Z " fill="#FEFEFE" transform="translate(98,15)"/>
<path d="M0 0 C7.74345919 4.56253612 13.17926473 11.06047919 16.3125 19.5 C18.95840156 30.47427626 16.89361441 38.97725589 11.5625 48.6875 C5.71014017 56.00294979 -2.20895481 61.13376716 -9.875 66.375 C-10.88570557 67.07318848 -11.89641113 67.77137695 -12.93774414 68.49072266 C-17.30373356 71.50447639 -21.68072245 74.5010243 -26.078125 77.46875 C-26.69147705 77.88527832 -27.3048291 78.30180664 -27.93676758 78.73095703 C-29.50429513 79.79320347 -31.07807079 80.84621377 -32.65234375 81.8984375 C-33.32394531 82.42695313 -33.99554688 82.95546875 -34.6875 83.5 C-34.6875 84.16 -34.6875 84.82 -34.6875 85.5 C-32.26473433 87.35540916 -29.8312376 89.09534084 -27.3125 90.8125 C-25.75323301 91.89356084 -24.19466259 92.97562694 -22.63671875 94.05859375 C-21.41734619 94.90333252 -21.41734619 94.90333252 -20.17333984 95.76513672 C-16.12498485 98.59047659 -12.12416267 101.48063653 -8.125 104.375 C-7.03856201 105.15870972 -7.03856201 105.15870972 -5.93017578 105.95825195 C-4.53277314 106.96859497 -3.13800214 107.98258937 -1.74609375 109.00048828 C-0.34549407 110.02070688 1.06377427 111.0291069 2.48046875 112.02685547 C9.37987782 116.98023656 14.3749287 123.32055488 16.75 131.625 C18.27895783 142.15782058 16.76616999 150.8487867 10.625 159.8125 C4.93073872 166.81199498 -3.51873292 171.80697624 -12.50390625 172.81640625 C-22.42597969 173.20923419 -29.39439461 170.72236639 -37 164.375 C-43.06693908 158.6037765 -47.18936556 151.49677231 -47.890625 143.0546875 C-48.07223597 132.67259364 -46.03909112 124.12993644 -38.6875 116.5 C-36.65824265 114.79950502 -34.59668998 113.23544576 -32.421875 111.7265625 C-30.55296536 110.47815603 -30.55296536 110.47815603 -28.6875 108.5 C-29.15124023 108.18248779 -29.61498047 107.86497559 -30.09277344 107.5378418 C-32.20830475 106.08863413 -34.32290938 104.6380799 -36.4375 103.1875 C-37.53191406 102.43823242 -37.53191406 102.43823242 -38.6484375 101.67382812 C-39.71191406 100.94389648 -39.71191406 100.94389648 -40.796875 100.19921875 C-41.44624023 99.75408936 -42.09560547 99.30895996 -42.76464844 98.8503418 C-44.7714509 97.44104464 -46.73315605 95.98096686 -48.6875 94.5 C-52.72447244 96.31002795 -56.25728062 98.86006189 -59.875 101.375 C-60.57915039 101.86186279 -61.28330078 102.34872559 -62.00878906 102.8503418 C-68.43565683 107.30348689 -74.82145352 111.8144815 -81.203125 116.33203125 C-86.86015276 120.33386389 -92.54137494 124.30101715 -98.22094727 128.27075195 C-103.78536013 132.16222525 -109.33369939 136.07570956 -114.875 140 C-120.41983123 143.92484187 -125.98963519 147.79882286 -131.6875 151.5 C-135.27556317 148.11127367 -138.14434799 144.73858668 -140.6875 140.5 C-140.6875 139.84 -140.6875 139.18 -140.6875 138.5 C-138.66015625 136.9765625 -138.66015625 136.9765625 -135.75 135.125 C-130.65093136 131.80911443 -125.64585851 128.39766334 -120.6875 124.875 C-116.028657 121.56945759 -111.36626781 118.27006443 -106.6796875 115.00390625 C-105.82761719 114.40980957 -104.97554687 113.81571289 -104.09765625 113.20361328 C-102.48404601 112.07949382 -100.86955813 110.95663234 -99.25390625 109.83544922 C-91.63480683 104.52288809 -84.16416012 99.01013302 -76.6875 93.5 C-83.40785771 93.14150505 -90.12571378 92.89848198 -96.85351562 92.73095703 C-99.13537664 92.66105813 -101.41662217 92.56589043 -103.69628906 92.44384766 C-117.72523858 91.3107009 -117.72523858 91.3107009 -130.23486328 96.52929688 C-133.29832914 99.38642391 -135.90963991 102.50166841 -138.40896606 105.85681152 C-140.14850858 108.09249424 -142.16659793 109.91072789 -144.3125 111.75 C-144.88226563 112.25015625 -145.45203125 112.7503125 -146.0390625 113.265625 C-147.83237231 114.60848258 -149.67670653 115.52177615 -151.6875 116.5 C-157.32064362 108.55879245 -162.7381818 100.48381747 -168.125 92.375 C-168.96017726 91.11971901 -169.79546305 89.86451022 -170.63085938 88.609375 C-172.65098789 85.57374565 -174.66965855 82.53715024 -176.6875 79.5 C-179.08593956 82.46003494 -180.62257457 85.33857551 -182.09179688 88.84765625 C-182.5423645 89.91556396 -182.99293213 90.98347168 -183.45715332 92.08374023 C-183.93535522 93.23173096 -184.41355713 94.37972168 -184.90625 95.5625 C-185.66886819 97.37060243 -186.43149254 99.1787023 -187.1944809 100.98664856 C-188.53015672 104.15580753 -189.85860945 107.32799124 -191.1875 110.5 C-192.77334431 114.28534716 -194.36044127 118.07012827 -195.95617676 121.85131836 C-196.9485439 124.20413589 -197.93594088 126.55905721 -198.91784668 128.91625977 C-199.36841431 129.98416748 -199.81898193 131.0520752 -200.28320312 132.15234375 C-200.67608521 133.09070068 -201.06896729 134.02905762 -201.47375488 134.99584961 C-202.65334877 137.42954054 -203.98894773 139.40373119 -205.6875 141.5 C-213.82292395 126.90151483 -221.54284964 112.10977276 -229.15576172 97.23461914 C-229.91889847 95.74362837 -230.68208134 94.2526612 -231.4453125 92.76171875 C-231.81417572 92.04107742 -232.18303894 91.3204361 -232.56307983 90.57795715 C-235.93884259 83.9917726 -239.37598682 77.43871253 -242.87158203 70.9152832 C-244.68735796 67.50623253 -246.3442977 64.12384787 -247.6875 60.5 C-248.3475 60.5 -249.0075 60.5 -249.6875 60.5 C-249.96005615 61.20882324 -250.2326123 61.91764648 -250.51342773 62.64794922 C-251.70997721 65.55460153 -253.05353225 68.32844841 -254.47265625 71.1328125 C-255.00310547 72.18597656 -255.53355469 73.23914063 -256.08007812 74.32421875 C-256.63115234 75.41347656 -257.18222656 76.50273437 -257.75 77.625 C-258.84690672 79.79333361 -259.94204329 81.96256388 -261.03515625 84.1328125 C-261.51992432 85.09074707 -262.00469238 86.04868164 -262.50415039 87.03564453 C-263.77156018 89.54286674 -263.77156018 89.54286674 -264.6875 92.5 C-275.5775 92.5 -286.4675 92.5 -297.6875 92.5 C-297.6875 87.55 -297.6875 82.6 -297.6875 77.5 C-290.0975 77.17 -282.5075 76.84 -274.6875 76.5 C-266.4375 60 -258.1875 43.5 -249.6875 26.5 C-246.6269239 29.5605761 -244.93704351 32.5432496 -243.02734375 36.34375 C-242.68137146 37.0204776 -242.33539917 37.6972052 -241.97894287 38.3944397 C-240.85580472 40.59370662 -239.74051154 42.79685651 -238.625 45 C-237.4636488 47.27749344 -236.3002325 49.55392453 -235.13679504 51.83035278 C-234.37031463 53.33055361 -233.60451333 54.83110159 -232.83940125 56.33200073 C-230.05906239 61.78498294 -227.23935874 67.21562186 -224.375 72.625 C-224.0025415 73.33068115 -223.63008301 74.0363623 -223.24633789 74.76342773 C-221.5363397 78.00324978 -219.82407343 81.24186817 -218.11083984 84.47998047 C-216.42406169 87.67206339 -214.74290089 90.86705617 -213.0625 94.0625 C-212.52842529 95.07006348 -211.99435059 96.07762695 -211.4440918 97.11572266 C-210.95465088 98.04819824 -210.46520996 98.98067383 -209.9609375 99.94140625 C-209.30230713 101.18966187 -209.30230713 101.18966187 -208.63037109 102.46313477 C-207.6875 104.5 -207.6875 104.5 -207.6875 106.5 C-207.0275 106.5 -206.3675 106.5 -205.6875 106.5 C-205.51544037 105.95753632 -205.34338074 105.41507263 -205.16610718 104.85617065 C-203.32978997 99.19325084 -201.19814957 93.72670815 -198.8515625 88.2578125 C-198.30971817 86.98428421 -198.30971817 86.98428421 -197.75692749 85.68502808 C-196.99715284 83.90113186 -196.23570623 82.11794689 -195.47265625 80.33544922 C-194.31916853 77.64057955 -193.17085339 74.94355347 -192.0234375 72.24609375 C-188.34627343 63.61662482 -184.64554257 55.00526874 -180.6875 46.5 C-175.77259511 50.88306817 -172.62474596 56.04730916 -169.1875 61.625 C-162.62825892 72.11310876 -155.7546212 82.34878568 -148.6875 92.5 C-144.94050722 91.19155207 -143.48971007 88.8786886 -141.20695496 85.76652527 C-136.7042466 80.09831219 -132.56829353 77.2437578 -125.28662109 76.34130859 C-117.64682949 75.83774809 -110.02352453 76.00399548 -102.375 76.1875 C-99.68815505 76.21182855 -97.00139529 76.2165148 -94.31445312 76.22070312 C-87.77008123 76.24577873 -81.22999162 76.34398944 -74.6875 76.5 C-75.15894943 76.16725067 -75.63039886 75.83450134 -76.11613464 75.4916687 C-78.30009854 73.95020216 -80.48403375 72.40869499 -82.66796875 70.8671875 C-83.4091394 70.34406982 -84.15031006 69.82095215 -84.91394043 69.28198242 C-89.94396105 65.73154066 -94.97235986 62.1788116 -100 58.625 C-105.47016179 54.75976035 -110.95287491 50.91297599 -116.44506836 47.07910156 C-119.00002432 45.29365897 -121.55113682 43.50284332 -124.1015625 41.7109375 C-126.85329829 39.77804952 -129.61507121 37.8635643 -132.3984375 35.9765625 C-133.40132812 35.28304687 -134.40421875 34.58953125 -135.4375 33.875 C-136.27796875 33.30523437 -137.1184375 32.73546875 -137.984375 32.1484375 C-138.54640625 31.60445313 -139.1084375 31.06046875 -139.6875 30.5 C-139.6875 25.90848794 -139.00247074 25.16817876 -136.1875 21.75 C-135.5378125 20.95078125 -134.888125 20.1515625 -134.21875 19.328125 C-133.7134375 18.72484375 -133.208125 18.1215625 -132.6875 17.5 C-127.64283613 19.11903107 -123.8249349 22.13037533 -119.625 25.25 C-118.01137924 26.43230443 -116.39675923 27.61324605 -114.78125 28.79296875 C-113.52634766 29.71021729 -113.52634766 29.71021729 -112.24609375 30.64599609 C-108.07445004 33.66884555 -103.85132675 36.61681624 -99.625 39.5625 C-97.93615164 40.74081909 -96.24734918 41.91920398 -94.55859375 43.09765625 C-93.73987793 43.66887207 -92.92116211 44.24008789 -92.07763672 44.82861328 C-89.1297989 46.88999201 -86.19022149 48.96283658 -83.25317383 51.03955078 C-81.88538296 52.00659073 -80.51674133 52.97242856 -79.1472168 53.93701172 C-75.20448459 56.71436998 -71.27664949 59.51104364 -67.359375 62.32421875 C-65.5521823 63.61211805 -63.74489222 64.89988071 -61.9375 66.1875 C-61.09123047 66.80044922 -60.24496094 67.41339844 -59.37304688 68.04492188 C-58.57447266 68.61146484 -57.77589844 69.17800781 -56.953125 69.76171875 C-56.24961914 70.26662842 -55.54611328 70.77153809 -54.82128906 71.29174805 C-52.34738337 72.69259007 -50.5279482 73.30036787 -47.6875 73.5 C-45.50060568 72.5961148 -45.50060568 72.5961148 -43.515625 71.04296875 C-42.76925781 70.50736328 -42.02289063 69.97175781 -41.25390625 69.41992188 C-40.10728516 68.56237305 -40.10728516 68.56237305 -38.9375 67.6875 C-38.15761719 67.12740234 -37.37773437 66.56730469 -36.57421875 65.99023438 C-32.53105576 63.28034788 -32.53105576 63.28034788 -29.6875 59.5 C-30.533125 58.984375 -31.37875 58.46875 -32.25 57.9375 C-40.37505218 52.39943377 -45.14603783 46.13080402 -47.6875 36.5 C-49.13548462 26.14471606 -47.5743364 18.1540411 -41.6875 9.5 C-31.86719598 -3.47427027 -14.60913361 -6.70733807 0 0 Z " fill="#9446AF" transform="translate(398.6875,289.5)"/>
<path d="M0 0 C24.75 0 49.5 0 75 0 C75 37.95 75 75.9 75 115 C50.25 115 25.5 115 0 115 C0 77.05 0 39.1 0 0 Z " fill="#264EA9" transform="translate(304,30)"/>
<path d="M0 0 C14.85 0 29.7 0 45 0 C45 28.05 45 56.1 45 85 C30.15 85 15.3 85 0 85 C0 56.95 0 28.9 0 0 Z " fill="#FDFDFE" transform="translate(319,45)"/>
<path d="M0 0 C20.79 0 41.58 0 63 0 C63 20.79 63 41.58 63 63 C58.511279 59.15252486 54.21743605 55.36369424 50.06469727 51.1940918 C49.51747513 50.64862198 48.97025299 50.10315216 48.40644836 49.54115295 C46.62393479 47.76299094 44.84504474 45.98125622 43.06640625 44.19921875 C41.82102303 42.95450991 40.57549146 41.70994949 39.32981873 40.4655304 C36.73363301 37.87081205 34.1392477 35.2743106 31.54614258 32.67651367 C28.21481477 29.33945331 24.87896943 26.00695043 21.54179478 22.67573833 C18.97591397 20.11345874 16.41240433 17.54881757 13.84962273 14.98343849 C12.61950099 13.75264811 11.38863168 12.52260445 10.15701485 11.29331017 C8.4454333 9.58425174 6.7370619 7.87204964 5.02954102 6.15893555 C4.51689697 5.64831573 4.00425293 5.13769592 3.47607422 4.61160278 C0 1.1142698 0 1.1142698 0 0 Z " fill="#000000" transform="translate(449,0)"/>
<path d="M0 0 C4.36775158 3.14884416 7.96773395 6.77820184 9.6875 11.9375 C10.22599036 18.29168627 9.32722798 22.63692527 5.6875 27.9375 C0.48605581 32.87887198 -3.77706669 34.41612252 -10.84765625 34.25 C-15.94438187 33.60382243 -18.91573284 30.53233239 -22.125 26.8125 C-26.02755105 21.68343291 -26.06409052 17.26623384 -25.3125 10.9375 C-23.63300051 6.55777072 -21.055063 3.64470286 -17.6875 0.4375 C-11.85207085 -2.15602407 -6.03553889 -1.93592757 0 0 Z " fill="#E4BDFD" transform="translate(391.3125,413.0625)"/>
<path d="M0 0 C4.22193595 2.94553671 8.0298657 6.90209711 9.6875 11.875 C10.32326185 18.61407561 8.71686457 23.39466552 4.4375 28.625 C0.30066975 32.00967929 -3.46653572 33.6064961 -8.75 34.375 C-14.67626958 33.54324287 -18.67821151 30.59309816 -22.75 26.3125 C-25.75265916 21.62835171 -26.0893617 16.3130319 -25.3125 10.875 C-23.33257503 5.82308382 -20.24302105 1.9067789 -15.3359375 -0.50390625 C-10.1137188 -2.10686527 -5.11694901 -1.73783174 0 0 Z " fill="#BFB2FD" transform="translate(391.3125,303.125)"/>
<path d="M0 0 C9.57 0 19.14 0 29 0 C26.91945369 1.04027316 24.83321935 2.07317927 22.703125 3.0078125 C12.12131886 7.8269153 6.61455543 14.48310622 2 25 C1.34 26.32 0.68 27.64 0 29 C0 19.43 0 9.86 0 0 Z " fill="#000003" transform="translate(0,0)"/>
<path d="M0 0 C0.33 0 0.66 0 1 0 C1 9.57 1 19.14 1 29 C-8.57 29 -18.14 29 -28 29 C-25.91945369 27.95972684 -23.83321935 26.92682073 -21.703125 25.9921875 C-11.36455201 21.28385649 -5.18493522 14.56112407 -1 4 C-0.63704461 2.6744238 -0.29259593 1.34286132 0 0 Z " fill="#000000" transform="translate(511,483)"/>
<path d="M0 0 C1.04027316 2.08054631 2.07317927 4.16678065 3.0078125 6.296875 C7.8269153 16.87868114 14.48310622 22.38544457 25 27 C26.32 27.66 27.64 28.32 29 29 C19.43 29 9.86 29 0 29 C0 19.43 0 9.86 0 0 Z " fill="#000000" transform="translate(0,483)"/>
</svg>
