<?xml version="1.0" encoding="UTF-8"?>
<svg version="1.1" xmlns="http://www.w3.org/2000/svg" width="512" height="512">
<path d="M0 0 C1.2669873 0.23348145 1.2669873 0.23348145 2.55957031 0.47167969 C28.16483634 5.28166779 52.73876047 14.41031871 76 26 C76.90008789 26.44456543 77.80017578 26.88913086 78.72753906 27.34716797 C110.50617629 43.15562491 140.21868214 63.71305093 166.41796875 87.6640625 C167.79379545 88.90875897 169.17504259 90.14830931 170.59057617 91.34765625 C177.07024794 96.86651647 183.05789648 102.87180231 189.07202148 108.88671875 C190.92477468 110.73728967 192.78538706 112.57970076 194.64648438 114.421875 C200.91343048 120.66027463 206.8501511 126.94819872 212.33032227 133.89941406 C213.97709265 136.052794 213.97709265 136.052794 216 138 C215.94664775 143.07735569 212.72756308 145.89905502 209.375 149.3125 C208.3399529 150.39078325 207.30611216 151.47022569 206.2734375 152.55078125 C205.73831543 153.10693115 205.20319336 153.66308105 204.65185547 154.23608398 C202.93316153 156.07137274 201.29353026 157.95907007 199.65625 159.8671875 C194.99854639 165.23585805 189.88130811 170.13224387 184.7890625 175.08398438 C183.69078125 176.16583008 183.69078125 176.16583008 182.5703125 177.26953125 C181.90789551 177.91510986 181.24547852 178.56068848 180.56298828 179.22583008 C178.77621998 181.02161875 178.77621998 181.02161875 178 184 C190.54 184 203.08 184 216 184 C216 284.65 216 385.3 216 489 C105.9375 488.9375 105.9375 488.9375 71.16772461 488.84741211 C60.89452392 488.86390567 60.89452392 488.86390567 50.62135315 488.89234924 C46.04053148 488.90471138 41.46052476 488.89179052 36.879776 488.86366272 C31.03762448 488.82861399 25.1970202 488.83656044 19.35491097 488.87572777 C17.21033271 488.88276919 15.06563901 488.87466696 12.92119396 488.84974849 C2.05897581 488.25536148 2.05897581 488.25536148 -7.69997978 491.96145821 C-9.59207498 494.26925145 -9.59207498 494.26925145 -10.79486752 496.74691105 C-14.08563998 502.89926622 -22.50973651 506.18908456 -28.84765625 508.3046875 C-41.39699899 511.07269618 -52.80619444 508.91556924 -63.75 502.3125 C-67.15388534 499.97483916 -68.5631123 497.97856483 -70.44801331 494.36256409 C-73.03661863 491.00646675 -75.04824241 489.74243169 -79.15977287 489.16679192 C-84.79562492 488.72459324 -90.4335907 488.82084252 -96.08178711 488.88647461 C-98.29537555 488.87920661 -100.50895399 488.86799071 -102.72250462 488.85315037 C-108.64605256 488.82432373 -114.56821718 488.84946874 -120.49167633 488.88584137 C-126.05165035 488.911792 -131.61100981 488.88900842 -137.17102051 488.87023926 C-153.42650752 488.84372827 -169.68204594 488.8953824 -185.9375 488.9375 C-222.258125 488.958125 -258.57875 488.97875 -296 489 C-296 388.35 -296 287.7 -296 184 C-283.46 184 -270.92 184 -258 184 C-260.45461798 179.90897003 -262.32577474 177.44596011 -265.640625 174.19921875 C-266.54683594 173.30396484 -267.45304687 172.40871094 -268.38671875 171.48632812 C-269.34077092 170.55300203 -270.29520016 169.62006122 -271.25 168.6875 C-277.40904136 162.6437805 -283.44093903 156.60445961 -289 150 C-289.7425 149.13890625 -290.485 148.2778125 -291.25 147.390625 C-291.8275 146.68421875 -292.405 145.9778125 -293 145.25 C-293.598125 144.53328125 -294.19625 143.8165625 -294.8125 143.078125 C-296 141 -296 141 -295.9453125 139.03125 C-294.67157993 136.29430399 -292.94107219 134.44914125 -290.875 132.25 C-288.20240234 129.38319975 -285.57488017 126.50365752 -283.03515625 123.51953125 C-278.08249758 117.83814715 -272.71195715 112.56278889 -267.37573242 107.24536133 C-265.56639067 105.44137915 -263.76245681 103.63211335 -261.95898438 101.82226562 C-256.14425428 96.00352969 -250.31832514 90.27749737 -244 85 C-243.06208618 84.20203003 -243.06208618 84.20203003 -242.10522461 83.38793945 C-195.56444077 43.94411194 -140.55968708 11.32730339 -80 0 C-79.17419434 -0.16226074 -78.34838867 -0.32452148 -77.49755859 -0.49169922 C-52.52872704 -5.24416392 -24.90640671 -4.875754 0 0 Z " fill="#7549AB" transform="translate(296,3)"/>
<path d="M0 0 C0.6815918 0.09651855 1.36318359 0.19303711 2.06542969 0.29248047 C51.60167156 7.47181681 98.26331019 31.34501985 138 61 C138.53882813 61.40138184 139.07765625 61.80276367 139.6328125 62.21630859 C148.02762293 68.49501012 156.06392854 75.15381569 164 82 C164.73992187 82.63808594 165.47984375 83.27617188 166.2421875 83.93359375 C168.17165896 85.61122657 170.08643508 87.30425024 172 89 C172.712771 89.62793457 173.42554199 90.25586914 174.15991211 90.90283203 C180.28040569 96.34481364 186.15702876 102.00101694 191.93408203 107.80371094 C193.39110886 109.26616891 194.8535037 110.72310944 196.31640625 112.1796875 C197.26073796 113.12467904 198.20475995 114.06998021 199.1484375 115.015625 C200.40406494 116.27294434 200.40406494 116.27294434 201.68505859 117.55566406 C203.94208593 119.9388488 205.98968066 122.40712193 208 125 C206.66131417 127.95044094 205.16727917 130.11786828 202.9453125 132.46875 C202.33631104 133.11658447 201.72730957 133.76441895 201.09985352 134.43188477 C200.44815186 135.11436279 199.7964502 135.79684082 199.125 136.5 C198.45460693 137.20761475 197.78421387 137.91522949 197.09350586 138.64428711 C181.43514719 155.1086863 181.43514719 155.1086863 172.96875 162.30859375 C170.72218493 164.23867842 168.55416096 166.24418139 166.375 168.25 C160.17474764 173.83589808 153.62362387 178.93110658 147 184 C146.34128906 184.50499023 145.68257813 185.00998047 145.00390625 185.53027344 C136.53720795 192.00217862 128.00319592 198.28559288 119 204 C118.36964844 204.40009277 117.73929687 204.80018555 117.08984375 205.21240234 C82.46865626 227.0641528 46.25930351 243.01615454 6 251 C5.02393799 251.19722656 4.04787598 251.39445313 3.04223633 251.59765625 C-7.03631689 253.40243355 -17.10680434 253.39739977 -27.3125 253.375 C-28.24308228 253.37445618 -29.17366455 253.37391235 -30.13244629 253.37335205 C-44.76081197 253.33407073 -58.73883734 252.48700553 -73 249 C-73.90975586 248.78569336 -74.81951172 248.57138672 -75.75683594 248.35058594 C-133.31450701 234.54879884 -186.27031311 201.71338359 -229.28125 161.53515625 C-231.77684925 159.20808166 -234.31549215 156.94368955 -236.875 154.6875 C-258.31934995 135.42569294 -258.31934995 135.42569294 -263 128 C-263 123.07131518 -262.12257016 122.55731826 -258.8125 119.0625 C-258.34416748 118.56596924 -257.87583496 118.06943848 -257.39331055 117.55786133 C-255.61231464 115.68829698 -253.80885355 113.84263961 -252 112 C-251.19046875 111.17532227 -250.3809375 110.35064453 -249.546875 109.50097656 C-246.8093887 106.72246799 -244.06335171 103.95277547 -241.3125 101.1875 C-240.42216064 100.29232666 -239.53182129 99.39715332 -238.61450195 98.47485352 C-233.5694861 93.44296962 -228.42444392 88.61888522 -223 84 C-221.55367187 82.7315625 -221.55367187 82.7315625 -220.078125 81.4375 C-171.69414714 39.73639201 -114.35474797 8.19944366 -50.66674805 -0.6237793 C-48.57679946 -0.91862602 -46.49214424 -1.25103583 -44.41015625 -1.59765625 C-29.74218782 -3.3282413 -14.56205601 -2.1589684 0 0 Z " fill="#FEFEFE" transform="translate(284,17)"/>
<path d="M0 0 C1.60279192 0.00015914 3.20558896 0.00585476 4.80834961 0.01586914 C5.65038437 0.01728409 6.49241913 0.01869904 7.35997009 0.02015686 C10.06024671 0.02577276 12.76044163 0.03832791 15.46069336 0.05102539 C17.28686404 0.05603834 19.11303602 0.06060161 20.93920898 0.06469727 C25.42556878 0.07574735 29.9118672 0.0930226 34.39819336 0.11352539 C39.41611541 11.81321311 39.41611541 11.81321311 40.55834961 15.95336914 C41.94017262 20.69702996 43.05970814 24.09251397 47.06616211 27.14868164 C51.64468574 29.32478603 55.7771232 30.82305151 60.77319336 29.36352539 C62.34221548 28.67257987 63.88076286 27.91142312 65.39819336 27.11352539 C67.20301681 26.18612995 69.00802412 25.2590684 70.81665039 24.33911133 C72.06205772 23.69762542 73.29918999 23.03976521 74.52661133 22.36450195 C78.80062562 20.09096213 78.80062562 20.09096213 81.22802734 20.18261719 C84.55196404 21.60844356 86.77685779 24.12622408 89.25756836 26.67993164 C89.80680969 27.23341782 90.35605103 27.78690399 90.92193604 28.35716248 C92.671198 30.12319098 94.4097298 31.89937231 96.14819336 33.67602539 C97.33369836 34.8765798 98.5198886 36.07645799 99.70678711 37.27563477 C102.61192629 40.21381634 105.50748673 43.16114613 108.39819336 46.11352539 C107.27885252 49.6190676 106.1031723 52.93564463 104.41772461 56.20727539 C103.87921875 57.2881543 103.87921875 57.2881543 103.32983398 58.39086914 C102.5813553 59.87737654 101.82345346 61.35917515 101.05639648 62.83618164 C98.82679224 67.36013362 97.70569747 70.13041482 99.39819336 75.11352539 C99.65608643 75.91588623 99.91397949 76.71824707 100.1796875 77.54492188 C101.77679993 81.6015949 103.14340479 84.3575273 106.94702148 86.64916992 C109.98453936 87.8450789 113.00429104 88.79843303 116.14819336 89.67602539 C118.24749058 90.32206063 120.34646755 90.96913776 122.44506836 91.61743164 C123.37158203 91.88370361 124.2980957 92.14997559 125.25268555 92.42431641 C127.39819336 93.11352539 127.39819336 93.11352539 128.39819336 94.11352539 C128.48681328 96.92515919 128.51341691 99.71210794 128.49584961 102.52368164 C128.49372719 103.78673378 128.49372719 103.78673378 128.49156189 105.07530212 C128.48594599 107.77557874 128.47339084 110.47577367 128.46069336 113.17602539 C128.45568041 115.00219607 128.45111714 116.82836805 128.44702148 118.65454102 C128.4359714 123.14090081 128.41869615 127.62719923 128.39819336 132.11352539 C127.66705322 132.32332031 126.93591309 132.53311523 126.18261719 132.74926758 C122.8418542 133.73837725 119.52837484 134.79967381 116.21069336 135.86352539 C115.06020508 136.19223633 113.9097168 136.52094727 112.72436523 136.85961914 C107.85647725 138.46813865 104.42193477 139.62901069 101.4465332 143.94360352 C99.22045789 148.9670955 97.75544759 152.72280457 99.39819336 158.11352539 C100.04621853 159.63822233 100.74934679 161.14043347 101.49975586 162.61743164 C102.11077148 163.85203125 102.11077148 163.85203125 102.73413086 165.11157227 C103.59665237 166.82746732 104.46388017 168.54100442 105.33569336 170.25219727 C105.74045898 171.07397461 106.14522461 171.89575195 106.56225586 172.74243164 C106.93817871 173.48565674 107.31410156 174.22888184 107.70141602 174.99462891 C108.58095028 177.6692883 108.57944481 178.54520973 107.39819336 181.11352539 C105.59290655 183.17409604 103.790639 185.07004171 101.83178711 186.97290039 C101.27830093 187.52214172 100.72481476 188.07138306 100.15455627 188.63726807 C98.38852777 190.38653003 96.61234644 192.12506183 94.83569336 193.86352539 C93.63513895 195.0490304 92.43526076 196.23522063 91.23608398 197.42211914 C88.29790241 200.32725832 85.35057262 203.22281876 82.39819336 206.11352539 C78.90023774 204.99750061 75.5971107 203.82801841 72.33959961 202.13305664 C71.62352539 201.77405273 70.90745117 201.41504883 70.16967773 201.04516602 C68.69536515 200.29823312 67.22654793 199.54035433 65.76342773 198.77172852 C60.86839631 196.34840209 57.85215245 195.58545047 52.39819336 197.11352539 C51.64675049 197.29866699 50.89530762 197.48380859 50.12109375 197.67456055 C46.28127517 198.91890606 44.03202935 200.034851 41.94897461 203.57983398 C40.75629923 206.62308972 39.79354734 209.65772071 38.89819336 212.80102539 C38.24318721 214.90948512 37.58700272 217.01757928 36.92944336 219.12524414 C36.52048828 220.52456177 36.52048828 220.52456177 36.10327148 221.95214844 C35.39819336 224.11352539 35.39819336 224.11352539 34.39819336 225.11352539 C31.58655956 225.20214531 28.79961081 225.22874894 25.98803711 225.21118164 C25.14600235 225.20976669 24.30396759 225.20835175 23.43641663 225.20689392 C20.73614001 225.20127802 18.03594508 225.18872287 15.33569336 225.17602539 C13.50952268 225.17101244 11.6833507 225.16644918 9.85717773 225.16235352 C5.37081794 225.15130343 0.88451952 225.13402818 -3.60180664 225.11352539 C-6.23915541 219.02376001 -8.73097805 213.1755846 -10.16430664 206.67602539 C-11.35274351 202.94932213 -12.07594155 201.4823139 -15.30883789 199.21508789 C-20.76903955 196.77785854 -24.72952238 195.47441692 -30.60180664 197.11352539 C-34.75235125 198.94426661 -38.76929249 201.04005192 -42.78930664 203.13891602 C-43.60657227 203.5469043 -44.42383789 203.95489258 -45.26586914 204.37524414 C-46.37115967 204.94698364 -46.37115967 204.94698364 -47.4987793 205.53027344 C-49.60180664 206.11352539 -49.60180664 206.11352539 -51.51806641 205.55151367 C-54.37067231 203.58293151 -56.81411478 201.26620525 -59.27758789 198.84399414 C-59.80700485 198.32597733 -60.33642181 197.80796051 -60.88188171 197.27424622 C-61.99484161 196.18012408 -63.10496306 195.08310803 -64.21240234 193.98339844 C-65.91234573 192.3029638 -67.63240869 190.64503396 -69.35375977 188.98657227 C-70.43384641 187.9195379 -71.51266758 186.85122073 -72.59008789 185.78149414 C-73.10767166 185.28860397 -73.62525543 184.79571381 -74.15852356 184.28788757 C-75.57568359 182.85253906 -75.57568359 182.85253906 -77.60180664 180.11352539 C-77.52496815 176.54341302 -76.11303678 173.79202307 -74.50024414 170.64477539 C-74.09290039 169.8262207 -73.68555664 169.00766602 -73.26586914 168.16430664 C-72.40489907 166.4606295 -71.53767699 164.76009782 -70.66430664 163.06274414 C-70.25954102 162.24418945 -69.85477539 161.42563477 -69.43774414 160.58227539 C-69.06182129 159.84428711 -68.68589844 159.10629883 -68.29858398 158.34594727 C-67.43165517 155.56837296 -67.85723126 153.89399563 -68.60180664 151.11352539 C-68.72297852 150.26532227 -68.84415039 149.41711914 -68.96899414 148.54321289 C-69.5272663 145.7346745 -70.14886692 143.59002861 -71.60180664 141.11352539 C-74.16613559 139.75922462 -76.48412806 139.28803319 -79.33227539 138.75805664 C-83.10499678 138.0143302 -86.62717902 136.80837343 -90.22680664 135.48852539 C-92.00958008 134.85043945 -92.00958008 134.85043945 -93.82836914 134.19946289 C-96.60180664 133.11352539 -96.60180664 133.11352539 -97.60180664 132.11352539 C-97.69042656 129.30189159 -97.71703019 126.51494284 -97.69946289 123.70336914 C-97.69804794 122.86133438 -97.696633 122.01929962 -97.69517517 121.15174866 C-97.68955927 118.45147204 -97.67700412 115.75127712 -97.66430664 113.05102539 C-97.65929369 111.22485471 -97.65473043 109.39868273 -97.65063477 107.57250977 C-97.63958468 103.08614997 -97.62230943 98.59985155 -97.60180664 94.11352539 C-93.27247148 92.08359861 -89.00468427 90.14575748 -84.39868164 88.83227539 C-76.4272996 86.60090741 -76.4272996 86.60090741 -70.42602539 81.23461914 C-68.19042851 76.10219249 -67.21534256 72.57022993 -68.60180664 67.11352539 C-69.2608911 65.58813992 -69.97584015 64.0859336 -70.73852539 62.60961914 C-71.15038086 61.78655273 -71.56223633 60.96348633 -71.98657227 60.11547852 C-72.85905184 58.39798874 -73.73934832 56.68444879 -74.62719727 54.97485352 C-75.03518555 54.15307617 -75.44317383 53.33129883 -75.86352539 52.48461914 C-76.24468506 51.74139404 -76.62584473 50.99816895 -77.01855469 50.23242188 C-77.60180664 48.11352539 -77.60180664 48.11352539 -77.03979492 46.19506836 C-75.07028149 43.34412242 -72.75394695 40.90066851 -70.33227539 38.43774414 C-69.81425858 37.90832718 -69.29624176 37.37891022 -68.76252747 36.83345032 C-67.66840533 35.72049042 -66.57138928 34.61036898 -65.47167969 33.50292969 C-63.79124505 31.8029863 -62.13331521 30.08292334 -60.47485352 28.36157227 C-59.40781915 27.28148562 -58.33950198 26.20266445 -57.26977539 25.12524414 C-56.77688522 24.60766037 -56.28399506 24.0900766 -55.77616882 23.55680847 C-54.34082031 22.13964844 -54.34082031 22.13964844 -51.60180664 20.11352539 C-48.02180069 20.18422569 -45.37705441 21.58282637 -42.27368164 23.28540039 C-41.07291992 23.90995117 -41.07291992 23.90995117 -39.84790039 24.54711914 C-38.18951039 25.42173171 -36.54079476 26.31494986 -34.90258789 27.22680664 C-30.26213004 29.62515933 -30.26213004 29.62515933 -25.16235352 29.77954102 C-22.87767164 29.02807564 -20.77431913 28.14208211 -18.60180664 27.11352539 C-17.74006836 26.85611572 -16.87833008 26.59870605 -15.99047852 26.33349609 C-12.74206227 24.6744266 -12.36580948 23.10652793 -11.17993164 19.70336914 C-10.79450195 18.63151367 -10.40907227 17.5596582 -10.01196289 16.45532227 C-9.62911133 15.3319043 -9.24625977 14.20848633 -8.85180664 13.05102539 C-8.06713899 10.83033977 -7.28077387 8.61025295 -6.49243164 6.39086914 C-6.15244141 5.4033667 -5.81245117 4.41586426 -5.4621582 3.3984375 C-4.09848752 -0.22318393 -4.17758359 0.13167331 0 0 Z " fill="#CFB8FD" transform="translate(240.601806640625,29.886474609375)"/>
<path d="M0 0 C0 62.7 0 125.4 0 190 C-85.8125 190.25 -85.8125 190.25 -112.87817383 190.29785156 C-120.90530852 190.33108366 -120.90530852 190.33108366 -128.93241882 190.36956787 C-132.49947836 190.3865289 -136.0663697 190.39243355 -139.63346863 190.39154053 C-144.19271395 190.39076606 -148.75151397 190.40917399 -153.31064355 190.44108915 C-154.97810203 190.44956573 -156.64561093 190.45147455 -158.31308138 190.44582415 C-169.89937348 190.411553 -180.0531752 191.41826358 -189.5625 198.75 C-193.82983193 202 -193.82983193 202 -196 202 C-196 164.38 -196 126.76 -196 88 C-185.11 87.01 -185.11 87.01 -174 86 C-170.10444979 85.48027832 -166.29248255 84.95107569 -162.4375 84.25 C-161.49318115 84.08008545 -160.5488623 83.9101709 -159.57592773 83.73510742 C-100.86977606 72.67537957 -48.15582244 39.96062593 -3.23046875 1.80078125 C-1 0 -1 0 0 0 Z " fill="#B2E7F2" transform="translate(459,197)"/>
<path d="M0 0 C4.61613746 3.46210309 9.10547171 6.86591977 13.52758789 10.53979492 C21.7172712 17.33713785 30.19072247 23.6005814 38.97119141 29.61083984 C40.87638531 30.9153589 42.7723846 32.23236004 44.66796875 33.55078125 C55.05908193 40.70113678 65.97967034 46.87996812 77 53 C77.72944824 53.41137207 78.45889648 53.82274414 79.21044922 54.24658203 C115.29413574 74.56017168 154.82673526 85.42667095 196 88 C196 125.62 196 163.24 196 202 C193.21310665 200.60655332 191.05421519 199.36753579 188.5625 197.625 C177.73190966 190.93648098 166.15882678 190.4116118 153.8269043 190.45410156 C152.11320724 190.44528468 150.39951838 190.43473204 148.68584156 190.42260361 C144.13465243 190.39510976 139.58373845 190.39108589 135.03247833 190.39224243 C130.74734922 190.38968326 126.46244201 190.36553265 122.17736816 190.34326172 C109.68081733 190.29069761 97.18414131 190.27240135 84.6875 190.25 C56.740625 190.1675 28.79375 190.085 0 190 C0 127.3 0 64.6 0 0 Z " fill="#B2E7F2" transform="translate(53,197)"/>
<path d="M0 0 C7.59 0 15.18 0 23 0 C23 85.8 23 171.6 23 260 C166.88 260 310.76 260 459 260 C459 174.2 459 88.4 459 0 C466.59 0 474.18 0 482 0 C482 90.75 482 181.5 482 275 C375.08 275.495 375.08 275.495 266 276 C264.68 278.64 263.36 281.28 262 284 C258.5536557 289.29260017 253.58237712 292.77444993 247.625 294.8125 C246.325625 294.9053125 246.325625 294.9053125 245 295 C243.88818359 295.0928125 243.88818359 295.0928125 242.75390625 295.1875 C236.46729616 295.49369714 232.27499715 294.39444884 227 291 C226.113125 290.443125 225.22625 289.88625 224.3125 289.3125 C220.50691946 285.50691946 218.38628675 280.7725735 216 276 C109.08 275.505 109.08 275.505 0 275 C0 184.25 0 93.5 0 0 Z " fill="#FDFCFE" transform="translate(15,202)"/>
<path d="M0 0 C1.60279192 0.00015914 3.20558896 0.00585476 4.80834961 0.01586914 C5.65038437 0.01728409 6.49241913 0.01869904 7.35997009 0.02015686 C10.06024671 0.02577276 12.76044163 0.03832791 15.46069336 0.05102539 C17.28686404 0.05603834 19.11303602 0.06060161 20.93920898 0.06469727 C25.42556878 0.07574735 29.9118672 0.0930226 34.39819336 0.11352539 C39.41611541 11.81321311 39.41611541 11.81321311 40.55834961 15.95336914 C41.94017262 20.69702996 43.05970814 24.09251397 47.06616211 27.14868164 C51.64468574 29.32478603 55.7771232 30.82305151 60.77319336 29.36352539 C62.34221548 28.67257987 63.88076286 27.91142312 65.39819336 27.11352539 C67.20301681 26.18612995 69.00802412 25.2590684 70.81665039 24.33911133 C72.06205772 23.69762542 73.29918999 23.03976521 74.52661133 22.36450195 C78.80062562 20.09096213 78.80062562 20.09096213 81.22802734 20.18261719 C84.55196404 21.60844356 86.77685779 24.12622408 89.25756836 26.67993164 C89.80680969 27.23341782 90.35605103 27.78690399 90.92193604 28.35716248 C92.671198 30.12319098 94.4097298 31.89937231 96.14819336 33.67602539 C97.33369836 34.8765798 98.5198886 36.07645799 99.70678711 37.27563477 C102.61192629 40.21381634 105.50748673 43.16114613 108.39819336 46.11352539 C107.27885252 49.6190676 106.1031723 52.93564463 104.41772461 56.20727539 C103.87921875 57.2881543 103.87921875 57.2881543 103.32983398 58.39086914 C102.5813553 59.87737654 101.82345346 61.35917515 101.05639648 62.83618164 C98.82679224 67.36013362 97.70569747 70.13041482 99.39819336 75.11352539 C99.65608643 75.91588623 99.91397949 76.71824707 100.1796875 77.54492188 C101.77679993 81.6015949 103.14340479 84.3575273 106.94702148 86.64916992 C109.98453936 87.8450789 113.00429104 88.79843303 116.14819336 89.67602539 C118.24749058 90.32206063 120.34646755 90.96913776 122.44506836 91.61743164 C123.37158203 91.88370361 124.2980957 92.14997559 125.25268555 92.42431641 C127.39819336 93.11352539 127.39819336 93.11352539 128.39819336 94.11352539 C128.48681328 96.92515919 128.51341691 99.71210794 128.49584961 102.52368164 C128.49372719 103.78673378 128.49372719 103.78673378 128.49156189 105.07530212 C128.48594599 107.77557874 128.47339084 110.47577367 128.46069336 113.17602539 C128.45568041 115.00219607 128.45111714 116.82836805 128.44702148 118.65454102 C128.4359714 123.14090081 128.41869615 127.62719923 128.39819336 132.11352539 C127.66705322 132.32332031 126.93591309 132.53311523 126.18261719 132.74926758 C122.8418542 133.73837725 119.52837484 134.79967381 116.21069336 135.86352539 C115.06020508 136.19223633 113.9097168 136.52094727 112.72436523 136.85961914 C107.85647725 138.46813865 104.42193477 139.62901069 101.4465332 143.94360352 C99.22045789 148.9670955 97.75544759 152.72280457 99.39819336 158.11352539 C100.04621853 159.63822233 100.74934679 161.14043347 101.49975586 162.61743164 C102.11077148 163.85203125 102.11077148 163.85203125 102.73413086 165.11157227 C103.59665237 166.82746732 104.46388017 168.54100442 105.33569336 170.25219727 C105.74045898 171.07397461 106.14522461 171.89575195 106.56225586 172.74243164 C106.93817871 173.48565674 107.31410156 174.22888184 107.70141602 174.99462891 C108.58095028 177.6692883 108.57944481 178.54520973 107.39819336 181.11352539 C105.59290655 183.17409604 103.790639 185.07004171 101.83178711 186.97290039 C101.27830093 187.52214172 100.72481476 188.07138306 100.15455627 188.63726807 C98.38852777 190.38653003 96.61234644 192.12506183 94.83569336 193.86352539 C93.63513895 195.0490304 92.43526076 196.23522063 91.23608398 197.42211914 C88.29790241 200.32725832 85.35057262 203.22281876 82.39819336 206.11352539 C78.90023774 204.99750061 75.5971107 203.82801841 72.33959961 202.13305664 C71.62352539 201.77405273 70.90745117 201.41504883 70.16967773 201.04516602 C68.69536515 200.29823312 67.22654793 199.54035433 65.76342773 198.77172852 C60.86839631 196.34840209 57.85215245 195.58545047 52.39819336 197.11352539 C51.64675049 197.29866699 50.89530762 197.48380859 50.12109375 197.67456055 C46.28127517 198.91890606 44.03202935 200.034851 41.94897461 203.57983398 C40.75629923 206.62308972 39.79354734 209.65772071 38.89819336 212.80102539 C38.24318721 214.90948512 37.58700272 217.01757928 36.92944336 219.12524414 C36.52048828 220.52456177 36.52048828 220.52456177 36.10327148 221.95214844 C35.39819336 224.11352539 35.39819336 224.11352539 34.39819336 225.11352539 C31.58655956 225.20214531 28.79961081 225.22874894 25.98803711 225.21118164 C25.14600235 225.20976669 24.30396759 225.20835175 23.43641663 225.20689392 C20.73614001 225.20127802 18.03594508 225.18872287 15.33569336 225.17602539 C13.50952268 225.17101244 11.6833507 225.16644918 9.85717773 225.16235352 C5.37081794 225.15130343 0.88451952 225.13402818 -3.60180664 225.11352539 C-6.23915541 219.02376001 -8.73097805 213.1755846 -10.16430664 206.67602539 C-11.35274351 202.94932213 -12.07594155 201.4823139 -15.30883789 199.21508789 C-20.76903955 196.77785854 -24.72952238 195.47441692 -30.60180664 197.11352539 C-34.75235125 198.94426661 -38.76929249 201.04005192 -42.78930664 203.13891602 C-43.60657227 203.5469043 -44.42383789 203.95489258 -45.26586914 204.37524414 C-46.37115967 204.94698364 -46.37115967 204.94698364 -47.4987793 205.53027344 C-49.60180664 206.11352539 -49.60180664 206.11352539 -51.51806641 205.55151367 C-54.37067231 203.58293151 -56.81411478 201.26620525 -59.27758789 198.84399414 C-59.80700485 198.32597733 -60.33642181 197.80796051 -60.88188171 197.27424622 C-61.99484161 196.18012408 -63.10496306 195.08310803 -64.21240234 193.98339844 C-65.91234573 192.3029638 -67.63240869 190.64503396 -69.35375977 188.98657227 C-70.43384641 187.9195379 -71.51266758 186.85122073 -72.59008789 185.78149414 C-73.10767166 185.28860397 -73.62525543 184.79571381 -74.15852356 184.28788757 C-75.57568359 182.85253906 -75.57568359 182.85253906 -77.60180664 180.11352539 C-77.52496815 176.54341302 -76.11303678 173.79202307 -74.50024414 170.64477539 C-74.09290039 169.8262207 -73.68555664 169.00766602 -73.26586914 168.16430664 C-72.40489907 166.4606295 -71.53767699 164.76009782 -70.66430664 163.06274414 C-70.25954102 162.24418945 -69.85477539 161.42563477 -69.43774414 160.58227539 C-69.06182129 159.84428711 -68.68589844 159.10629883 -68.29858398 158.34594727 C-67.43165517 155.56837296 -67.85723126 153.89399563 -68.60180664 151.11352539 C-68.72297852 150.26532227 -68.84415039 149.41711914 -68.96899414 148.54321289 C-69.5272663 145.7346745 -70.14886692 143.59002861 -71.60180664 141.11352539 C-74.16613559 139.75922462 -76.48412806 139.28803319 -79.33227539 138.75805664 C-83.10499678 138.0143302 -86.62717902 136.80837343 -90.22680664 135.48852539 C-92.00958008 134.85043945 -92.00958008 134.85043945 -93.82836914 134.19946289 C-96.60180664 133.11352539 -96.60180664 133.11352539 -97.60180664 132.11352539 C-97.69042656 129.30189159 -97.71703019 126.51494284 -97.69946289 123.70336914 C-97.69804794 122.86133438 -97.696633 122.01929962 -97.69517517 121.15174866 C-97.68955927 118.45147204 -97.67700412 115.75127712 -97.66430664 113.05102539 C-97.65929369 111.22485471 -97.65473043 109.39868273 -97.65063477 107.57250977 C-97.63958468 103.08614997 -97.62230943 98.59985155 -97.60180664 94.11352539 C-93.27247148 92.08359861 -89.00468427 90.14575748 -84.39868164 88.83227539 C-76.4272996 86.60090741 -76.4272996 86.60090741 -70.42602539 81.23461914 C-68.19042851 76.10219249 -67.21534256 72.57022993 -68.60180664 67.11352539 C-69.2608911 65.58813992 -69.97584015 64.0859336 -70.73852539 62.60961914 C-71.15038086 61.78655273 -71.56223633 60.96348633 -71.98657227 60.11547852 C-72.85905184 58.39798874 -73.73934832 56.68444879 -74.62719727 54.97485352 C-75.03518555 54.15307617 -75.44317383 53.33129883 -75.86352539 52.48461914 C-76.24468506 51.74139404 -76.62584473 50.99816895 -77.01855469 50.23242188 C-77.60180664 48.11352539 -77.60180664 48.11352539 -77.03979492 46.19506836 C-75.07028149 43.34412242 -72.75394695 40.90066851 -70.33227539 38.43774414 C-69.81425858 37.90832718 -69.29624176 37.37891022 -68.76252747 36.83345032 C-67.66840533 35.72049042 -66.57138928 34.61036898 -65.47167969 33.50292969 C-63.79124505 31.8029863 -62.13331521 30.08292334 -60.47485352 28.36157227 C-59.40781915 27.28148562 -58.33950198 26.20266445 -57.26977539 25.12524414 C-56.77688522 24.60766037 -56.28399506 24.0900766 -55.77616882 23.55680847 C-54.34082031 22.13964844 -54.34082031 22.13964844 -51.60180664 20.11352539 C-48.02180069 20.18422569 -45.37705441 21.58282637 -42.27368164 23.28540039 C-41.07291992 23.90995117 -41.07291992 23.90995117 -39.84790039 24.54711914 C-38.18951039 25.42173171 -36.54079476 26.31494986 -34.90258789 27.22680664 C-30.26213004 29.62515933 -30.26213004 29.62515933 -25.16235352 29.77954102 C-22.87767164 29.02807564 -20.77431913 28.14208211 -18.60180664 27.11352539 C-17.74006836 26.85611572 -16.87833008 26.59870605 -15.99047852 26.33349609 C-12.74206227 24.6744266 -12.36580948 23.10652793 -11.17993164 19.70336914 C-10.79450195 18.63151367 -10.40907227 17.5596582 -10.01196289 16.45532227 C-9.62911133 15.3319043 -9.24625977 14.20848633 -8.85180664 13.05102539 C-8.06713899 10.83033977 -7.28077387 8.61025295 -6.49243164 6.39086914 C-6.15244141 5.4033667 -5.81245117 4.41586426 -5.4621582 3.3984375 C-4.09848752 -0.22318393 -4.17758359 0.13167331 0 0 Z M6.39819336 15.11352539 C5.22775338 18.40389491 4.06168802 21.69570075 2.89819336 24.98852539 C2.56432617 25.92567383 2.23045898 26.86282227 1.88647461 27.82836914 C1.5706543 28.72426758 1.25483398 29.62016602 0.92944336 30.54321289 C0.48955078 31.78433838 0.48955078 31.78433838 0.04077148 33.05053711 C-0.70093565 35.07165324 -0.70093565 35.07165324 -0.60180664 37.11352539 C-1.16125977 37.26047852 -1.72071289 37.40743164 -2.29711914 37.55883789 C-8.93255524 39.41505313 -15.01100192 42.02993913 -21.20727539 45.00415039 C-26.60042582 46.76669898 -30.13492414 45.79054808 -35.20727539 43.44946289 C-37.02234846 42.4756178 -38.81862698 41.47209346 -40.61547852 40.46508789 C-43.97907205 38.6549482 -43.97907205 38.6549482 -47.69946289 38.08618164 C-50.59046972 39.64744406 -52.58162054 41.81622668 -54.85180664 44.17602539 C-55.74383789 45.09512695 -56.63586914 46.01422852 -57.55493164 46.96118164 C-58.56813477 48.0265918 -58.56813477 48.0265918 -59.60180664 49.11352539 C-57.88814397 54.67247991 -55.39884119 59.63498742 -52.74633789 64.79711914 C-50.21929116 72.11951734 -53.82133835 78.67458946 -56.66430664 85.42602539 C-57.40816282 87.21255177 -58.14919661 89.00025677 -58.88696289 90.78930664 C-59.38015015 91.96360229 -59.38015015 91.96360229 -59.88330078 93.16162109 C-60.71695472 95.07968059 -60.71695472 95.07968059 -60.60180664 97.11352539 C-61.81868164 97.34040039 -63.03555664 97.56727539 -64.28930664 97.80102539 C-70.66053965 99.19536872 -76.55790206 101.69596356 -82.60180664 104.11352539 C-82.60180664 110.05352539 -82.60180664 115.99352539 -82.60180664 122.11352539 C-79.31143712 123.28396537 -76.01963128 124.45003073 -72.72680664 125.61352539 C-71.7896582 125.94739258 -70.85250977 126.28125977 -69.88696289 126.62524414 C-68.99106445 126.94106445 -68.09516602 127.25688477 -67.17211914 127.58227539 C-65.93099365 128.02216797 -65.93099365 128.02216797 -64.66479492 128.47094727 C-62.64367879 129.2126544 -62.64367879 129.2126544 -60.60180664 129.11352539 C-60.23055664 130.28915039 -59.85930664 131.46477539 -59.47680664 132.67602539 C-58.46129802 135.78663673 -57.32820978 138.80310415 -56.03149414 141.80493164 C-55.7557959 142.45324951 -55.48009766 143.10156738 -55.19604492 143.76953125 C-54.64319143 145.05893651 -54.07689812 146.34268117 -53.49584961 147.61962891 C-51.53792479 152.22446828 -51.36574197 155.28801526 -52.60180664 160.11352539 C-53.72272649 162.61879469 -54.85456933 164.96709513 -56.16430664 167.36352539 C-58.77787269 171.9626794 -58.77787269 171.9626794 -59.60180664 177.11352539 C-58.94180664 177.11352539 -58.28180664 177.11352539 -57.60180664 177.11352539 C-57.60180664 177.77352539 -57.60180664 178.43352539 -57.60180664 179.11352539 C-55.76847331 181.28019206 -55.76847331 181.28019206 -53.60180664 183.11352539 C-52.94180664 183.11352539 -52.28180664 183.11352539 -51.60180664 183.11352539 C-51.60180664 183.77352539 -51.60180664 184.43352539 -51.60180664 185.11352539 C-50.14347306 186.73867007 -50.14347306 186.73867007 -48.60180664 188.11352539 C-43.06495594 186.40923951 -38.14459522 183.9222489 -33.01586914 181.25805664 C-25.28918684 178.66776155 -18.76351532 182.01278445 -11.72680664 185.17602539 C-10.04322931 185.91990208 -8.35839256 186.66093702 -6.67211914 187.39868164 C-5.93751465 187.72747314 -5.20291016 188.05626465 -4.44604492 188.39501953 C-2.62108902 189.23453127 -2.62108902 189.23453127 -0.60180664 189.11352539 C-0.43165039 189.69618164 -0.26149414 190.27883789 -0.08618164 190.87915039 C1.92355207 197.67803677 4.13282225 204.3955283 6.39819336 211.11352539 C12.33819336 211.11352539 18.27819336 211.11352539 24.39819336 211.11352539 C25.56863333 207.82315587 26.7346987 204.53135003 27.89819336 201.23852539 C28.39899414 199.83280273 28.39899414 199.83280273 28.90991211 198.39868164 C29.22573242 197.5027832 29.54155273 196.60688477 29.86694336 195.68383789 C30.30683594 194.4427124 30.30683594 194.4427124 30.75561523 193.17651367 C31.49732237 191.15539754 31.49732237 191.15539754 31.39819336 189.11352539 C33.19256836 188.55665039 33.19256836 188.55665039 35.02319336 187.98852539 C40.55359848 186.17427205 45.78854013 183.75501526 51.06616211 181.32055664 C55.25037211 179.80482289 58.16806295 179.2280685 62.39599609 180.90673828 C65.40914912 182.33537964 68.35171863 183.88202077 71.29663086 185.44555664 C72.02366211 185.81293945 72.75069336 186.18032227 73.49975586 186.55883789 C74.15282715 186.90446777 74.80589844 187.25009766 75.47875977 187.60620117 C77.45966303 188.32329355 77.45966303 188.32329355 79.5793457 187.33569336 C81.54419271 186.23233487 81.54419271 186.23233487 82.39819336 184.11352539 C83.64327732 181.62335747 84.86536132 181.12665821 87.39819336 180.11352539 C87.39819336 179.45352539 87.39819336 178.79352539 87.39819336 178.11352539 C88.38819336 177.78352539 89.37819336 177.45352539 90.39819336 177.11352539 C89.70749886 171.96736494 87.31096173 167.84074693 84.83764648 163.37329102 C82.24510884 158.46196193 81.80311035 154.8424593 82.98291016 149.43212891 C88.69086142 131.67316278 88.69086142 131.67316278 94.93286133 127.36352539 C100.84984144 124.59505846 106.98311372 123.20633362 113.39819336 122.11352539 C113.39819336 116.17352539 113.39819336 110.23352539 113.39819336 104.11352539 C110.10782384 102.94308542 106.816018 101.77702005 103.52319336 100.61352539 C102.1174707 100.11272461 102.1174707 100.11272461 100.68334961 99.60180664 C99.78745117 99.28598633 98.89155273 98.97016602 97.96850586 98.64477539 C96.72738037 98.20488281 96.72738037 98.20488281 95.46118164 97.75610352 C93.44006551 97.01439638 93.44006551 97.01439638 91.39819336 97.11352539 C91.25124023 96.55407227 91.10428711 95.99461914 90.95288086 95.41821289 C89.09666562 88.78277679 86.48177962 82.70433011 83.50756836 76.50805664 C81.5082336 70.39037387 83.30310625 65.83836452 86.07202148 60.36157227 C86.75514521 59.05718765 87.44274584 57.75513907 88.13452148 56.45532227 C90.03833405 52.86824299 90.03833405 52.86824299 89.87475586 48.95727539 C88.02011052 46.64142195 86.14352567 44.4418627 84.08569336 42.30102539 C83.32643555 41.49020508 82.56717773 40.67938477 81.78491211 39.84399414 C79.57011326 37.87950459 79.57011326 37.87950459 77.03100586 38.12524414 C73.08610656 39.60604462 69.46383985 41.64136958 65.83374023 43.76196289 C61.12836875 46.29922398 57.44007945 46.51134405 52.39819336 45.11352539 C49.03087739 43.91754646 45.78134808 42.51567724 42.52319336 41.05102539 C40.83961603 40.3071487 39.15477928 39.56611376 37.46850586 38.82836914 C36.73390137 38.49957764 35.99929688 38.17078613 35.24243164 37.83203125 C33.41747574 36.99251951 33.41747574 36.99251951 31.39819336 37.11352539 C31.22803711 36.44708008 31.05788086 35.78063477 30.88256836 35.09399414 C29.08764697 28.26756438 26.88598105 21.71903065 24.39819336 15.11352539 C18.45819336 15.11352539 12.51819336 15.11352539 6.39819336 15.11352539 Z " fill="#444EA7" transform="translate(240.601806640625,29.886474609375)"/>
<path d="M0 0 C1.02805642 -0.00128164 1.02805642 -0.00128164 2.07688165 -0.00258917 C4.37234633 -0.00423566 6.66773786 0.00126382 8.9631958 0.00672913 C10.60908507 0.0070112 12.25497446 0.00685286 13.90086365 0.00628662 C18.36950354 0.00599945 22.83811664 0.01188331 27.3067503 0.01886058 C31.97659355 0.02510737 36.6464374 0.02569897 41.31628418 0.02688599 C50.15952393 0.02999538 59.00275134 0.03820351 67.84598565 0.04823548 C77.91359981 0.05940875 87.98121456 0.06491013 98.04883337 0.06993091 C118.75890271 0.08038644 139.46895512 0.09872708 160.17901611 0.12025452 C160.17901611 15.30025452 160.17901611 30.48025452 160.17901611 46.12025452 C95.49901611 46.12025452 30.81901611 46.12025452 -35.82098389 46.12025452 C-35.82098389 20.13942948 -35.82098389 20.13942948 -25.46551514 9.35462952 C-17.90759683 2.9689142 -9.74946363 -0.00731942 0 0 Z " fill="#FCFAFD" transform="translate(298.82098388671875,400.87974548339844)"/>
<path d="M0 0 C21.54958344 -0.11305817 43.09892512 -0.20508349 64.64873028 -0.25906086 C74.65565835 -0.2847945 84.66238847 -0.31985209 94.66918945 -0.37719727 C103.3955764 -0.42718085 112.12181992 -0.45932616 120.84834605 -0.47044247 C125.46500816 -0.47693601 130.08126008 -0.49209566 134.69779015 -0.52865028 C139.05219766 -0.56284669 143.40603003 -0.57300581 147.76055908 -0.56553841 C149.34994964 -0.56690248 150.93936148 -0.57669338 152.52863503 -0.59602737 C165.15764803 -0.74199444 176.92311797 0.97358261 186.35546875 10.1875 C196.65477384 21.53875311 196 29.54897864 196 46 C131.32 46 66.64 46 0 46 C0 30.82 0 15.64 0 0 Z " fill="#FCFAFD" transform="translate(53,401)"/>
<path d="M0 0 C0.87293701 0.00692871 1.74587402 0.01385742 2.64526367 0.02099609 C10.24947981 0.27594897 15.92107673 2.2303655 22.1875 6.625 C23.19296875 7.2746875 23.19296875 7.2746875 24.21875 7.9375 C30.21360645 12.35476265 34.82805986 19.87874655 36.86328125 26.984375 C38.2875578 38.58450687 38.44173386 49.62623663 31.19921875 59.2734375 C26.78181019 64.47667177 22.30360659 68.57932749 16.1875 71.625 C15.053125 72.223125 13.91875 72.82125 12.75 73.4375 C4.09753392 76.41874574 -8.27832051 76.07669416 -16.54296875 72.078125 C-26.47936826 65.71609295 -34.11728803 57.23514388 -36.8125 45.625 C-37.02058384 42.94963637 -37.14749569 40.41895236 -37.125 37.75 C-37.11936035 37.04673584 -37.1137207 36.34347168 -37.10791016 35.61889648 C-36.86849897 25.35147496 -33.23214243 16.79968684 -25.73828125 9.64453125 C-17.84823164 3.18653253 -10.23819788 -0.13300228 0 0 Z " fill="#FDFDFE" transform="translate(255.8125,105.375)"/>
<path d="M0 0 C9.69687844 8.23900292 17.86934928 19.56890656 19.39648438 32.50805664 C19.55525899 35.37780734 19.60064726 38.21972511 19.58203125 41.09375 C19.57703613 42.10646973 19.57204102 43.11918945 19.56689453 44.16259766 C19.28808948 56.16659729 15.37001843 65.30040106 8.08203125 74.84375 C7.46328125 75.66875 6.84453125 76.49375 6.20703125 77.34375 C-1.47126474 86.3770394 -14.13126277 92.93789204 -26.00170898 94.03662109 C-41.53417662 94.59908289 -53.26327986 92.50777999 -65.91796875 82.84375 C-66.74296875 82.22757812 -67.56796875 81.61140625 -68.41796875 80.9765625 C-77.30793034 73.39231402 -84.16099522 61.18806117 -85.11083984 49.46289062 C-85.72934359 30.55541867 -83.05963143 18.03935375 -69.89453125 3.62890625 C-50.45371975 -15.19760452 -21.53360571 -15.91238333 0 0 Z M-54.91796875 10.84375 C-55.59988281 11.30007812 -56.28179687 11.75640625 -56.984375 12.2265625 C-63.97633685 17.51206282 -67.9614386 25.45479197 -69.91796875 33.84375 C-70.87221637 44.62896725 -70.53268362 54.50313177 -63.96484375 63.52734375 C-56.97744416 71.74853243 -49.05191573 78.16193414 -38.03515625 79.21484375 C-26.7152699 79.54297565 -17.57121677 77.94427474 -8.54296875 70.53125 C-0.73002928 63.02692976 4.08053588 55.69587275 4.43383789 44.67382812 C4.55753282 32.58036987 2.06841312 24.23855192 -5.91796875 14.84375 C-13.51744062 7.61573908 -22.30540226 4.08332015 -32.73046875 4.21875 C-34.03987427 4.22914307 -34.03987427 4.22914307 -35.37573242 4.23974609 C-42.97484085 4.49452772 -48.66014724 6.44197603 -54.91796875 10.84375 Z " fill="#444EA8" transform="translate(288.91796875,101.15625)"/>
<path d="M0 0 C46.2 0 92.4 0 140 0 C140 4.95 140 9.9 140 15 C93.8 15 47.6 15 0 15 C0 10.05 0 5.1 0 0 Z " fill="#754CAC" transform="translate(296,302)"/>
<path d="M0 0 C46.2 0 92.4 0 140 0 C140 4.95 140 9.9 140 15 C93.8 15 47.6 15 0 15 C0 10.05 0 5.1 0 0 Z " fill="#754CAC" transform="translate(76,302)"/>
<path d="M0 0 C29.37 0 58.74 0 89 0 C89 4.95 89 9.9 89 15 C59.63 15 30.26 15 0 15 C0 10.05 0 5.1 0 0 Z " fill="#7E4CAD" transform="translate(296,332)"/>
<path d="M0 0 C29.37 0 58.74 0 89 0 C89 4.95 89 9.9 89 15 C59.63 15 30.26 15 0 15 C0 10.05 0 5.1 0 0 Z " fill="#7E4CAD" transform="translate(76,332)"/>
</svg>
