<?xml version="1.0" encoding="UTF-8"?>
<svg version="1.1" xmlns="http://www.w3.org/2000/svg" width="512" height="512">
<path d="M0 0 C14.27648314 4.60843587 27.24647823 12.349806 34.58203125 25.80859375 C51.07855896 59.34987215 55.91997262 100.38243767 56.875 137.4375 C19.68556362 136.47900937 -39.91338461 133.98465479 -67.125 105.4375 C-76.8212335 93.64478358 -83.65306042 77.98081761 -82.93899536 62.48019409 C-81.88811044 54.54079205 -74.97514825 49.14908723 -69.52734375 43.84765625 C-68.21586793 42.52605499 -66.90662391 41.20223569 -65.59950256 39.87632751 C-62.8614153 37.11622044 -60.09829606 34.38481972 -57.31420898 31.67114258 C-53.76499644 28.20741645 -50.28746279 24.68062018 -46.82605648 21.12940311 C-44.13762805 18.38650418 -41.41415133 15.68066153 -38.67907906 12.98434258 C-37.38245018 11.69764781 -36.09667065 10.39991528 -34.82270622 9.09077644 C-23.51394342 -2.46104266 -16.07193221 -3.83006382 0 0 Z " fill="#000000" transform="translate(426.125,345.5625)"/>
<path d="M0 0 C4.47496601 2.52806521 8.15671543 5.79919388 11.875 9.3125 C12.93295018 10.29756664 13.9915438 11.28194269 15.05078125 12.265625 C15.55818848 12.73806641 16.0655957 13.21050781 16.58837891 13.69726562 C18.38348338 15.35390303 20.21600217 16.96347096 22.0625 18.5625 C25.25244609 21.3280042 28.38092989 24.15475772 31.5 27 C35.28662998 30.45328153 39.1047632 33.86099051 42.97265625 37.22265625 C45.33489173 39.29359487 47.66795853 41.39512848 50 43.5 C52.98062721 46.18983431 55.97245233 48.86310364 59 51.5 C62.89512811 54.89253093 66.72782763 58.35194201 70.5625 61.8125 C72.69417481 63.72554149 74.8401911 65.61887612 77 67.5 C80.89651647 70.89374015 84.73064945 74.35430003 88.56640625 77.81640625 C90.67511146 79.70848685 92.79919801 81.57905758 94.9375 83.4375 C99.13164365 87.08937053 103.23094292 90.84266184 107.33984375 94.58984375 C110.18755795 97.16993136 113.07244018 99.70201856 115.97265625 102.22265625 C118.33489173 104.29359487 120.66795853 106.39512848 123 108.5 C125.98062721 111.18983431 128.97245233 113.86310364 132 116.5 C135.89512811 119.89253093 139.72782763 123.35194201 143.5625 126.8125 C145.69417481 128.72554149 147.8401911 130.61887612 150 132.5 C155.58979989 137.37143203 161.07534898 142.3589515 166.578125 147.328125 C171.01398459 151.32856279 175.46874467 155.30290947 179.97265625 159.2265625 C183.66957793 162.46047858 187.33314248 165.732083 191 169 C189.54131246 172.35999018 187.69131052 174.55203106 185.10107422 177.12597656 C184.3003952 177.92650452 183.49971619 178.72703247 182.67477417 179.55181885 C181.81014557 180.40612488 180.94551697 181.26043091 180.0546875 182.140625 C179.1696756 183.02280701 178.2846637 183.90498901 177.37283325 184.81390381 C175.02549869 187.15194543 172.67393215 189.48555874 170.32019043 191.81713867 C167.91686073 194.19996526 165.51922233 196.58850348 163.12109375 198.9765625 C158.41928533 203.65631862 153.71181336 208.33031867 149 213 C144.8213276 211.10694916 142.20414928 208.24895283 139.1875 204.875 C138.65342529 204.28678467 138.11935059 203.69856934 137.5690918 203.0925293 C134.2383693 199.41391897 130.94749376 195.70085841 127.69921875 191.94921875 C124.18595331 187.91905909 120.58316944 183.96793932 117 180 C112.23213025 174.72014424 107.48487782 169.42708194 102.8125 164.0625 C100.72788836 161.69035571 98.61571356 159.34443935 96.5 157 C93.23609152 153.38323655 90.01209051 149.73610392 86.8125 146.0625 C83.9673071 142.8248667 81.07146164 139.6331371 78.18359375 136.43359375 C76.29151315 134.32488854 74.42094242 132.20080199 72.5625 130.0625 C69.75177475 126.83440488 66.884201 123.66261557 64 120.5 C60.54671847 116.71337002 57.13900949 112.8952368 53.77734375 109.02734375 C51.70640513 106.66510827 49.60487152 104.33204147 47.5 102 C44.23609152 98.38323655 41.01209051 94.73610392 37.8125 91.0625 C34.9673071 87.8248667 32.07146164 84.6331371 29.18359375 81.43359375 C27.29151315 79.32488854 25.42094242 77.20080199 23.5625 75.0625 C20.75177475 71.83440488 17.884201 68.66261557 15 65.5 C11.54671847 61.71337002 8.13900949 57.8952368 4.77734375 54.02734375 C2.70640513 51.66510827 0.60487152 49.33204147 -1.5 47 C-22.39386775 23.80816033 -22.39386775 23.80816033 -22.27734375 12.984375 C-21.77970509 7.62950268 -19.24904972 5.18659723 -15.5 1.625 C-10.44221514 -0.72325726 -5.48314207 -0.97097307 0 0 Z " fill="#000000" transform="translate(47,25)"/>
<path d="M0 0 C2.73417421 1.25777204 4.54530576 3.06419436 6.68054223 5.17183489 C7.49136254 5.9517177 8.30218286 6.73160051 9.13757348 7.53511614 C10.86804223 9.85933489 10.86804223 9.85933489 10.74415272 11.71322173 C9.55186828 14.63383203 7.81194723 16.29031162 5.58074307 18.52136415 C5.12939265 18.9767753 4.67804222 19.43218645 4.21301451 19.90139794 C2.69069289 21.43370748 1.157858 22.95504882 -0.37510657 24.47670549 C-1.47650463 25.58084267 -2.5772462 26.68563504 -3.67738467 27.79102725 C-6.70874284 30.83300245 -9.74942563 33.8655065 -12.79168355 36.89657563 C-16.06842761 40.16449864 -19.33654313 43.44103057 -22.60574317 46.71649736 C-29.01357521 53.13383121 -35.42944283 59.54307334 -41.84809332 65.94958457 C-49.31589605 73.40378766 -56.77608439 80.86559165 -64.23603094 88.32765552 C-77.54183318 101.63664959 -90.85505866 114.93819367 -104.17224097 128.23579973 C-117.10802001 141.15256804 -130.03781579 154.07528826 -142.96130347 167.00435442 C-157.02114903 181.07025097 -171.08409186 195.13303646 -185.15265208 209.1902172 C-186.65128407 210.68764183 -188.14991537 212.18506715 -189.64854598 213.68249315 C-190.38598701 214.41933064 -191.12342804 215.15616813 -191.88321577 215.91533403 C-197.09174111 221.11997236 -202.29811813 226.32675387 -207.50375152 231.53428453 C-213.84244694 237.87509699 -220.18477805 244.21224624 -226.53180247 250.54472193 C-229.7729724 253.77862377 -233.01250442 257.01412335 -236.24777007 260.25393289 C-239.20484711 263.21506219 -242.16644458 266.17158781 -245.13184465 269.12438139 C-246.20828704 270.19787627 -247.28301917 271.27308916 -248.35593193 272.35011175 C-249.80564612 273.8048774 -251.2620314 275.25298628 -252.71881747 276.70067018 C-253.52859858 277.50958452 -254.3383797 278.31849885 -255.17269963 279.15192574 C-257.13195777 280.85933489 -257.13195777 280.85933489 -259.13195777 280.85933489 C-261.03776195 271.74690792 -262.02519048 262.04890163 -257.34726596 253.65814847 C-251.54102018 245.81173408 -244.47978385 239.08342506 -237.4630456 232.33155257 C-234.27392792 229.23662111 -231.15534084 226.07188966 -228.02714515 222.9156093 C-221.90594163 216.76106509 -215.72362273 210.67175689 -209.51831141 204.60215431 C-202.29349014 197.5299392 -195.13531636 190.39179038 -187.97967985 183.24969424 C-175.21713819 170.51522704 -162.40023747 157.83695854 -149.54943824 145.19161028 C-137.07691567 132.91832087 -124.63730331 120.61300257 -112.23596168 108.26778215 C-111.47056542 107.50586425 -110.70516917 106.74394635 -109.9165791 105.95894002 C-106.84017393 102.89636056 -103.76385078 99.83369875 -100.68767087 96.77089303 C-88.15123123 84.29057033 -75.59079174 71.83441518 -63.02573466 59.38291281 C-60.16080823 56.54385234 -57.29671699 53.7039533 -54.43331027 50.86336011 C-46.91531577 43.40628946 -39.38949512 35.95740521 -31.84032694 28.53188043 C-28.71891175 25.46150533 -25.60138485 22.38745465 -22.49426055 19.30261225 C-19.65387899 16.48301824 -16.80229771 13.67530523 -13.94097796 10.87696589 C-12.90431629 9.85918474 -11.87184066 8.83711993 -10.8438805 7.81055098 C-9.45325507 6.42315317 -8.04599041 5.05249171 -6.63781333 3.68291181 C-5.85862721 2.91483684 -5.07944109 2.14676186 -4.27664328 1.35541189 C-2.13195777 -0.14066511 -2.13195777 -0.14066511 0 0 Z " fill="#000000" transform="translate(392.1319577693939,154.14066511392593)"/>
<path d="M0 0 C2.71993183 1.27485205 4.54045064 3.08000499 6.67210662 5.1841113 C7.48292694 5.96399411 8.29374725 6.74387692 9.12913787 7.54739255 C10.85960662 9.8716113 10.85960662 9.8716113 10.72113937 11.73623508 C9.57735592 14.57119171 7.95157127 16.18249815 5.80555141 18.36184949 C4.92661187 19.26156295 4.04767232 20.16127641 3.14209825 21.08825392 C2.15559036 22.08278563 1.16891872 23.07715494 0.18210113 24.07137936 C-0.85821498 25.13018266 -1.89790524 26.18960119 -2.93702084 27.24958271 C-5.80027742 30.16625416 -8.67306915 33.0733708 -11.54764724 35.97887915 C-14.01084873 38.47098677 -16.46847921 40.96855214 -18.92611147 43.46615025 C-27.73200231 52.41484732 -36.56041095 61.34118751 -45.39429963 70.2622363 C-46.09178357 70.96664298 -46.78926751 71.67104967 -47.50788733 72.39680201 C-61.3636577 86.38893841 -75.22988216 100.37069199 -89.11379826 114.33490247 C-92.16683893 117.40590999 -95.21973406 120.4770621 -98.27247345 123.54836911 C-99.03120988 124.31170449 -99.78994631 125.07503986 -100.57167476 125.86150661 C-112.84723752 138.21412416 -125.07527616 150.61272108 -137.28504623 163.03033778 C-149.82865711 175.78569371 -162.41753177 188.49498907 -175.05050331 201.16185611 C-182.13948349 208.2722771 -189.20689647 215.40158478 -196.22328103 222.58371609 C-202.20266692 228.70425136 -208.22166038 234.78209565 -214.29534007 240.80913064 C-217.39018094 243.88273182 -220.46278129 246.97198282 -223.48481476 250.11733884 C-243.47794721 270.88512065 -243.47794721 270.88512065 -256.49664789 271.44825023 C-261.12644595 271.29044872 -265.60488076 270.81544661 -270.14039338 269.8716113 C-268.61553505 266.27962087 -266.49557967 263.9733853 -263.75125039 261.22240609 C-262.3591026 259.81965992 -262.3591026 259.81965992 -260.93883061 258.38857543 C-259.9021184 257.35411462 -258.86530874 256.31975147 -257.82841218 255.28547543 C-256.73191992 254.18453178 -255.63585963 253.08315777 -254.54019547 251.98139 C-251.52414525 248.95113855 -248.50184093 245.92719257 -245.47846305 242.9042545 C-242.22058314 239.64472833 -238.96842205 236.37950464 -235.71546662 233.11506528 C-228.601168 225.97790644 -221.47940216 218.84822972 -214.35619318 211.7199654 C-209.91158111 207.27209873 -205.46860434 202.8226011 -201.02597916 198.37274998 C-188.73298921 186.06019599 -176.43842247 173.74922282 -164.13709939 161.44499367 C-163.34979128 160.657498 -162.56248318 159.87000233 -161.75131726 159.05864315 C-160.1551689 157.46212854 -158.55901926 155.8656152 -156.96286835 154.26910313 C-156.17050922 153.4765612 -155.3781501 152.68401926 -154.5617801 151.86746091 C-153.37179517 150.67720516 -153.37179517 150.67720516 -152.15777014 149.46290383 C-139.28910728 136.59069555 -126.43223658 123.70677855 -113.58049501 110.81767794 C-100.39577122 97.59493302 -87.20176986 84.38150715 -73.99817276 71.17760754 C-66.58082046 63.75966941 -59.16751145 56.33778765 -51.76429856 48.90573567 C-45.46367181 42.5806783 -39.15460894 36.26419307 -32.83420803 29.95889267 C-29.60713892 26.73902556 -26.38432121 23.51517612 -23.17215836 20.2804324 C-20.2355436 17.32337121 -17.28778404 14.37793322 -14.33044921 11.44159809 C-13.25876975 10.37344108 -12.19136096 9.30097986 -11.12855197 8.22399642 C-9.69092801 6.76843207 -8.23653755 5.32948323 -6.78121865 3.8916108 C-5.97577681 3.08535451 -5.17033498 2.27909822 -4.34048581 1.44840991 C-2.14039338 -0.1283887 -2.14039338 -0.1283887 0 0 Z " fill="#000000" transform="translate(347.1403933763504,109.12838870286942)"/>
<path d="M0 0 C3.63303084 1.69586126 5.94549046 3.73800488 8.75 6.625 C9.54921875 7.44226563 10.3484375 8.25953125 11.171875 9.1015625 C11.77515625 9.72804687 12.3784375 10.35453125 13 11 C11.49695254 14.50501219 9.47648132 16.78402663 6.80055046 19.48185825 C5.91468628 20.37972162 5.0288221 21.27758498 4.11611354 22.20265633 C3.12697995 23.19506605 2.13774061 24.18737038 1.14840698 25.17958069 C0.10172712 26.23643987 -0.94453314 27.29371474 -1.99040878 28.3513698 C-4.86921198 31.25992333 -7.75432792 34.16214308 -10.64059186 37.06329072 C-13.11465449 39.55173254 -15.58500499 42.04384301 -18.05532505 44.53599937 C-26.90401156 53.46280891 -35.76728807 62.37507373 -44.6328125 71.28515625 C-46.04610419 72.70575304 -47.45939025 74.12635544 -48.87267065 75.54696345 C-62.06519284 88.80716827 -75.26256514 102.06253581 -88.47003365 115.30785465 C-91.52908231 118.37582195 -94.58806652 121.44385349 -97.64697266 124.51196289 C-98.40724207 125.27451133 -99.16751148 126.03705978 -99.95081936 126.82271575 C-112.26005139 139.17029713 -124.5431821 151.54351424 -136.81601073 163.9272681 C-149.4208828 176.64512236 -162.05026446 189.33822743 -174.70348823 202.00797933 C-181.805501 209.12055557 -188.89620483 216.24366456 -195.95929337 223.39491463 C-201.97610978 229.48675371 -208.01465878 235.55595115 -214.08247091 241.59701521 C-217.17566697 244.67794369 -220.25752394 247.76828287 -223.31152344 250.88811111 C-226.11332408 253.74980798 -228.9440674 256.5792828 -231.79983543 259.38709562 C-232.82219045 260.40262114 -233.8338754 261.4290407 -234.83279146 262.46763039 C-242.85211918 270.78559687 -249.87716317 272.91030319 -261 274 C-259.81986474 261.82087104 -256.85905741 254.94270928 -247.84455872 246.28125 C-246.77499148 245.20600038 -245.70829111 244.12789287 -244.64419574 243.04722786 C-241.73788042 240.11207701 -238.79300558 237.21863081 -235.83971179 234.33085871 C-232.65244988 231.20006656 -229.50317723 228.03144331 -226.34898376 224.86740112 C-220.8877783 219.39939962 -215.40339713 213.95558759 -209.90226173 208.527771 C-201.94880295 200.68024653 -194.03175333 192.79679999 -186.12295016 184.90430331 C-173.28867611 172.09843744 -160.42567896 159.32183424 -147.54418945 146.56347656 C-135.0357518 134.17448061 -122.54112681 121.77181889 -110.06469727 109.35058594 C-109.29484058 108.58414465 -108.52498389 107.81770337 -107.73179821 107.02803659 C-103.86949618 103.18270083 -100.00746276 99.33709542 -96.14556277 95.4913559 C-64.1385744 63.61899778 -32.08477011 31.79404391 0 0 Z " fill="#000000" transform="translate(368,131)"/>
<path d="M0 0 C4.85284852 2.14269676 8.51221188 6.94694864 12.20156574 10.64658642 C13.14580402 11.56246532 14.0900423 12.47834423 15.06289387 13.42197704 C15.9504134 14.30691845 16.83793293 15.19185986 17.75234699 16.10361767 C18.57001545 16.91419628 19.38768391 17.72477489 20.2301302 18.5599165 C21.88906574 20.83408642 21.88906574 20.83408642 21.7239933 22.72032738 C20.66143064 25.41038282 19.22965034 26.87695492 17.18916035 28.92840099 C16.39422169 29.73468945 15.59928303 30.5409779 14.78025532 31.37169933 C13.90181461 32.24720943 13.02337391 33.12271954 12.11831379 34.02476025 C11.19800373 34.95353985 10.27769367 35.88231945 9.32949543 36.83924389 C6.80559229 39.38537249 4.2721181 41.92176756 1.73613429 44.45585752 C-0.37893127 46.57080348 -2.48964007 48.69007164 -4.60047215 50.80924147 C-9.57827707 55.80628237 -14.56421792 60.79510363 -19.55502605 65.77915478 C-24.70855396 70.92603393 -29.84712607 76.0875115 -34.97876483 81.25620729 C-39.38259752 85.69068675 -43.79598797 90.11549315 -48.21711987 94.53272551 C-50.85880824 97.17234202 -53.49654572 99.81563105 -56.12496662 102.46846485 C-59.05343121 105.42322737 -62.00152472 108.35760011 -64.95199871 111.29038525 C-65.82436672 112.1760165 -66.69673473 113.06164776 -67.59553814 113.97411633 C-68.80063534 115.16240032 -68.80063534 115.16240032 -70.03007793 116.37469006 C-70.72565461 117.07097924 -71.42123129 117.76726843 -72.13788605 118.48465729 C-74.11093426 119.83408642 -74.11093426 119.83408642 -76.22186852 119.66817284 C-81.07471704 117.52547608 -84.73408039 112.72122419 -88.42343426 109.02158642 C-89.36767254 108.10570751 -90.31191082 107.18982861 -91.28476238 106.24619579 C-92.17228191 105.36125439 -93.05980145 104.47631298 -93.97421551 103.56455517 C-95.20071819 102.34868725 -95.20071819 102.34868725 -96.45199871 101.10825634 C-98.11093426 98.83408642 -98.11093426 98.83408642 -97.94586182 96.94784546 C-96.88329916 94.25779001 -95.45151886 92.79121792 -93.41102886 90.73977184 C-92.21862087 89.53033916 -92.21862087 89.53033916 -91.00212383 88.2964735 C-90.12368313 87.4209634 -89.24524242 86.5454533 -88.3401823 85.64341259 C-87.41987225 84.71463299 -86.49956219 83.78585339 -85.55136395 82.82892895 C-83.02746081 80.28280035 -80.49398661 77.74640527 -77.95800281 75.21231532 C-75.84293725 73.09736936 -73.73222844 70.9781012 -71.62139636 68.85893136 C-66.64359144 63.86189047 -61.6576506 58.8730692 -56.66684246 53.88901806 C-51.51331456 48.74213891 -46.37474244 43.58066134 -41.24310368 38.41196555 C-36.839271 33.97748608 -32.42588054 29.55267968 -28.00474864 25.13544732 C-25.36306027 22.49583082 -22.72532279 19.85254178 -20.09690189 17.19970798 C-17.16843731 14.24494546 -14.22034379 11.31057273 -11.2698698 8.37778759 C-10.39750179 7.49215633 -9.52513378 6.60652508 -8.62633038 5.69405651 C-7.42123318 4.50577251 -7.42123318 4.50577251 -6.19179058 3.29348278 C-5.4962139 2.59719359 -4.80063723 1.90090441 -4.08398247 1.18351555 C-2.11093426 -0.16591358 -2.11093426 -0.16591358 0 0 Z " fill="#000000" transform="translate(390.1109342575073,292.16591358184814)"/>
<path d="M0 0 C8.80288754 6.34043826 15.4186507 14.72648904 17.58203125 25.4921875 C19.05983467 39.20633257 17.32391131 50.12585093 8.61694336 61.09106445 C5.18488953 65.14076444 1.43771355 68.84601483 -2.35546875 72.5546875 C-3.52432617 73.71000977 -3.52432617 73.71000977 -4.71679688 74.88867188 C-6.61262767 76.76124094 -8.51299608 78.62892722 -10.41796875 80.4921875 C-14.31191991 78.90819161 -16.9294911 76.25021807 -19.82910156 73.30810547 C-20.35637848 72.78112061 -20.8836554 72.25413574 -21.4269104 71.71118164 C-23.16308947 69.97361274 -24.89208275 68.22907436 -26.62109375 66.484375 C-27.82563312 65.27610428 -29.03061572 64.06827528 -30.23602295 62.86087036 C-33.40344981 59.68581673 -36.56482388 56.50480228 -39.72497559 53.32250977 C-42.95233964 50.07466674 -46.18539103 46.83249617 -49.41796875 43.58984375 C-55.75688178 37.22949768 -62.08941499 30.86283997 -68.41796875 24.4921875 C-65.90442072 19.20438157 -61.91020797 15.65545776 -57.79296875 11.5546875 C-57.01050781 10.75611328 -56.22804688 9.95753906 -55.421875 9.13476562 C-40.48859502 -5.81089684 -19.05345627 -11.88147677 0 0 Z " fill="#000000" transform="translate(459.41796875,40.5078125)"/>
<path d="M0 0 C5.62167523 3.37300514 5.62167523 3.37300514 8.26953125 5.890625 C8.84413086 6.43170898 9.41873047 6.97279297 10.01074219 7.53027344 C10.9026123 8.38153809 10.9026123 8.38153809 11.8125 9.25 C13.06302042 10.42791374 14.31431635 11.60500471 15.56640625 12.78125 C16.16211426 13.34199219 16.75782227 13.90273438 17.37158203 14.48046875 C19.87603319 16.81745586 22.45405136 19.06306172 25.046875 21.30078125 C29.08121697 24.81065876 33.03267298 28.4147721 37 32 C31.5664118 38.61072987 25.53553957 44.59214196 19.4765625 50.62109375 C18.36390615 51.73188169 17.25147284 52.8428931 16.13925171 53.95411682 C13.2316873 56.85788934 10.32113095 59.75864436 7.40991211 62.65875244 C4.43159571 65.62678263 1.45615894 68.59769662 -1.51953125 71.56835938 C-7.34356123 77.38171083 -13.1707595 83.19187334 -19 89 C-20.12892927 88.04188094 -21.25652234 87.08218732 -22.38354492 86.12182617 C-23.32565071 85.32043465 -23.32565071 85.32043465 -24.28678894 84.50285339 C-26.13014535 82.88583463 -27.7426634 81.19545764 -29.3125 79.3125 C-32.14675585 75.98145323 -35.04869093 72.72813383 -38 69.5 C-44.6744186 62.16424419 -44.6744186 62.16424419 -47 59.5625 C-47.53625 58.96566406 -48.0725 58.36882812 -48.625 57.75390625 C-50 56 -50 56 -52 52 C-34.84 34.84 -17.68 17.68 0 0 Z " fill="#000000" transform="translate(321,269)"/>
<path d="M0 0 C10.23 0 20.46 0 31 0 C30.34 4.29 29.68 8.58 29 13 C27.93678837 19.63532787 27.93678837 19.63532787 29 26 C35.94921464 27.56002778 41.87791528 26.21888154 48.70703125 24.69140625 C52 24 52 24 55 24 C55 34.23 55 44.46 55 55 C50.05303268 56.71182391 45.10550245 58.42178099 40.15625 60.12695312 C38.47194969 60.70788078 36.78802824 61.28990808 35.10449219 61.87304688 C32.68783188 62.70991158 30.2698471 63.54284253 27.8515625 64.375 C26.71867294 64.76872803 26.71867294 64.76872803 25.56289673 65.17041016 C20.22774341 67 20.22774341 67 18 67 C16.91408387 65.41775101 15.9075854 63.78079588 14.9375 62.125 C7.76622788 50.66272079 -0.53237179 43.75334008 -12 37 C-9.85883877 28.61298742 -7.18546408 20.47427034 -4.3125 12.3125 C-2.889375 8.249375 -1.46625 4.18625 0 0 Z " fill="#000000" transform="translate(63,394)"/>
<path d="M0 0 C3.18609283 1.27546409 5.27330224 3.50495655 7.65196228 5.89778137 C8.44528709 6.67840187 8.44528709 6.67840187 9.25463867 7.47479248 C10.9987313 9.19550441 12.73141751 10.92717918 14.46324158 12.66023254 C15.67031882 13.86021074 16.87769501 15.05988831 18.08535767 16.25927734 C20.61310577 18.7735795 23.1348357 21.29374322 25.65293884 23.81770325 C28.88568927 27.05636084 32.13634218 30.27636861 35.39216328 33.4918108 C37.88943318 35.96327955 40.37519167 38.44607769 42.85776329 40.93230247 C44.05196688 42.12480883 45.25017577 43.31331776 46.4523716 44.49776649 C48.12869158 46.1520391 49.78847428 47.82130867 51.44493103 49.49543762 C51.94718201 49.98442535 52.44943298 50.47341309 52.96690369 50.97721863 C54.32208252 52.36636353 54.32208252 52.36636353 56.22496033 54.89070129 C56.08528551 59.03972025 53.39190334 61.06807463 50.53355408 63.87507629 C50.06885208 64.33553345 49.60415009 64.7959906 49.12536621 65.270401 C47.64464214 66.73437941 46.15381514 68.1875617 44.66246033 69.64070129 C43.65461369 70.63349579 42.647444 71.626978 41.64097595 72.62117004 C39.17676572 75.05236602 36.70338703 77.47398998 34.22496033 79.89070129 C27.52966167 74.39350871 21.48799542 68.28116978 15.38511658 62.14851379 C14.25190834 61.01343724 13.11847671 59.87858366 11.98483276 58.74394226 C9.02187698 55.77719385 6.0619384 52.80745327 3.10264587 49.83705139 C0.07429176 46.79841269 -2.95694466 43.7626522 -5.9879303 40.72663879 C-11.91977057 34.7841187 -17.84842229 28.83843029 -23.77503967 22.89070129 C-19.2357199 17.54260533 -14.56072681 12.40160654 -9.65003967 7.39070129 C-8.94750061 6.65077942 -8.24496155 5.91085754 -7.52113342 5.14851379 C-6.83921936 4.45499817 -6.1573053 3.76148254 -5.45472717 3.04695129 C-4.84355042 2.4159552 -4.23237366 1.78495911 -3.60267639 1.13484192 C-1.77503967 -0.10929871 -1.77503967 -0.10929871 0 0 Z " fill="#000000" transform="translate(380.77503967285156,75.10929870605469)"/>
<path d="M0 0 C8.77257591 2.97110414 16.34498302 11.10917853 21 19 C21 19.66 21 20.32 21 21 C16.90793253 22.42808369 12.81449396 23.85214285 8.71972656 25.27246094 C7.32643703 25.75637735 5.93353072 26.2413986 4.54101562 26.72753906 C2.5413586 27.42542506 0.54036477 28.1193484 -1.4609375 28.8125 C-3.26763916 29.44091797 -3.26763916 29.44091797 -5.11083984 30.08203125 C-8 31 -8 31 -10 31 C-7.45115129 20.41620917 -3.6653736 10.23507071 0 0 Z " fill="#000000" transform="translate(46,445)"/>
</svg>
