<?xml version="1.0" encoding="UTF-8"?>
<svg version="1.1" xmlns="http://www.w3.org/2000/svg" width="512" height="512">
<path d="M0 0 C0.63421875 0.40992188 1.2684375 0.81984375 1.921875 1.2421875 C2.53546875 1.63148437 3.1490625 2.02078125 3.78125 2.421875 C9.59081049 6.47896476 14.65709083 11.52516465 19.8203125 16.35546875 C22.7881263 19.12965188 25.82599809 21.81115473 28.8984375 24.46875 C31.43688671 26.69356842 33.92829276 28.96722069 36.421875 31.2421875 C40.20850498 34.69546903 44.0266382 38.10317801 47.89453125 41.46484375 C50.25676673 43.53578237 52.58983353 45.63731598 54.921875 47.7421875 C57.90250221 50.43202181 60.89432733 53.10529114 63.921875 55.7421875 C69.51167489 60.61361953 74.99722398 65.601139 80.5 70.5703125 C84.92308901 74.55923327 89.36802505 78.51786657 93.859375 82.4296875 C97.0970083 85.2748804 100.2887379 88.17072586 103.48828125 91.05859375 C105.59698646 92.95067435 107.72107301 94.82124508 109.859375 96.6796875 C114.05351865 100.33155803 118.15281792 104.08484934 122.26171875 107.83203125 C125.10943295 110.41211886 127.99431518 112.94420606 130.89453125 115.46484375 C133.25676673 117.53578237 135.58983353 119.63731598 137.921875 121.7421875 C140.90250221 124.43202181 143.89432733 127.10529114 146.921875 129.7421875 C150.81839147 133.13592765 154.65252445 136.59648753 158.48828125 140.05859375 C160.59698646 141.95067435 162.72107301 143.82124508 164.859375 145.6796875 C168.08747012 148.49041275 171.25925943 151.3579865 174.421875 154.2421875 C182.91465827 162.05033852 182.91465827 162.05033852 191.921875 169.2421875 C196.03912576 167.61528828 198.78608831 164.64231228 201.83363342 161.55075073 C202.42140499 160.96257132 203.00917656 160.3743919 203.61475939 159.76838887 C205.58527322 157.79414143 207.54854181 155.81284253 209.51196289 153.83154297 C210.92280637 152.41522436 212.33411345 150.99936742 213.74584961 149.5839386 C216.78737676 146.5326931 219.82581702 143.47841764 222.86198616 140.42184067 C227.66913239 135.58287897 232.48443074 130.75208594 237.3011322 125.92263794 C249.26965534 113.92002213 261.22895722 101.90822933 273.18322754 89.89141846 C282.46306882 80.56304338 291.74612325 71.23792284 301.0398044 61.92333329 C305.8217247 57.12993009 310.59662976 52.32968203 315.36629975 47.52409053 C318.3469488 44.52414635 321.3339337 41.53057192 324.32265472 38.53867149 C325.69944426 37.15788807 327.07366971 35.77454207 328.44501305 34.38834953 C342.42982969 20.25769207 357.08953767 7.24161275 378.07641602 6.86181641 C393.694017 6.89493325 408.40173924 10.52985025 420.23828125 21.4296875 C433.0813291 35.25607776 437.66541296 50.15392146 437.296875 68.6328125 C436.15099474 92.90910425 416.34870216 108.9773191 400.28051758 124.99707031 C398.94864755 126.32865751 397.61699918 127.66046644 396.28555298 128.99247742 C392.70797432 132.57034031 389.12734424 136.14513466 385.54611421 139.71934223 C381.79005632 143.46910379 378.03687338 147.22174079 374.28337097 150.97406006 C367.19192796 158.06240813 360.09794214 165.14820558 353.00301522 172.23306632 C344.91869615 180.30616688 336.8372524 188.38214315 328.7560364 196.4583497 C312.14782301 213.05614036 295.5360427 229.65035718 278.921875 246.2421875 C281.72017547 249.04605254 284.51731304 251.84046228 287.41015625 254.546875 C288.03027588 255.12711426 288.65039551 255.70735352 289.28930664 256.30517578 C300.546148 266.96491454 300.546148 266.96491454 312.921875 276.2421875 C313.3250293 275.82855957 313.72818359 275.41493164 314.14355469 274.98876953 C315.98101175 273.10962404 317.8263181 271.23837714 319.671875 269.3671875 C320.30609375 268.71621094 320.9403125 268.06523437 321.59375 267.39453125 C322.2125 266.76933594 322.83125 266.14414062 323.46875 265.5 C324.03432617 264.9239502 324.59990234 264.34790039 325.18261719 263.75439453 C328.23414878 261.10122403 330.0117542 260.27672798 334.12548828 260.12060547 C339.65409347 261.75394388 342.67934173 265.13993253 346.6640625 269.1875 C347.47303986 269.990737 348.28201721 270.793974 349.11550903 271.62155151 C350.81876667 273.32073333 352.51449919 275.02748741 354.203125 276.74121094 C356.78802389 279.35822642 359.4033427 281.94171435 362.0234375 284.5234375 C363.67640636 286.18037132 365.32751295 287.83916547 366.9765625 289.5 C367.75877167 290.27006378 368.54098083 291.04012756 369.34689331 291.83352661 C375.27943263 297.92231456 375.27943263 297.92231456 376.02001953 302.09326172 C375.8217252 308.45545157 371.20700163 312.01400607 366.921875 316.2421875 C368.09363281 316.60570312 369.26539063 316.96921875 370.47265625 317.34375 C383.53466324 321.48434358 394.28464109 326.45141684 404.921875 335.2421875 C405.74171875 335.85320312 406.5615625 336.46421875 407.40625 337.09375 C436.70730685 362.11794452 439.37750101 420.63820606 442.40161133 455.44921875 C442.8858734 461.74994722 443.18422342 468.04892834 443.296875 474.3671875 C443.32297852 475.2032251 443.34908203 476.0392627 443.37597656 476.90063477 C443.38647346 480.50819233 443.28818428 482.63852476 441.390625 485.765625 C437.95454201 487.82075059 434.93665679 487.83489774 431.046875 487.7421875 C429.78133789 487.72514771 429.78133789 487.72514771 428.49023438 487.70776367 C386.80978332 486.55116696 326.0648282 482.95366269 293.921875 453.2421875 C282.45309125 441.09748683 276.62381178 426.95093082 271.921875 411.2421875 C271.46296875 411.72429687 271.0040625 412.20640625 270.53125 412.703125 C269.61085938 413.65058594 269.61085938 413.65058594 268.671875 414.6171875 C268.06859375 415.24367188 267.4653125 415.87015625 266.84375 416.515625 C263.75536554 419.29014925 262.05576759 420.22714296 257.83056641 420.28320312 C252.30811254 419.38890863 248.94641686 415.12301292 245.1796875 411.296875 C244.37071014 410.493638 243.56173279 409.690401 242.72824097 408.86282349 C241.02498333 407.16364167 239.32925081 405.45688759 237.640625 403.74316406 C235.05572611 401.12614858 232.4404073 398.54266065 229.8203125 395.9609375 C228.16734364 394.30400368 226.51623705 392.64520953 224.8671875 390.984375 C224.08497833 390.21431122 223.30276917 389.44424744 222.49685669 388.65084839 C216.56445729 382.56220404 216.56445729 382.56220404 215.82861328 378.38574219 C216.02832568 371.65407521 221.60672944 367.29035485 226.171875 362.8671875 C226.72617187 362.32191406 227.28046875 361.77664063 227.8515625 361.21484375 C229.20376231 359.88595773 230.5621785 358.56340202 231.921875 357.2421875 C227.36942767 350.79288711 222.20846345 345.11846801 216.828125 339.3671875 C213.97881604 336.31960189 211.22579678 333.19878906 208.51953125 330.0234375 C206.40999055 327.67148014 204.16086565 325.470474 201.921875 323.2421875 C201.2900188 323.88510522 200.65816259 324.52802294 200.00715923 325.19042301 C184.58017676 340.88323737 169.11945369 356.54211354 153.62122631 372.16458225 C146.12694397 379.72055497 138.6441965 387.28730136 131.18823242 394.88110352 C124.68418109 401.50533638 118.15880423 408.10769208 111.60770875 414.68541569 C108.1444267 418.16424625 104.69222902 421.65258401 101.26543236 425.16739082 C98.02895872 428.48629177 94.76435204 431.77485743 91.47750282 435.04385185 C90.2864013 436.23821191 89.10527172 437.44262997 87.93608093 438.65844727 C79.28696252 447.63477097 70.87770614 451.97077062 58.98132908 455.61010945 C56.46334164 456.38291842 53.98764567 457.25785597 51.50863647 458.1469574 C50.07221491 458.63624377 48.6349457 459.12304981 47.19677734 459.60717773 C46.38915955 459.8812999 45.58154175 460.15542206 44.74945068 460.43785095 C42.1699933 461.31209089 39.58914136 462.18208375 37.0078125 463.05078125 C36.10973499 463.35327349 35.21165749 463.65576572 34.28636551 463.96742439 C29.55685206 465.5595812 24.82604604 467.14782999 20.09423828 468.7331543 C16.20881029 470.03576011 12.3262167 471.34635822 8.44580078 472.66381836 C3.70760474 474.27249451 -1.03488625 475.86782344 -5.78077316 477.45366096 C-7.57235419 478.05469727 -9.36241589 478.66028372 -11.15083694 479.27065849 C-13.64545601 480.12092105 -16.14526218 480.95383332 -18.64697266 481.78295898 C-19.37022736 482.03378235 -20.09348206 482.28460571 -20.83865356 482.54302979 C-25.90470301 484.19445245 -30.75114006 484.87069667 -36.078125 484.2421875 C-38.640625 482.8046875 -38.640625 482.8046875 -40.078125 480.2421875 C-40.96590767 473.46745802 -39.28476998 467.58037961 -37.11230469 461.2277832 C-36.79686203 460.27050323 -36.48141937 459.31322327 -36.15641785 458.32693481 C-35.11751103 455.1860358 -34.05931979 452.05203628 -33 448.91796875 C-32.26879399 446.72590799 -31.53852267 444.53353524 -30.80914307 442.34086609 C-29.28082218 437.75617197 -27.74328008 433.17471054 -26.19873047 428.59545898 C-24.22185829 422.73296131 -22.26502417 416.8640159 -20.31464767 410.99265766 C-18.80992142 406.46844427 -17.29622051 401.947275 -15.7796402 397.42702293 C-15.05483116 395.26412121 -14.33243159 393.10041048 -13.61251068 390.93587685 C-12.60436499 387.91032431 -11.58458462 384.88894455 -10.56152344 381.8684082 C-10.26733017 380.97839615 -9.9731369 380.08838409 -9.67002869 379.17140198 C-9.38686295 378.34315918 -9.1036972 377.51491638 -8.81195068 376.66157532 C-8.57228451 375.9487354 -8.33261833 375.23589548 -8.08568954 374.50145435 C-5.65043192 369.04086441 -1.94667815 364.81981942 2.26226807 360.6612854 C2.78838047 360.13346415 3.31449287 359.6056429 3.85654807 359.06182706 C5.60831557 357.30678371 7.36710045 355.55895206 9.12597656 353.81103516 C10.38806402 352.54951223 11.64971049 351.28754798 12.91094971 350.025177 C16.32762803 346.60792578 19.75042969 343.19686835 23.17437458 339.78690004 C26.75473969 336.21905271 30.3294272 332.64552611 33.90472412 329.07260132 C40.67212097 322.31141614 47.44459911 315.55534464 54.21892333 308.80110109 C61.93261412 301.10977897 69.64061446 293.41276484 77.34814501 285.71527028 C93.19973691 269.88457331 109.05845195 254.06102822 124.921875 238.2421875 C123.59120479 234.7356191 122.50232237 232.4822797 119.734375 229.9296875 C116.56129252 226.89399622 113.66506163 223.72508674 110.796875 220.40234375 C107.23214704 216.29548008 103.56644592 212.27812174 99.921875 208.2421875 C95.15400525 202.96233174 90.40675282 197.66926944 85.734375 192.3046875 C82.8891821 189.0670542 79.99333664 185.8753246 77.10546875 182.67578125 C75.21338815 180.56707604 73.34281742 178.44298949 71.484375 176.3046875 C68.67364975 173.07659238 65.806076 169.90480307 62.921875 166.7421875 C59.46859347 162.95555752 56.06088449 159.1374243 52.69921875 155.26953125 C50.62828013 152.90729577 48.52674652 150.57422897 46.421875 148.2421875 C43.73204069 145.26156029 41.05877136 142.26973517 38.421875 139.2421875 C34.31106461 134.52517466 30.11519655 129.88579861 25.921875 125.2421875 C21.15400525 119.96233174 16.40675282 114.66926944 11.734375 109.3046875 C8.8891821 106.0670542 5.99333664 102.8753246 3.10546875 99.67578125 C1.21338815 97.56707604 -0.65718258 95.44298949 -2.515625 93.3046875 C-5.32635025 90.07659238 -8.193924 86.90480307 -11.078125 83.7421875 C-14.53140653 79.95555752 -17.93911551 76.1374243 -21.30078125 72.26953125 C-23.37171987 69.90729577 -25.47325348 67.57422897 -27.578125 65.2421875 C-28.33738281 64.39785156 -29.09664062 63.55351563 -29.87890625 62.68359375 C-31.24608415 61.1658563 -32.61768596 59.65207704 -33.99609375 58.14453125 C-43.29089137 47.82381778 -47.74951634 39.20767913 -47.38671875 25.16015625 C-46.63147072 15.57137426 -41.4498714 8.84320507 -34.28125 2.703125 C-25.0337555 -4.29387305 -10.32096036 -5.62608741 0 0 Z M-28.453125 20.8671875 C-30.60220491 25.33066116 -31.08771476 29.37240159 -30.078125 34.2421875 C-27.60411178 38.49771362 -24.6114419 42.02372746 -21.265625 45.6171875 C-18.31204529 48.81689885 -15.37037175 52.01639276 -12.515625 55.3046875 C-9.90110558 58.31292278 -7.24860844 61.28348999 -4.578125 64.2421875 C-1.31421652 67.85895095 1.90978449 71.50608358 5.109375 75.1796875 C7.9545679 78.4173208 10.85041336 81.6090504 13.73828125 84.80859375 C15.63036185 86.91729896 17.50093258 89.04138551 19.359375 91.1796875 C22.17010025 94.40778262 25.037674 97.57957193 27.921875 100.7421875 C31.37515653 104.52881748 34.78286551 108.3469507 38.14453125 112.21484375 C40.21546987 114.57707923 42.31700348 116.91014603 44.421875 119.2421875 C47.68578348 122.85895095 50.90978449 126.50608358 54.109375 130.1796875 C56.9545679 133.4173208 59.85041336 136.6090504 62.73828125 139.80859375 C64.63036185 141.91729896 66.50093258 144.04138551 68.359375 146.1796875 C71.17010025 149.40778262 74.037674 152.57957193 76.921875 155.7421875 C80.37515653 159.52881748 83.78286551 163.3469507 87.14453125 167.21484375 C89.21546987 169.57707923 91.31700348 171.91014603 93.421875 174.2421875 C96.68578348 177.85895095 99.90978449 181.50608358 103.109375 185.1796875 C105.9545679 188.4173208 108.85041336 191.6090504 111.73828125 194.80859375 C113.63036185 196.91729896 115.50093258 199.04138551 117.359375 201.1796875 C120.99974491 205.36062278 124.74080727 209.44734719 128.4765625 213.54296875 C131.67135673 217.06949081 134.80823749 220.64397726 137.921875 224.2421875 C141.19383952 222.80959978 143.35391456 221.05393434 145.86425781 218.52685547 C146.62474426 217.76621796 147.38523071 217.00558044 148.16876221 216.22189331 C149.38459991 214.99057175 149.38459991 214.99057175 150.625 213.734375 C151.46278992 212.89375519 152.30057983 212.05313538 153.16375732 211.18704224 C155.83785931 208.50174749 158.50492224 205.80958095 161.171875 203.1171875 C162.98391562 201.29511595 164.79641018 199.47349573 166.609375 197.65234375 C171.05215536 193.18751498 175.48917665 188.71702467 179.921875 184.2421875 C178.02881886 180.0635034 175.17080266 177.44636458 171.796875 174.4296875 C170.91346436 173.62748779 170.91346436 173.62748779 170.01220703 172.80908203 C166.36030403 169.50220914 162.67144208 166.23864848 158.9453125 163.015625 C156.40686329 160.79080658 153.91545724 158.51715431 151.421875 156.2421875 C147.63524502 152.78890597 143.8171118 149.38119699 139.94921875 146.01953125 C137.58698327 143.94859263 135.25391647 141.84705902 132.921875 139.7421875 C129.94124779 137.05235319 126.94942267 134.37908386 123.921875 131.7421875 C120.02674689 128.34965657 116.19404737 124.89024549 112.359375 121.4296875 C110.22770019 119.51664601 108.0816839 117.62331138 105.921875 115.7421875 C102.02535853 112.34844735 98.19122555 108.88788747 94.35546875 105.42578125 C92.24676354 103.53370065 90.12267699 101.66312992 87.984375 99.8046875 C83.79023135 96.15281697 79.69093208 92.39952566 75.58203125 88.65234375 C72.73431705 86.07225614 69.84943482 83.54016894 66.94921875 81.01953125 C64.58698327 78.94859263 62.25391647 76.84705902 59.921875 74.7421875 C56.94124779 72.05235319 53.94942267 69.37908386 50.921875 66.7421875 C47.02674689 63.34965657 43.19404737 59.89024549 39.359375 56.4296875 C37.22770019 54.51664601 35.0816839 52.62331138 32.921875 50.7421875 C27.33207511 45.87075547 21.84652602 40.883236 16.34375 35.9140625 C13.87332302 33.68613142 11.3992257 31.46241613 8.921875 29.2421875 C8.23222656 28.6234375 7.54257812 28.0046875 6.83203125 27.3671875 C-3.87733056 17.21279012 -3.87733056 17.21279012 -17.5390625 13.96484375 C-22.58385515 14.51589033 -25.17798864 17.24729994 -28.453125 20.8671875 Z M345.296875 42.6171875 C344.48347656 43.44863281 343.67007812 44.28007813 342.83203125 45.13671875 C340.85239786 47.16293175 338.88281797 49.19790926 336.921875 51.2421875 C338.50967859 55.10685083 340.98120729 57.54277905 343.92236328 60.46972656 C344.429841 60.97749634 344.93731873 61.48526611 345.46017456 62.00842285 C347.13281369 63.67967259 348.81241717 65.34373306 350.4921875 67.0078125 C351.65561778 68.16751127 352.81860626 69.32765342 353.98117065 70.48822021 C357.037857 73.53728102 360.10050244 76.58028713 363.16442871 79.62207031 C366.29162665 82.72878663 369.41315007 85.84119295 372.53515625 88.953125 C378.6585238 95.05506167 384.7881986 101.15061348 390.921875 107.2421875 C402.74256023 101.57286125 412.64293572 88.97470014 417.890625 77.1953125 C421.6420537 66.45258486 420.53529663 55.85121958 415.703125 45.67578125 C410.0463943 35.383674 401.93811598 29.13125439 390.921875 25.2421875 C372.21644818 20.6606711 357.85600029 29.51473898 345.296875 42.6171875 Z M321.88061523 66.16992188 C321.00606689 67.04970703 320.13151855 67.92949219 319.23046875 68.8359375 C318.76576675 69.30205444 318.30106476 69.76817139 317.82228088 70.24841309 C316.33229318 71.74401759 314.84581165 73.24305445 313.359375 74.7421875 C312.35244185 75.75413348 311.34528334 76.76585527 310.33789062 77.77734375 C307.86326095 80.26302471 305.39176531 82.75179624 302.921875 85.2421875 C308.29381406 91.77097483 314.23972574 97.68798612 320.2265625 103.64453125 C321.31679865 104.73289889 322.40681169 105.82149007 323.49661255 106.91029358 C326.34499294 109.75488285 329.19636504 112.59645431 332.04840088 115.43737793 C334.966395 118.34508415 337.88150804 121.25567574 340.796875 124.16601562 C346.50241484 129.86087831 352.21112294 135.55255162 357.921875 141.2421875 C361.68859656 138.05816662 365.41190091 134.88056844 368.88671875 131.375 C369.54091797 130.71757812 370.19511719 130.06015625 370.86914062 129.3828125 C371.52591797 128.71765625 372.18269531 128.0525 372.859375 127.3671875 C373.54322266 126.67882812 374.22707031 125.99046875 374.93164062 125.28125 C376.59739093 123.60385109 378.26027861 121.92369804 379.921875 120.2421875 C374.5529335 113.72328873 368.62418346 107.79861161 362.65234375 101.83984375 C361.56457675 100.75140214 360.47695815 99.66281221 359.38948059 98.57408142 C357.12431015 96.30744515 354.85736179 94.04260666 352.58911133 91.77905273 C349.67578651 88.87146563 346.76702929 85.95935663 343.85955334 83.04592228 C341.62153538 80.80430334 339.38115688 78.56505594 337.14003944 76.32653618 C336.06555002 75.2527152 334.9918067 74.17814714 333.91881371 73.10283089 C332.42768475 71.60917863 330.93341677 70.11874154 329.43823242 68.62915039 C328.16298958 67.35510094 328.16298958 67.35510094 326.86198425 66.05531311 C324.37902226 63.60976165 324.37902226 63.60976165 321.88061523 66.16992188 Z M289.921875 98.2421875 C255.90473257 132.23646652 221.8902054 166.23336038 187.87920883 200.23378834 C183.86854754 204.24319885 179.85786448 208.2525876 175.84716797 212.26196289 C175.04867382 213.06019472 174.25017968 213.85842656 173.42748874 214.68084724 C160.47966129 227.62431732 147.53006968 240.56602103 134.57983106 253.50707864 C121.30260072 266.77497428 108.02725445 280.04475283 94.75367403 293.31629997 C86.55586228 301.51273612 78.35656514 309.70768062 70.15539229 317.90075374 C64.54007298 323.51080786 58.92657631 329.12268137 53.31454074 334.73602038 C50.07133424 337.97987062 46.82730041 341.2228826 43.58111 344.46374702 C40.61459588 347.42542922 37.65035561 350.38936686 34.68797761 353.35518599 C33.61079964 354.43278986 32.53275943 355.5095326 31.45381325 356.58536606 C29.99749502 358.03772385 28.54449645 359.49340816 27.09171295 360.94930172 C26.28063033 361.76000462 25.4695477 362.57070753 24.63388681 363.40597719 C22.80821862 364.94567104 22.80821862 364.94567104 22.921875 366.2421875 C31.2144948 368.11090694 39.35999581 368.9423275 46.94553208 364.45250893 C54.65474152 358.5385444 61.35578481 351.49553743 68.08680141 344.51463914 C71.1871862 341.3229245 74.34872069 338.19276507 77.50296021 335.0544281 C82.94936611 329.61899427 88.35622617 324.14667392 93.73755836 318.64683533 C101.51772101 310.69545329 109.35575751 302.80322112 117.20877882 294.92386705 C129.95012052 282.136649 142.64393334 269.30331722 155.30834961 256.43994141 C167.60521476 243.95009435 179.92410988 231.48266266 192.27319336 219.04443359 C193.03533403 218.27677573 193.7974747 217.50911787 194.58271054 216.71819764 C198.40657034 212.86693056 202.23086639 209.016097 206.05537951 205.16547871 C237.74544908 173.25797293 269.35864468 141.27513615 300.921875 109.2421875 C300.03220156 108.15378976 299.13475926 107.07174142 298.234375 105.9921875 C297.73550781 105.38890625 297.23664063 104.785625 296.72265625 104.1640625 C294.6305245 101.9312451 292.34338431 100.10679092 289.921875 98.2421875 Z M307.66770172 125.23350525 C306.76972036 126.12380432 305.871739 127.01410339 304.94654608 127.93138123 C303.94363923 128.93584882 302.94083089 129.94041478 301.93811035 130.94506836 C300.87815426 131.99986105 299.81776824 133.05422186 298.75698709 134.10818481 C295.83059363 137.01838521 292.91055675 139.93489308 289.99151349 142.85246348 C286.84708569 145.99319926 283.69697166 149.12822304 280.5476532 152.26405334 C273.65589504 159.12860427 266.77173847 166.00074516 259.88917351 172.87451172 C255.59359687 177.16456929 251.29654515 181.45314727 246.9992218 185.74145508 C235.10768452 197.60859972 223.21804744 209.47764092 211.33531952 221.35360718 C210.57421679 222.11427077 209.81311407 222.87493437 209.02894762 223.65864837 C208.26599311 224.42116633 207.50303859 225.18368429 206.71696424 225.96930885 C205.17085034 227.51453581 203.62473335 229.05975968 202.07861328 230.60498047 C201.31168091 231.37146998 200.54474854 232.13795949 199.75457579 232.92767596 C187.32861195 245.34574472 174.8892033 257.75025131 162.44391972 270.14895499 C149.67474772 282.87071902 136.91683768 295.60368611 124.1701808 308.34801006 C117.00996278 315.50639327 109.84496999 322.65984891 102.66755676 329.80099487 C96.55511375 335.88266128 90.45301825 341.9744752 84.36421502 348.07981282 C81.25661521 351.19523533 78.14434788 354.30558743 75.01885033 357.40306282 C72.15738216 360.2391095 69.31012202 363.08865743 66.47352284 365.94957173 C65.44514658 366.98187197 64.41167686 368.00912831 63.37267381 369.03073204 C56.70183231 375.59688421 53.19306293 379.73367724 52.796875 389.2421875 C52.838125 389.9021875 52.879375 390.5621875 52.921875 391.2421875 C54.4853665 391.15414623 56.04772889 391.04595604 57.609375 390.9296875 C58.47949219 390.87167969 59.34960938 390.81367188 60.24609375 390.75390625 C65.44933072 389.75883465 68.86296046 386.55079139 72.51954365 382.89061451 C73.41776476 381.99637549 74.31598588 381.10213647 75.24142581 380.18079931 C76.22901822 379.18750139 77.21651752 378.1941109 78.20393372 377.20063782 C79.25964645 376.14579739 80.31579864 375.09139664 81.37235183 374.03739804 C84.27296591 371.14125655 87.16730596 368.23891489 90.06066549 365.33552825 C93.18241537 362.20514495 96.30993936 359.08053996 99.43676758 355.95523071 C104.85294902 350.54009819 110.26545529 345.12131458 115.67548561 339.700037 C123.49749469 331.86177685 131.32501771 324.0290423 139.15389939 316.19764724 C151.85545697 303.49171195 164.55254139 290.78131634 177.24682617 278.06811523 C189.57846775 265.71811684 201.91220725 253.37021986 214.2487793 241.02514648 C215.00914955 240.26425078 215.76951981 239.50335508 216.55293158 238.71940193 C220.36748217 234.90224128 224.1820741 231.08512194 227.99668658 227.26802313 C259.64482759 195.59914724 291.28571523 163.92303197 322.921875 132.2421875 C321.43108726 129.11608032 319.89084551 126.94023453 317.421875 124.4921875 C316.8134375 123.87859375 316.205 123.265 315.578125 122.6328125 C312.02973327 119.65350246 310.42068946 122.48932933 307.66770172 125.23350525 Z M334.921875 143.2421875 C302.12003239 175.56303703 269.37384344 207.93935171 236.70103154 240.39065905 C232.8409627 244.22446402 228.98043711 248.05780875 225.11962891 251.89086914 C224.35104091 252.65394862 223.58245291 253.4170281 222.79057437 254.20323119 C210.35541364 266.54709089 197.88365074 278.85332205 185.39788514 291.14596864 C172.58071209 303.76654208 159.80387137 316.4269115 147.06334448 329.12485963 C139.2043917 336.95504111 131.3158971 344.75277959 123.3863467 352.51147 C117.94672592 357.83981352 112.54688018 363.20643934 107.17623866 368.60429492 C104.07895451 371.71499163 100.96745075 374.80641258 97.80735588 377.85339165 C82.77597286 391.30793756 82.77597286 391.30793756 76.33476686 409.50864154 C76.49439162 413.55810179 77.03064026 417.28724881 77.921875 421.2421875 C84.20252465 416.05524624 89.9249635 410.37667309 95.67222595 404.61209106 C96.75462705 403.53012653 97.83724809 402.44838198 98.9200688 401.36683738 C101.88231126 398.40682307 104.84143983 395.44371307 107.80005467 392.48007345 C110.99582923 389.2799704 114.19450361 386.08276814 117.39282227 382.88520813 C122.92955799 377.34899612 128.46446347 371.81095976 133.99812126 366.2716713 C141.99881208 358.26284484 150.00227095 350.25678927 158.00640268 342.25140189 C170.99328661 329.26233069 183.97793695 316.27102905 196.96118164 303.27832031 C209.5713364 290.65898304 222.18254362 278.04069909 234.79516602 265.42382812 C235.5729328 264.64579862 236.35069958 263.86776912 237.15203505 263.06616296 C241.05396599 259.16292696 244.95591761 255.25971163 248.85787952 251.35650659 C281.21575178 218.98827182 313.56999884 186.61641527 345.921875 154.2421875 C345.03220156 153.15378976 344.13475926 152.07174142 343.234375 150.9921875 C342.73550781 150.38890625 342.23664063 149.785625 341.72265625 149.1640625 C339.6305245 146.9312451 337.34338431 145.10679092 334.921875 143.2421875 Z M262.78317261 261.14038086 C261.8993692 262.02862549 261.0155658 262.91687012 260.10498047 263.83203125 C259.61700989 264.31970978 259.12903931 264.80738831 258.62628174 265.30984497 C257.00909196 266.92843186 255.3991073 268.55399569 253.7890625 270.1796875 C252.6713444 271.30113438 251.5531849 272.42214149 250.43460083 273.54272461 C247.48744844 276.49752414 244.54635035 279.45828 241.60644531 282.42028809 C238.60712781 285.44004076 235.60216163 288.45416054 232.59765625 291.46875 C226.70016509 297.38771012 220.80905379 303.31297037 214.921875 309.2421875 C216.80708416 313.32086521 219.53952053 316.26502465 222.609375 319.4921875 C223.70388827 320.65944101 224.79764245 321.82740679 225.890625 322.99609375 C226.4165625 323.55699707 226.9425 324.11790039 227.484375 324.69580078 C229.77866341 327.1638753 231.98315515 329.70581455 234.1875 332.25390625 C237.71354565 336.29615228 241.32551778 340.26254505 244.921875 344.2421875 C251.36878139 338.93204496 257.22136937 333.07091866 263.10546875 327.15625 C264.17141609 326.08843405 265.23758705 325.02084128 266.30397034 323.95346069 C269.08937639 321.16426432 271.87176429 318.3720765 274.65350342 315.57922363 C277.50088564 312.72155175 280.35115486 309.86676248 283.20117188 307.01171875 C288.77754581 301.42466908 294.35072994 295.83445116 299.921875 290.2421875 C298.97537144 289.12431484 298.02691037 288.00809944 297.07763672 286.89257812 C296.54967499 286.27080688 296.02171326 285.64903564 295.47775269 285.00842285 C293.47884747 282.7392618 291.31747202 280.73733505 289.046875 278.7421875 C288.18449219 277.98035156 287.32210937 277.21851563 286.43359375 276.43359375 C285.60472656 275.71042969 284.77585937 274.98726563 283.921875 274.2421875 C283.22707031 273.63246094 282.53226562 273.02273438 281.81640625 272.39453125 C280.52747071 271.2651047 279.23586375 270.13871847 277.94140625 269.015625 C276.44621195 267.7026304 274.96675849 266.37166263 273.49609375 265.03125 C272.68785156 264.29648437 271.87960937 263.56171875 271.046875 262.8046875 C270.30695313 262.12535156 269.56703125 261.44601562 268.8046875 260.74609375 C266.01380254 258.51685991 265.45187926 258.77178518 262.78317261 261.14038086 Z M331.29955959 282.74145508 C330.59254437 283.44939209 329.88552916 284.1573291 329.15708923 284.88671875 C327.94338905 286.09835693 327.94338905 286.09835693 326.70516968 287.33447266 C325.81109406 288.23214355 324.91701843 289.12981445 323.99584961 290.0546875 C323.05011601 291.00070295 322.1041626 291.9464987 321.15800476 292.89208984 C318.58152147 295.46828506 316.0081429 298.04756195 313.43528819 300.62738037 C310.7491295 303.31977096 308.06015728 306.00934848 305.37147522 308.69921875 C300.27668851 313.79711926 295.18445726 318.89756455 290.09312683 323.99891663 C284.29832245 329.80488063 278.5006938 335.60802087 272.70281971 341.41091919 C260.77268053 353.35152386 248.84611399 365.29569078 236.921875 377.2421875 C237.87828426 378.36422047 238.83557768 379.48549983 239.79324341 380.60646057 C240.32624117 381.23095376 240.85923893 381.85544695 241.40838814 382.49886417 C243.12937888 384.48120269 244.92478019 386.3591023 246.7890625 388.20703125 C247.44648438 388.86123047 248.10390625 389.51542969 248.78125 390.18945312 C249.44640625 390.84623047 250.1115625 391.50300781 250.796875 392.1796875 C251.48523438 392.86353516 252.17359375 393.54738281 252.8828125 394.25195312 C254.56021141 395.91770343 256.24036446 397.58059111 257.921875 399.2421875 C263.57575866 394.53815018 268.79080027 389.50963231 273.97827148 384.29931641 C274.85711502 383.4206189 275.73595856 382.54192139 276.64143372 381.63659668 C279.03119011 379.24626633 281.4187178 376.85375142 283.80525088 374.46020555 C286.30716846 371.95200225 288.81195139 369.44666361 291.31642151 366.94100952 C296.04977366 362.20455936 300.78057268 357.46556773 305.51044184 352.7256397 C310.89908061 347.32579208 316.29058674 341.92881123 321.6823262 336.53205991 C332.76535158 325.43860482 343.84480122 314.3415856 354.921875 303.2421875 C353.96507734 302.12020361 353.00746719 300.99891255 352.04951477 299.87791443 C351.5163329 299.25342124 350.98315104 298.62892805 350.43381214 297.98551083 C348.72016934 296.0096129 346.93738752 294.12841577 345.08984375 292.27734375 C344.43693359 291.62314453 343.78402344 290.96894531 343.11132812 290.29492188 C342.45068359 289.63814453 341.79003906 288.98136719 341.109375 288.3046875 C340.42939453 287.62083984 339.74941406 286.93699219 339.04882812 286.23242188 C338.40236328 285.58724609 337.75589844 284.94207031 337.08984375 284.27734375 C336.50485107 283.693479 335.9198584 283.10961426 335.31713867 282.50805664 C333.3036601 280.68130486 333.32986493 280.8651424 331.29955959 282.74145508 Z M334.52734375 345.91015625 C333.20259718 347.22613137 331.87592714 348.54017276 330.54743958 349.85237122 C327.77879211 352.60191767 325.03485328 355.37342575 322.30639648 358.1628418 C318.8204008 361.72291883 315.27924071 365.22139514 311.71740246 368.70539379 C308.96970166 371.40593843 306.25393708 374.13691261 303.54659462 376.87786293 C302.25283716 378.18024375 300.94948678 379.47317201 299.63628197 380.75594139 C290.89557102 389.01085003 290.89557102 389.01085003 288.06762695 400.2746582 C288.33499793 403.3185234 288.33499793 403.3185234 288.921875 406.2421875 C289.08717209 407.27365402 289.25246918 408.30512054 289.42277527 409.36784363 C291.85553449 422.76895614 300.40277229 437.52518282 311.54248047 445.38574219 C342.20690416 464.98101436 390.42868723 470.67809193 425.921875 470.2421875 C424.82789434 433.92202955 422.43004177 376.56481923 395.38671875 349.3828125 C385.53952686 340.83089308 374.76009009 335.62597847 361.921875 333.2421875 C360.98930374 333.06299271 360.05673248 332.88379791 359.09590149 332.69917297 C347.45247432 331.52522433 342.08372098 338.17449376 334.52734375 345.91015625 Z M7.921875 383.2421875 C6.34953996 387.72436335 4.78107915 392.20752541 3.22216797 396.69433594 C2.69086313 398.21985184 2.15735202 399.74460123 1.62158203 401.26855469 C0.85125843 403.46090423 0.08894652 405.65590014 -0.671875 407.8515625 C-0.91248657 408.5308783 -1.15309814 409.21019409 -1.40100098 409.91009521 C-2.55210184 413.25717311 -3.078125 415.65010902 -3.078125 419.2421875 C-1.20406123 420.74064006 -1.20406123 420.74064006 1.296875 421.9296875 C12.09180464 428.03714416 19.38626422 436.17096594 24.921875 447.2421875 C29.8678089 446.6650238 34.25450061 445.60539895 38.94921875 443.95703125 C39.58299942 443.73648575 40.21678009 443.51594025 40.86976624 443.28871155 C42.8684522 442.5916757 44.86390127 441.88585986 46.859375 441.1796875 C48.22440401 440.70188684 49.58963676 440.22466783 50.95507812 439.74804688 C54.28016499 438.58719384 57.60071847 437.41448555 60.921875 436.2421875 C60.921875 426.6721875 60.921875 417.1021875 60.921875 407.2421875 C55.92527342 408.22324942 55.92527342 408.22324942 50.93115234 409.21679688 C45.4570175 410.26743052 40.35410286 410.91364223 34.921875 409.2421875 C33.09343123 400.07793919 35.01259661 392.25398152 36.921875 383.2421875 C27.351875 383.2421875 17.781875 383.2421875 7.921875 383.2421875 Z M-9.078125 435.2421875 C-11.57172085 441.1627363 -13.78677102 447.15328344 -15.828125 453.2421875 C-16.16203247 454.23037476 -16.16203247 454.23037476 -16.50268555 455.23852539 C-17.68398686 458.66686852 -17.68398686 458.66686852 -18.078125 462.2421875 C-11.63659662 460.59497754 -5.2757697 458.73263211 1.046875 456.6796875 C1.71017822 456.46997314 2.37348145 456.26025879 3.05688477 456.04418945 C4.69900911 455.50195233 6.31377989 454.87828778 7.921875 454.2421875 C8.251875 453.5821875 8.581875 452.9221875 8.921875 452.2421875 C4.4404395 445.63426692 -1.26783525 437.84561742 -9.078125 435.2421875 Z " fill="#00A4F0" transform="translate(56.078125,11.7578125)"/>
</svg>
