<?xml version="1.0" encoding="UTF-8"?>
<svg version="1.1" xmlns="http://www.w3.org/2000/svg" width="512" height="512">
<path d="M0 0 C0.65679319 -0.00495952 1.31358638 -0.00991903 1.99028239 -0.01502883 C4.18266664 -0.0279427 6.37443761 -0.01961411 8.56683636 -0.01129913 C10.15792814 -0.01619005 11.74901636 -0.02238079 13.34009856 -0.02975702 C17.70603796 -0.04615431 22.07179676 -0.04383904 26.43775618 -0.03838205 C31.14886574 -0.03571159 35.85992718 -0.050244 40.57101727 -0.06247711 C49.79842518 -0.08353285 59.02577027 -0.08807187 68.25319938 -0.08628923 C75.75390848 -0.08498163 83.25459797 -0.08878563 90.75530338 -0.09621429 C92.91584561 -0.09831349 95.07638784 -0.10041109 97.23693007 -0.10250711 C98.31229566 -0.10355064 99.38766124 -0.10459417 100.49561366 -0.10566932 C120.83449073 -0.1245724 141.17333175 -0.12352133 161.51221397 -0.11669999 C180.11573307 -0.11112495 198.71911444 -0.13194823 217.32260136 -0.16506046 C236.42687277 -0.19879997 255.53107821 -0.21396543 274.63537997 -0.20934343 C285.36007866 -0.20709895 296.08465007 -0.21233883 306.80932331 -0.23723602 C315.94008229 -0.25825251 325.0706442 -0.26183767 334.20141128 -0.24293643 C338.85891863 -0.23378064 343.51605856 -0.23263076 348.17353725 -0.25329208 C352.44047081 -0.27201132 356.70673626 -0.26748821 360.97364446 -0.24474627 C362.51398079 -0.24056288 364.05436843 -0.24475183 365.59465048 -0.25834221 C375.45226656 -0.33936848 383.76167971 0.3734537 391.27380306 7.37286997 C398.53578053 14.97034242 399.5801591 21.83441174 399.43126202 32.0042038 C399.42701717 33.10410141 399.42277233 34.20399902 399.41839886 35.33722687 C399.40167728 38.8319425 399.36403622 42.32607026 399.32579327 45.82061005 C399.31073804 48.19755481 399.2970511 50.57450866 399.28477764 52.95146942 C399.25179511 58.76221508 399.20166057 64.57262055 399.13829327 70.38311005 C399.89336163 70.35692596 400.64842999 70.33074188 401.4263792 70.30376434 C404.91346427 70.19855516 408.40021399 70.13439415 411.88829327 70.07061005 C413.07551983 70.02871552 414.26274639 69.98682098 415.48594952 69.94365692 C427.7608195 69.77596744 437.07164485 73.31541422 445.93907452 81.8401413 C452.66792615 89.62074949 455.27839447 97.10199209 455.31529522 107.18999481 C455.32515202 108.36405632 455.32515202 108.36405632 455.33520794 109.56183624 C455.35489797 112.14939734 455.36659679 114.73690038 455.37657452 117.3245163 C455.38065004 118.21178846 455.38472557 119.09906063 455.3889246 120.01321983 C455.40977163 124.713744 455.42407668 129.41423913 455.43345928 134.1147995 C455.44449325 138.94757438 455.47886207 143.77988497 455.51863098 148.61249638 C455.5449017 152.34710234 455.55316057 156.08159968 455.55674076 159.8162899 C455.56158334 161.5963166 455.57313014 163.3763392 455.59177876 165.1562748 C455.72502679 178.72244103 454.62686625 189.4746127 445.38048077 200.1604538 C433.1485246 212.28585982 412.89738103 213.29655063 396.64634991 216.07842255 C394.63881992 216.42665703 392.63138648 216.77544851 390.62404156 217.12474823 C386.33542483 217.87000308 382.04622418 218.61176292 377.75653553 219.35082245 C370.96747479 220.52091711 364.18024139 221.7013793 357.39328289 222.88359833 C338.10562889 226.24171498 318.81560592 229.5860909 299.52379131 232.92021942 C288.84305018 234.76622375 278.16381524 236.62070657 267.48612016 238.48425102 C260.74474249 239.66027702 254.00165195 240.82573963 247.2570802 241.98329926 C243.06202004 242.70583315 238.86872744 243.43823595 234.67586422 244.17340088 C232.73721833 244.51128683 230.79786608 244.84514939 228.85776997 245.17460632 C226.20164663 245.62625585 223.54847608 246.09251577 220.89551067 246.56230927 C220.13499576 246.68800356 219.37448085 246.81369785 218.59092003 246.94320107 C210.51986428 248.40619449 203.38670213 250.93180949 198.28673077 257.60967255 C194.40416466 263.60519979 194.80589934 269.03944319 194.13829327 276.38311005 C208.98829327 276.38311005 223.83829327 276.38311005 239.13829327 276.38311005 C239.2060861 301.07917101 239.26131924 325.7751563 239.29372978 350.47128677 C239.30918039 361.93883604 239.33023537 373.40632326 239.36461163 384.8738327 C239.39456928 394.87214013 239.41388139 404.87040261 239.42055875 414.86875367 C239.42446022 420.15986844 239.43359154 425.45085465 239.45548344 430.7419281 C239.47594921 435.72904701 239.48210676 440.71598524 239.47761631 445.70314217 C239.47843701 447.52675167 239.48434222 449.35036765 239.49590969 451.17394066 C239.60703531 469.60731279 236.68611616 484.25747723 223.55235577 498.09404755 C211.20221095 509.80470267 197.73657922 512.9067647 181.27110577 512.65654755 C167.35715653 512.14197088 155.37860204 505.58678132 145.91563702 495.5432663 C137.18469868 484.93181816 132.9632619 473.05737754 133.01803875 459.41048431 C133.01675711 458.23285674 133.01675711 458.23285674 133.01544958 457.03143871 C133.01380733 454.41052051 133.01929556 451.78966684 133.02476788 449.16875458 C133.02505004 447.28612011 133.02489143 445.40348554 133.02432537 443.52085114 C133.02403856 438.41598769 133.02991663 433.31114775 133.03689933 428.20628977 C133.04315208 422.86914343 133.04373819 417.53199654 133.04492474 412.19484711 C133.04803238 402.09086626 133.05623814 391.98689623 133.06627423 381.88292015 C133.07745296 370.37876918 133.08295025 358.8746177 133.08796966 347.37046266 C133.09842121 323.7080044 133.11675966 300.04556099 133.13829327 276.38311005 C147.98829327 276.38311005 162.83829327 276.38311005 178.13829327 276.38311005 C178.13829327 272.09311005 178.13829327 267.80311005 178.13829327 263.38311005 C180.55536972 252.10341992 186.42422571 242.86378083 196.13829327 236.38311005 C205.49572706 231.44020286 216.1875701 230.32552562 226.47813702 228.56279755 C228.64294364 228.18343944 230.80756375 227.80301584 232.97201824 227.42165375 C237.89237695 226.55666527 242.81386066 225.69844638 247.73613262 224.84441376 C256.97854264 223.24029789 266.21687907 221.61319035 275.4551878 219.98564911 C277.17406889 219.68294695 278.89295307 219.38026233 280.61184025 219.07759476 C283.24768213 218.61346533 285.88352265 218.14932817 288.51935375 217.68513751 C297.5571507 216.09356918 306.59528194 214.50390378 315.63350081 212.91473341 C318.39649129 212.42888694 321.15945772 211.94290386 323.92242146 211.45690536 C333.3268747 209.80293152 342.73180434 208.15172753 352.13756084 206.50518036 C360.49381393 205.04233332 368.84919885 203.57463553 377.20360893 202.10129821 C381.58273354 201.32921337 385.96224895 200.55953617 390.3428545 199.79589462 C394.42467608 199.08430546 398.50531861 198.36630787 402.58515644 197.64343452 C404.07261147 197.38104626 405.56047807 197.12097815 407.04878902 196.86348915 C420.55372267 194.5907698 420.55372267 194.5907698 433.13829327 189.38311005 C434.28039144 187.60082068 434.28039144 187.60082068 435.13829327 185.38311005 C435.64429562 184.50391907 436.15029797 183.62472809 436.67163372 182.71889496 C438.33050128 178.94595025 438.56886552 175.80104046 438.542346 171.76055145 C438.54920925 171.0215007 438.5560725 170.28244995 438.56314373 169.52100372 C438.58135754 167.09202796 438.57758163 164.66370157 438.57188702 162.23467255 C438.57645197 160.53605186 438.58175847 158.83743301 438.58777142 157.13881683 C438.59669228 153.5831272 438.59429177 150.02766228 438.58433819 146.47197723 C438.5728594 141.93034049 438.5930481 137.38948254 438.62225533 132.84794807 C438.64066284 129.34075292 438.64031568 125.83374275 438.63461781 122.32651138 C438.6344651 120.65287815 438.64046767 118.97923198 438.65290928 117.30564499 C439.01560563 104.10354563 439.01560563 104.10354563 432.72641277 92.88521576 C428.04205144 88.65686083 423.60326999 87.16808256 417.40001202 86.96904755 C416.3333128 86.93037567 415.26661358 86.8917038 414.16759014 86.85186005 C413.06479717 86.82092255 411.9620042 86.78998505 410.82579327 86.75811005 C409.70366436 86.71943817 408.58153545 86.6807663 407.42540264 86.64092255 C404.66319475 86.54688994 401.90098927 86.46123664 399.13829327 86.38311005 C399.14939632 86.97477966 399.16049938 87.56644928 399.1719389 88.17604828 C399.28316331 94.37349493 399.35822028 100.57065486 399.41295147 106.76885223 C399.43798644 109.07723776 399.47202481 111.38554488 399.51549053 113.69365692 C399.576627 117.0252347 399.60461434 120.35575817 399.62657452 123.68779755 C399.65238094 124.70799988 399.67818737 125.72820221 399.70477581 126.77931976 C399.70801179 135.17880439 397.29616086 141.45188712 392.03282452 148.0042038 C391.3457542 148.60361786 390.65868389 149.20303192 389.95079327 149.82061005 C389.27661358 150.43807098 388.60243389 151.05553192 387.90782452 151.6917038 C380.13480987 156.43883404 371.81538713 156.81453849 362.92622662 156.7438736 C361.13706497 156.74771851 361.13706497 156.74771851 359.31175864 156.75164109 C356.02776103 156.7557054 352.74412498 156.74641703 349.46017003 156.73130691 C345.90884768 156.71828448 342.35754051 156.72274037 338.80620098 156.72501373 C332.6621523 156.72658257 326.51819961 156.71721432 320.37417507 156.70030022 C311.49109359 156.67586166 302.60805826 156.66809999 293.72494681 156.66433624 C279.31078212 156.65777936 264.89666852 156.63783895 250.48253155 156.60942841 C236.4851383 156.58186805 222.48775897 156.56064415 208.49034405 156.54790497 C207.62674256 156.5471168 206.76314108 156.54632863 205.87336986 156.54551657 C201.54069563 156.5416013 197.20802129 156.53781022 192.8753469 156.53408086 C156.96295962 156.50300873 121.05063043 156.45019377 85.13829327 156.38311005 C85.16185894 157.44054413 85.16185894 157.44054413 85.18590069 158.51934052 C85.24890993 161.76551284 85.28749122 165.01155585 85.32579327 168.25811005 C85.35092999 169.3667038 85.3760667 170.47529755 85.40196514 171.61748505 C85.49938018 182.65785653 83.39358144 191.84468138 76.13829327 200.38311005 C69.24564812 207.18332509 61.79759796 210.38020298 52.13829327 210.75811005 C42.85141706 210.4368659 35.45640322 207.27994098 28.57579327 201.07061005 C22.22298881 194.0662359 18.85662494 188.21163134 18.94298077 178.45342255 C18.94942608 177.16436005 18.95587139 175.87529755 18.96251202 174.54717255 C18.97921864 173.20081563 18.99614847 171.85446146 19.01329327 170.50811005 C19.02333663 169.13832487 19.0324601 167.76853263 19.04063702 166.39873505 C19.06414915 163.06001249 19.09701397 159.72165244 19.13829327 156.38311005 C18.49915997 156.40405731 17.86002666 156.42500458 17.20152569 156.44658661 C-6.65247035 157.1262244 -6.65247035 157.1262244 -17.67420673 150.75811005 C-22.74509286 145.25257654 -27.01051129 138.55498925 -26.95936298 130.9338913 C-26.95614033 130.0863327 -26.95291767 129.23877411 -26.94959736 128.36553192 C-26.94121845 127.4844577 -26.93283955 126.60338348 -26.92420673 125.69561005 C-26.91969501 124.80293427 -26.9151833 123.91025848 -26.91053486 122.99053192 C-26.89875656 120.78799018 -26.88230838 118.58558405 -26.86170673 116.38311005 C-27.56295673 116.3573288 -28.26420673 116.33154755 -28.98670673 116.30498505 C-38.5335208 115.7342516 -44.34305378 113.24686713 -51.22108173 106.6526413 C-57.20026824 98.38143329 -57.51973799 90.19803039 -57.43812275 80.29985809 C-57.42425112 77.95311854 -57.45840928 75.61037419 -57.49647236 73.26396942 C-57.54678954 63.6319974 -56.7130003 55.5994645 -49.88587666 48.25859833 C-44.4799552 43.09798993 -39.21528123 40.21125181 -31.63514423 40.3167038 C-30.29202168 40.3310849 -30.29202168 40.3310849 -28.92176533 40.34575653 C-28.24194599 40.35808319 -27.56212666 40.37040985 -26.86170673 40.38311005 C-26.88789082 39.82961884 -26.9140749 39.27612762 -26.94105244 38.70586395 C-27.83699305 16.90842272 -27.83699305 16.90842272 -19.99451923 8.34404755 C-14.05274207 2.72594696 -8.19627801 0.01105886 0 0 Z M180.13829327 455.38311005 C178.88990946 458.7884 178.88990946 458.7884 179.13829327 462.38311005 C180.55495993 464.96644338 180.55495993 464.96644338 183.13829327 466.38311005 C186.79681619 466.99286387 188.44342206 466.82854031 191.57579327 464.82061005 C193.45030482 462.36564459 193.45030482 462.36564459 193.20079327 458.82061005 C192.45447034 455.26043398 192.45447034 455.26043398 189.70079327 453.44561005 C185.51035648 451.70811187 183.65846076 452.58502819 180.13829327 455.38311005 Z " fill="#4A4CA7" transform="translate(56.86170673370361,-0.38311004638671875)"/>
<path d="M0 0 C0.96326534 -0.00698988 0.96326534 -0.00698988 1.94599059 -0.01412097 C4.10066635 -0.02608439 6.25471309 -0.01667086 8.40939426 -0.00736332 C9.96861183 -0.01153566 11.52782636 -0.01701263 13.08703524 -0.02368313 C17.37401005 -0.03816956 21.66079313 -0.03388308 25.94777858 -0.02651632 C30.5702257 -0.02179485 35.19263072 -0.03428543 39.81506443 -0.04453373 C48.87162825 -0.06174704 57.92812277 -0.06255651 66.98469871 -0.05732083 C74.34437574 -0.05328266 81.70403226 -0.05471847 89.06370831 -0.06006908 C90.11038507 -0.06081751 91.15706183 -0.06156593 92.23545607 -0.06233703 C94.36164002 -0.06386847 96.48782396 -0.06540682 98.6140079 -0.066952 C118.56170573 -0.08068616 138.50936436 -0.07523288 158.4570613 -0.06376678 C176.71419973 -0.05383303 194.97123683 -0.06677592 213.22835963 -0.09070098 C231.96642308 -0.11507164 250.70443931 -0.12470488 269.44251829 -0.11804825 C279.96588942 -0.11455156 290.4891826 -0.11681775 301.01254177 -0.13429928 C309.97070417 -0.14899584 318.92873372 -0.14969008 327.88689344 -0.13222837 C332.45878131 -0.12369504 337.03043162 -0.12162553 341.60230732 -0.13687992 C345.78638409 -0.15066775 349.97001846 -0.14604048 354.15406925 -0.12664068 C355.66882005 -0.12286214 357.18360579 -0.12585578 358.69832563 -0.13625234 C360.75624126 -0.14937438 362.81261909 -0.1378847 364.87046814 -0.12025452 C366.01375373 -0.12014718 367.15703933 -0.12003984 368.33496994 -0.11992925 C373.16765006 0.64434127 376.34958883 2.92637287 379.35484409 6.73065853 C380.73781259 9.93573157 380.84067743 12.28954719 380.79112339 15.77484798 C380.78145542 16.97689877 380.77178745 18.17894955 380.76182652 19.41742611 C380.7366898 20.66330502 380.71155308 21.90918392 380.68565464 23.19281673 C380.67211948 24.45803158 380.65858433 25.72324642 380.64463902 27.02680111 C380.60933782 30.14507317 380.56002283 33.26247715 380.49815464 36.38031673 C379.51121616 36.52831722 378.52427769 36.67631771 377.50743198 36.82880306 C367.7560159 38.36132351 360.05381713 41.71401427 351.41172886 46.3681097 C348.46189272 47.92845936 345.46046996 49.34512219 342.43565464 50.75531673 C341.45467808 51.21680111 340.47370152 51.67828548 339.46299839 52.15375423 C333.26457904 54.7180542 327.75961178 55.74503706 321.12315464 55.69281673 C320.37292027 55.68717709 319.62268589 55.68153744 318.84971714 55.67572689 C306.10645907 55.39641503 298.03963523 49.45361186 288.56065464 41.38031673 C274.58200706 29.48971995 260.94546421 25.03004975 242.49815464 26.38031673 C228.55837634 29.45268601 218.98517692 38.99790326 209.93565464 49.44281673 C196.76315826 64.61389877 196.76315826 64.61389877 185.94346714 65.75531673 C171.50356407 66.22018283 161.77291088 61.08288239 151.29502964 51.32953548 C150.59893589 50.6656683 149.90284214 50.00180111 149.18565464 49.31781673 C138.17656679 39.29697734 125.01801435 35.87640068 110.46299839 36.13812923 C96.71913935 36.9776556 82.86040848 40.83707265 72.49815464 50.38031673 C70.90366165 52.81560546 70.90366165 52.81560546 69.74815464 55.44281673 C69.34081089 56.3000433 68.93346714 57.15726986 68.51377964 58.04047298 C67.05879546 61.3925327 66.37288818 64.0175649 66.36685276 67.64221859 C66.36284458 68.51129848 66.3588364 69.38037838 66.35470676 70.27579403 C66.35523548 71.22648769 66.3557642 72.17718136 66.35630894 73.15668392 C66.3510973 74.66203197 66.3510973 74.66203197 66.34578037 76.1977911 C66.33842261 78.37983043 66.33307734 80.56187726 66.32948971 82.74392605 C66.32232807 86.19905839 66.30666331 89.65404841 66.28814793 93.10913754 C66.23566641 102.93388568 66.18770475 112.75855645 66.17222691 122.58344173 C66.16214139 128.5911482 66.13280094 134.59849755 66.0909071 140.60606289 C66.07859947 142.89452316 66.07347539 145.18303387 66.07570553 147.47152615 C66.07806032 150.67686165 66.0558769 153.88117423 66.02818394 157.08637142 C66.03808605 158.50026653 66.03808605 158.50026653 66.04818821 159.94272518 C65.96324494 165.94069413 64.9815195 169.4590209 61.49815464 174.38031673 C56.30597695 179.19257899 52.09112831 179.7391267 45.22081089 179.65766048 C39.95353518 179.12110873 37.02480079 176.11101108 33.68565464 172.31781673 C31.0947283 168.83857279 30.3750468 166.50467701 30.36012363 162.2837286 C30.3546703 161.45119564 30.34921696 160.61866268 30.34359837 159.76090145 C30.34255604 158.85075283 30.34151371 157.94060421 30.3404398 157.00287533 C30.33535908 156.04153683 30.33027836 155.08019833 30.32504368 154.08972836 C30.31433536 151.99936875 30.30571699 149.90899764 30.29892445 147.81862164 C30.28713532 144.50576199 30.26768051 141.1930327 30.24580479 137.88022518 C30.18420192 128.45988995 30.13021517 119.03956689 30.09678745 109.61908627 C30.0757932 103.85779957 30.04044741 98.09674865 29.99602985 92.33559704 C29.98190292 90.14368759 29.97315492 87.95173641 29.96997547 85.75978374 C29.96504388 82.68431509 29.94182616 79.609467 29.91465855 76.53412533 C29.91766468 75.63612209 29.92067081 74.73811886 29.92376804 73.8129034 C29.81919142 65.80488765 28.23274768 58.14679685 22.61534214 52.13812923 C13.31488953 44.41635124 1.49719177 39.33555373 -10.33387661 37.27875423 C-11.3068771 37.10779232 -12.27987759 36.93683041 -13.28236294 36.76068783 C-14.01479214 36.63516537 -14.74722134 36.50964291 -15.50184536 36.38031673 C-15.61836261 32.00554199 -15.68920536 27.63116846 -15.75184536 23.25531673 C-15.78536098 22.01781673 -15.81887661 20.78031673 -15.85340786 19.50531673 C-15.96397069 9.22297309 -15.96397069 9.22297309 -13.79872036 5.70062923 C-9.45699073 1.31459624 -6.16103419 0.00554665 0 0 Z " fill="#B3AEFE" transform="translate(60.501845359802246,14.619683265686035)"/>
<path d="M0 0 C5.51858948 2.97004016 10.18298361 6.95749446 14.9375 11 C19.99696192 15.29188545 25.075995 18.98619777 31 22 C32.16982422 22.61875 32.16982422 22.61875 33.36328125 23.25 C46.18639076 28.99347673 63.00525234 27.17881993 76.03808594 22.74951172 C83.29205222 19.97827273 90.09673934 16.16376406 96.875 12.40625 C97.7 11.9628125 98.525 11.519375 99.375 11.0625 C100.37660156 10.49208984 100.37660156 10.49208984 101.3984375 9.91015625 C104.07482526 8.97382239 106.34621354 8.70110136 109.16259766 8.44311523 C110.06724762 8.35851547 110.97189758 8.27391571 111.90396118 8.18675232 C112.59565399 8.12512405 113.2873468 8.06349579 114 8 C114.09283046 16.37126603 114.16383051 24.74231569 114.20724869 33.1139698 C114.2280912 37.00162103 114.25634681 40.88891915 114.30175781 44.77636719 C114.34533619 48.53058195 114.36916219 52.28445786 114.37950897 56.0389061 C114.38687898 57.46861986 114.40127114 58.89831583 114.42292023 60.32788467 C114.4521076 62.33575481 114.4536352 64.34396857 114.45410156 66.35205078 C114.46298401 67.49344513 114.47186646 68.63483948 114.48101807 69.81082153 C113.76484448 74.5590951 111.69767613 77.53640597 108.08528996 80.65070248 C103.26473807 82.75888641 98.55559959 82.40145276 93.35124207 82.36076355 C91.56236327 82.36460846 91.56236327 82.36460846 89.73734552 82.36853105 C86.43058525 82.37261792 83.12435772 82.36324355 79.81766188 82.34819686 C76.25057276 82.33524102 72.68350008 82.33962564 69.11639404 82.34190369 C62.9373351 82.34347671 56.7583712 82.33406451 50.57933617 82.31719017 C41.64550557 82.29280863 32.71172094 82.28499577 23.77786068 82.2812262 C9.28327755 82.27466038 -5.21125492 82.2546957 -19.70581055 82.22631836 C-33.78588609 82.19878115 -47.86594788 82.17754591 -61.94604492 82.16479492 C-62.81394702 82.16400675 -63.68184911 82.16321858 -64.57605127 82.16240653 C-68.93006275 82.15849141 -73.28407432 82.15470029 -77.63808596 82.15097082 C-113.75875974 82.11987087 -149.87937593 82.06703153 -186 82 C-186.09286256 74.2807204 -186.16384714 66.56149905 -186.20724869 58.84178734 C-186.22808423 55.25679099 -186.25632651 51.67217806 -186.30175781 48.08740234 C-186.34536192 44.6249581 -186.36916743 41.16288159 -186.37950897 37.70018387 C-186.39044821 35.74257518 -186.42165128 33.78511352 -186.45318604 31.82772827 C-186.455967 20.77477043 -186.455967 20.77477043 -182 16 C-172.00180491 7.53514155 -159.54488845 6.30875104 -147 7 C-136.83790972 8.62044142 -129.70588357 14.50124851 -122.0625 21 C-117.00382781 25.29121554 -111.92540825 28.99026883 -106 32 C-105.20851563 32.4125 -104.41703125 32.825 -103.6015625 33.25 C-93.35329825 37.79076939 -80.1695928 37.61602189 -69.5 34.5 C-57.46992132 29.69131952 -49.19191758 20.54193735 -41.13671875 10.73046875 C-30.30599517 -2.29129776 -15.97708654 -6.96844736 0 0 Z " fill="#FEFEFE" transform="translate(327,58)"/>
<path d="M0 0 C25.08 0 50.16 0 76 0 C76.16121214 33.1201379 76.16121214 33.1201379 76.1953125 47.046875 C76.21900567 56.64592074 76.24679105 66.24482557 76.30175781 75.84375 C76.34177862 82.83600851 76.36746889 89.8281522 76.37635398 96.82052207 C76.38154312 100.5188213 76.39363391 104.21679224 76.42292023 107.91498566 C76.45544181 112.05577304 76.45594972 116.19599918 76.45410156 120.33691406 C76.46848267 121.54676971 76.48286377 122.75662537 76.49768066 124.00314331 C76.43898115 136.21554419 73.41432842 146.01278113 65 155 C64.47664063 155.56460938 63.95328125 156.12921875 63.4140625 156.7109375 C55.73421092 164.09108755 46.19981271 166.71929459 35.80102539 166.5234375 C24.77979325 165.95014764 16.19427609 160.73283674 8.8125 152.75 C3.2046135 145.87037967 -0.12848802 138.25311407 -0.12025452 129.39385986 C-0.12162918 128.25245041 -0.12300385 127.11104095 -0.12442017 125.93504333 C-0.12082489 124.68707474 -0.11722961 123.43910614 -0.11352539 122.15332031 C-0.11367142 120.83600418 -0.11381744 119.51868805 -0.1139679 118.16145325 C-0.1142548 114.55228744 -0.10837534 110.94315486 -0.10139394 107.33399677 C-0.09514261 103.56102479 -0.09455519 99.78805205 -0.09336853 96.01507568 C-0.09026047 88.87180094 -0.08205414 81.72854151 -0.07201904 74.5852735 C-0.05875161 64.93158882 -0.05335375 55.27789995 -0.04751682 45.62420845 C-0.03811391 30.4161275 -0.01819148 15.20807885 0 0 Z M32 124 C30.75161619 127.40528996 30.75161619 127.40528996 31 131 C32.41666667 133.58333333 32.41666667 133.58333333 35 135 C38.65852292 135.60975382 40.30512879 135.44543026 43.4375 133.4375 C45.31201155 130.98253455 45.31201155 130.98253455 45.0625 127.4375 C44.31617708 123.87732393 44.31617708 123.87732393 41.5625 122.0625 C37.37206321 120.32500182 35.52016749 121.20191815 32 124 Z " fill="#FCFBFD" transform="translate(205,331)"/>
<path d="M0 0 C8.58333355 6.18631565 13.59344372 14.1844526 15.5859375 24.55859375 C16.79416618 33.00127809 14.44445245 41.3668814 9.66796875 48.37109375 C4.00345335 55.10835809 -2.13720941 58.79964272 -10.4140625 61.55859375 C-22.33663944 62.3554755 -31.01907088 61.29026951 -40.3359375 53.5859375 C-46.81963116 47.26067996 -50.59127661 39.93863024 -50.79418945 30.79858398 C-50.77618305 23.59001942 -50.33915368 17.78192911 -46.4140625 11.55859375 C-46.0634375 10.93726563 -45.7128125 10.3159375 -45.3515625 9.67578125 C-40.97715178 2.65849739 -33.61998811 -1.68580538 -25.79296875 -3.97265625 C-16.8592584 -5.73299327 -7.86342936 -4.69515442 0 0 Z " fill="#7A48AB" transform="translate(126.4140625,302.44140625)"/>
<path d="M0 0 C6.43896961 4.53935022 9.16866595 10.46754866 11 18 C12.1114549 25.00974395 10.27379027 31.60839917 6.37109375 37.4296875 C1.07017548 43.96213224 -4.41474213 47.25056568 -12.765625 48.37109375 C-20.92081839 48.7469616 -26.54113348 46.26156657 -33.25 41.875 C-38.91141948 35.95624327 -41.30333999 30.21126521 -41.625 22 C-41.29038082 13.67973926 -38.80210963 7.29845261 -32.6875 1.5625 C-22.82093481 -5.92760218 -10.6841582 -6.12607023 0 0 Z " fill="#6349A9" transform="translate(124,232)"/>
<path d="M0 0 C1.41313179 0.1241434 2.82542216 0.25788234 4.23730469 0.39550781 C5.02385437 0.46892395 5.81040405 0.54234009 6.62078857 0.61798096 C10.52871482 1.24545871 13.77685281 2.91919373 17.25 4.75 C17.930625 5.08515625 18.61125 5.4203125 19.3125 5.765625 C24.10652956 8.21838431 28.51276998 11.02553996 31 16 C31.09101612 17.8485708 31.11753146 19.70046379 31.11352539 21.55126953 C31.11344986 22.71232208 31.11337433 23.87337463 31.11329651 25.0696106 C31.10813522 26.32796722 31.10297394 27.58632385 31.09765625 28.8828125 C31.0962413 30.16735321 31.09482635 31.45189392 31.09336853 32.77536011 C31.08954911 36.19156842 31.07972373 39.60773426 31.06866455 43.02392578 C31.05843807 46.50943426 31.05386826 49.9949496 31.04882812 53.48046875 C31.03810096 60.32032995 31.02103142 67.16016294 31 74 C27.29208456 74.14592789 23.58491274 74.23427895 19.875 74.3125 C18.82828125 74.35439453 17.7815625 74.39628906 16.703125 74.43945312 C7.97038752 74.57762935 7.97038752 74.57762935 4.3828125 71.73046875 C0.48547251 67.26450047 -0.25007841 64.52022942 -0.22705078 58.57910156 C-0.22689972 57.27805481 -0.22674866 55.97700806 -0.22659302 54.63653564 C-0.21638046 53.22123053 -0.20594848 51.80592699 -0.1953125 50.390625 C-0.19158071 48.93902786 -0.18873452 47.4874282 -0.18673706 46.03582764 C-0.17911364 42.22175093 -0.15947635 38.40782738 -0.1373291 34.59381104 C-0.11684278 30.69928051 -0.10772939 26.80472516 -0.09765625 22.91015625 C-0.07622915 15.2733678 -0.04210892 7.63670539 0 0 Z " fill="#FDFDFE" transform="translate(45,66)"/>
<path d="M0 0 C25.08 0 50.16 0 76 0 C76 8.58 76 17.16 76 26 C50.92 26 25.84 26 0 26 C0 17.42 0 8.84 0 0 Z " fill="#F8F6FA" transform="translate(205,291)"/>
<path d="M0 0 C5.17027958 3.02676783 9.42737199 7.84809908 11.625 13.4375 C12.52365795 22.36572511 11.59800227 28.44285619 7.0625 36.0625 C2.24140439 40.75997777 -3.60067982 43.68852333 -10.375 44.0625 C-16.93502526 43.67054881 -22.73289714 41.1921468 -27.30078125 36.4296875 C-32.89078604 29.19870278 -33.23474334 22.44481106 -32.375 13.4375 C-30.20813162 6.98752262 -25.0585782 2.87380565 -19.375 -0.5625 C-13.28221719 -2.5934276 -5.91248609 -2.67605753 0 0 Z M-16.375 16.4375 C-17.62338381 19.84278996 -17.62338381 19.84278996 -17.375 23.4375 C-15.95833333 26.02083333 -15.95833333 26.02083333 -13.375 27.4375 C-9.71647708 28.04725382 -8.06987121 27.88293026 -4.9375 25.875 C-3.06298845 23.42003455 -3.06298845 23.42003455 -3.3125 19.875 C-4.05882292 16.31482393 -4.05882292 16.31482393 -6.8125 14.5 C-11.00293679 12.76250182 -12.85483251 13.63941815 -16.375 16.4375 Z " fill="#A147AF" transform="translate(253.375,438.5625)"/>
<path d="M0 0 C4.88062876 1.63875126 8.16687462 4.75031193 11 9 C12.93795159 14.81385476 13.02055692 20.92108776 10.3125 26.4375 C5.84817566 31.384454 1.94798003 34.705202 -4.75 35.375 C-10.52484069 35.17105581 -14.86668374 33.26948538 -18.8359375 29.046875 C-22.21859075 24.50490867 -23.83782536 20.76005228 -23.3828125 15.0625 C-22.15161333 8.42910038 -18.20298056 4.84895188 -13 1 C-9.04474536 -0.97762732 -4.31019688 -0.42863836 0 0 Z " fill="#F1C3FD" transform="translate(114,314)"/>
<path d="M0 0 C0 14.85 0 29.7 0 45 C-7.90662651 45 -7.90662651 45 -10.3125 42.75 C-16.22616528 36.69880762 -15.36648367 30.7325486 -15.375 22.625 C-15.39949219 21.40554687 -15.42398437 20.18609375 -15.44921875 18.9296875 C-15.48572676 7.78257632 -15.48572676 7.78257632 -11 3 C-6.88150105 -0.25144654 -5.67158558 0 0 0 Z " fill="#FCFDFE" transform="translate(30,55)"/>
<path d="M0 0 C2.87029869 1.79393668 4.49131638 2.98263276 6 6 C6.5811138 13.08958838 6.5811138 13.08958838 4.125 16.9375 C0.63841797 20.3215355 -2.03592714 20.38966392 -6.73828125 20.359375 C-10.32520929 19.78943134 -11.86838894 17.79773951 -14 15 C-15.41000664 12.17998673 -15.24548451 10.12992745 -15 7 C-11.68933924 0.06337746 -7.20314329 -1.06151585 0 0 Z " fill="#DEBCFC" transform="translate(113,244)"/>
</svg>
