<?xml version="1.0" encoding="UTF-8"?>
<svg version="1.1" xmlns="http://www.w3.org/2000/svg" width="512" height="512">
<path d="M0 0 C1.721914 0.30982615 3.4439626 0.61890509 5.1661377 0.92727661 C8.75097271 1.57146225 12.33443391 2.22266781 15.91699219 2.87939453 C20.50585003 3.72027936 25.097238 4.54625474 29.68965912 5.36742973 C33.23526464 6.0025757 36.77970926 6.64400728 40.32380676 7.28750992 C42.01718926 7.59449278 43.71086298 7.89987379 45.40483093 8.20360947 C47.76520187 8.62811471 50.12394828 9.06069919 52.48242188 9.49560547 C53.52660782 9.68118515 53.52660782 9.68118515 54.59188843 9.87051392 C62.46143188 11.34252547 62.46143188 11.34252547 65.29980469 14.61401367 C65.72165039 15.25314697 66.14349609 15.89228027 66.578125 16.55078125 C67.06966064 17.28361328 67.56119629 18.01644531 68.06762695 18.77148438 C68.85399536 19.9712793 68.85399536 19.9712793 69.65625 21.1953125 C70.8101195 22.91869128 71.96511962 24.64131346 73.12109375 26.36328125 C73.73194824 27.27770996 74.34280273 28.19213867 74.97216797 29.13427734 C78.33412115 34.12925197 81.77745142 39.06732231 85.21875 44.0078125 C85.86360352 44.93746826 86.50845703 45.86712402 87.17285156 46.82495117 C87.80288086 47.73092041 88.43291016 48.63688965 89.08203125 49.5703125 C89.69900879 50.45976563 90.31598633 51.34921875 90.95166016 52.265625 C92.33250655 54.20288039 93.75304987 56.11213035 95.20068359 58 C95.9427002 58.97195312 96.6847168 59.94390625 97.44921875 60.9453125 C98.13395264 61.82058594 98.81868652 62.69585937 99.52416992 63.59765625 C100.90625 66.0078125 100.90625 66.0078125 100.83666992 68.15332031 C99.69587008 70.42713705 98.57991021 71.31938158 96.4765625 72.7421875 C95.76242187 73.23460938 95.04828125 73.72703125 94.3125 74.234375 C93.5596875 74.73710938 92.806875 75.23984375 92.03125 75.7578125 C89.80562642 77.27637877 87.58550417 78.79784456 85.38696289 80.35546875 C82.90625 82.0078125 82.90625 82.0078125 79.92358398 83.56640625 C76.62608524 85.46855249 74.34506366 87.0706654 71.90625 90.0078125 C70.42424434 95.87439709 70.54222826 101.49492447 70.71875 107.5078125 C70.72571748 109.10936104 70.72771571 110.71093932 70.72460938 112.3125 C70.7277794 116.21363583 70.79845799 120.10822208 70.90625 124.0078125 C68.59625 124.0078125 66.28625 124.0078125 63.90625 124.0078125 C63.91069122 124.59868652 63.91513245 125.18956055 63.91970825 125.79833984 C63.9644561 132.0292719 63.99432638 138.26015727 64.01611328 144.49121094 C64.02608121 146.80698505 64.03966041 149.12274688 64.05712891 151.43847656 C64.28011855 181.79130189 61.11343817 209.19191746 39.69238281 232.37402344 C37.90625 234.0078125 37.90625 234.0078125 35.17480469 235.89941406 C29.62478581 239.83527681 26.2910683 242.60437799 25.09375 249.4921875 C24.82223394 253.07004875 24.82223394 253.07004875 24.90625 256.7578125 C24.92341064 258.66759888 24.92341064 258.66759888 24.94091797 260.6159668 C25.74416317 272.18168093 30.48983169 278.7604263 38.88012695 286.42163086 C47.57698389 293.5617626 56.58384343 297.21881658 67.30322266 300.21728516 C71.44862064 301.47622332 75.34682853 303.20724212 79.28125 305.0078125 C80.01150391 305.33958496 80.74175781 305.67135742 81.49414062 306.01318359 C83.63809082 306.9979945 85.77365136 307.99867613 87.90625 309.0078125 C88.59412598 309.33249512 89.28200195 309.65717773 89.99072266 309.99169922 C118.25448732 323.45031577 144.69438761 340.94642993 156.93359375 370.99609375 C171.07513015 414.78374261 159.90625 462.99323607 159.90625 509.0078125 C38.46625 509.0078125 -82.97375 509.0078125 -208.09375 509.0078125 C-208.09375 375.70408004 -208.09375 375.70408004 -201.46875 362.9453125 C-201.12392578 362.27048828 -200.77910156 361.59566406 -200.42382812 360.90039062 C-197.08272773 354.59608808 -192.93516449 349.24549935 -188.09375 344.0078125 C-187.49304688 343.3271875 -186.89234375 342.6465625 -186.2734375 341.9453125 C-166.40402763 320.61365168 -135.87622661 307.50553738 -109.06079102 297.94921875 C-100.37800706 294.85236667 -93.35946895 291.97360875 -86.96875 285.1953125 C-86.48277344 284.69966797 -85.99679688 284.20402344 -85.49609375 283.69335938 C-84.50765899 282.67477343 -83.53587437 281.6397836 -82.58081055 280.58984375 C-81.09375 279.0078125 -81.09375 279.0078125 -79.42895508 277.56640625 C-75.47694399 273.82965916 -74.60820928 270.69745572 -74.12109375 265.296875 C-74.05895967 262.74276763 -74.02996744 260.18767521 -74.03125 257.6328125 C-73.93360352 255.71855469 -73.93360352 255.71855469 -73.83398438 253.765625 C-73.79709922 248.27257483 -73.79546621 244.51967371 -77.46826172 240.24267578 C-80.25205143 237.98284983 -83.12550756 236.01423298 -86.09375 234.0078125 C-103.22699847 217.41125113 -111.48227439 194.58656357 -112.18016052 171.09973145 C-112.20824255 168.06466001 -112.20651388 165.03125306 -112.19140625 161.99609375 C-112.1899913 160.90185593 -112.18857635 159.8076181 -112.18711853 158.68022156 C-112.18157531 155.22688928 -112.16903379 151.77362478 -112.15625 148.3203125 C-112.15122765 145.96158949 -112.14666604 143.60286544 -112.14257812 141.24414062 C-112.13162456 135.49867527 -112.11494413 129.75324873 -112.09375 124.0078125 C-114.40375 124.0078125 -116.71375 124.0078125 -119.09375 124.0078125 C-119.02978027 123.04593018 -118.96581055 122.08404785 -118.89990234 121.09301758 C-117.25169938 103.61527649 -117.25169938 103.61527649 -121.73046875 87.25048828 C-125.76807452 83.08887034 -130.59804603 80.52858732 -135.82226562 78.11474609 C-139.12310046 76.50619223 -141.81248524 74.43587525 -144.71875 72.1953125 C-145.57726562 71.57011719 -146.43578125 70.94492188 -147.3203125 70.30078125 C-147.90554687 69.87410156 -148.49078125 69.44742188 -149.09375 69.0078125 C-148.47595313 65.80089731 -147.38934456 63.69866001 -145.49609375 61.05078125 C-144.94961182 60.27911621 -144.40312988 59.50745117 -143.84008789 58.71240234 C-143.24317139 57.8817627 -142.64625488 57.05112305 -142.03125 56.1953125 C-140.75730016 54.40010305 -139.48388436 52.60451453 -138.2109375 50.80859375 C-137.54030273 49.86580566 -136.86966797 48.92301758 -136.17871094 47.95166016 C-132.63774774 42.95201915 -129.14899616 37.91619802 -125.65625 32.8828125 C-121.81662102 27.35616769 -121.81662102 27.35616769 -119.86767578 24.65136719 C-118.03891872 22.06240633 -118.03891872 22.06240633 -116.76904297 19.24707031 C-114.90791388 15.6938284 -113.1742714 12.86493239 -109.33206177 11.28204346 C-104.40722275 9.86933887 -99.34395256 9.20600515 -94.28027344 8.48852539 C-89.54000998 7.77341822 -84.84217845 6.85695162 -80.1340332 5.95715332 C-76.17190807 5.20200987 -72.20629077 4.46948096 -68.23828125 3.74609375 C-64.14507906 2.99985913 -60.05234534 2.25172084 -55.96240234 1.48779297 C-51.94583408 0.73764057 -47.92624793 0.00499123 -43.90625 -0.7265625 C-42.09181396 -1.06865753 -42.09181396 -1.06865753 -40.24072266 -1.41766357 C-26.14454312 -3.94610314 -13.90996001 -2.5606164 0 0 Z " fill="#624AAC" transform="translate(280.09375,2.9921875)"/>
<path d="M0 0 C2.87694456 0.93184053 5.75146556 1.87024801 8.625 2.8125 C9.43324219 3.07353516 10.24148438 3.33457031 11.07421875 3.60351562 C15.59064573 5.09063183 19.79796137 6.73579472 24 9 C22.67222482 12.5995593 21.06824929 15.66099373 18.9609375 18.86328125 C18.38085938 19.74951172 17.80078125 20.63574219 17.203125 21.54882812 C16.59984375 22.46083984 15.9965625 23.37285156 15.375 24.3125 C14.76398438 25.24384766 14.15296875 26.17519531 13.5234375 27.13476562 C12.01957 29.42581376 10.51165714 31.71408719 9 34 C11.88102662 35.92068441 14.68049356 37.32616826 17.8125 38.79296875 C18.97136719 39.34146484 20.13023437 39.88996094 21.32421875 40.45507812 C23.74103604 41.59590599 26.16076398 42.72990716 28.58203125 43.86132812 C35.21468283 47.00946099 41.48112575 50.37028053 47.60375977 54.42749023 C57.92052675 61.19777002 66.67858926 63.29467514 79 62 C81.63940876 61.22057728 83.8091235 60.30850909 86.203125 58.97265625 C88.11619199 57.93710477 89.8787954 57.4458284 92 57 C92.78706122 58.11370717 93.55344702 59.24201827 94.3125 60.375 C94.74175781 61.00148438 95.17101562 61.62796875 95.61328125 62.2734375 C99.80422095 70.51365134 100.4272962 78.49092355 100.34057617 87.60986328 C100.34093778 88.85009184 100.34129938 90.0903204 100.34167194 91.36813164 C100.34019018 94.02083795 100.33344631 96.67282502 100.31672668 99.32540894 C100.2941062 103.12904991 100.2864021 106.93238279 100.28381348 110.73608398 C100.26813353 119.86576564 100.2262497 128.99538711 100.1875 138.125 C100.125625 158.54375 100.06375 178.9625 100 200 C58.42 200 16.84 200 -26 200 C-26.88628267 197.34115198 -27.19305047 195.4846647 -27.35717773 192.73266602 C-27.41078461 191.86674332 -27.46439148 191.00082062 -27.5196228 190.10865784 C-27.57373322 189.16658981 -27.62784363 188.22452179 -27.68359375 187.25390625 C-27.74334381 186.26788925 -27.80309387 185.28187225 -27.86465454 184.26597595 C-28.05954162 181.0317063 -28.24854272 177.79712104 -28.4375 174.5625 C-28.57122936 172.32680472 -28.7052646 170.09112772 -28.83959961 167.85546875 C-29.66782898 153.99854698 -30.4375503 140.13882926 -31.18185425 126.27719116 C-31.66658909 117.29856577 -32.24485678 108.33564225 -33 99.375 C-35.04906184 74.90427734 -36.40206687 50.56319277 -36 26 C-34.30729167 27.00911458 -32.61458333 28.01822917 -30.921875 29.02734375 C-28.95829062 30.02110902 -27.147297 30.54868758 -25 31 C-18.03768241 22.4769721 -11.10897315 13.93364485 -4.34057617 5.25537109 C-1.08940361 1.08940361 -1.08940361 1.08940361 0 0 Z " fill="#FEFDFE" transform="translate(325,312)"/>
<path d="M0 0 C1.82949539 2.02519506 3.44437617 4.00448797 5.0625 6.1875 C6.0323314 7.45850176 7.00239041 8.72932986 7.97265625 10 C8.46910645 10.65742188 8.96555664 11.31484375 9.47705078 11.9921875 C11.94939565 15.25165595 14.47438925 18.46925254 17 21.6875 C17.45640869 22.27490967 17.91281738 22.86231934 18.38305664 23.4675293 C20.48021056 26.15108561 22.58520762 28.58520762 25 31 C27.97 29.02 30.94 27.04 34 25 C34.26354234 44.09803518 33.54513889 63.0158196 32.2623291 82.06469727 C32.07905054 84.8143644 31.90371639 87.56451222 31.72864914 90.31471252 C30.82565987 104.49021623 29.80956568 118.65279398 28.64151001 132.80917358 C28.07382826 139.7879796 27.68034543 146.74971695 27.5 153.75 C27.18656288 163.25181626 26.49264784 172.6596784 25.5 182.11328125 C24.92479612 187.73500039 24.46929577 193.36845074 24 199 C-17.58 199 -59.16 199 -102 199 C-102.0825 178.6225 -102.165 158.245 -102.25 137.25 C-102.28641602 130.83336914 -102.32283203 124.41673828 -102.36035156 117.80566406 C-102.37841797 109.92529297 -102.37841797 109.92529297 -102.3817749 106.22747803 C-102.3894853 102.99363217 -102.41197488 99.76023097 -102.43926644 96.52650285 C-102.46082014 93.29665308 -102.45535695 90.06682304 -102.45410156 86.83691406 C-102.468494 85.70904606 -102.48288643 84.58117805 -102.497715 83.41913223 C-102.44591944 73.3975035 -100.23366158 64.01470774 -94 56 C-93.360625 56.268125 -92.72125 56.53625 -92.0625 56.8125 C-91.051875 57.204375 -90.04125 57.59625 -89 58 C-88.41476563 58.26425781 -87.82953125 58.52851563 -87.2265625 58.80078125 C-78.74671301 62.22845988 -68.94849257 62.72987558 -60.3125 59.7109375 C-54.68440939 56.9597057 -49.47179017 53.67330855 -44.1875 50.3125 C-37.65035615 46.17991654 -30.78061014 42.8446732 -23.8125 39.5 C-22.68803467 38.95899658 -21.56356934 38.41799316 -20.4050293 37.8605957 C-12.26565329 34 -12.26565329 34 -10 34 C-10.48992432 33.2886792 -10.97984863 32.5773584 -11.48461914 31.84448242 C-13.29501724 29.20551303 -15.09602525 26.56045628 -16.89086914 23.91088867 C-17.67002912 22.76479776 -18.45289665 21.62121837 -19.23950195 20.48022461 C-20.3685776 18.84110596 -21.48334003 17.19215676 -22.59765625 15.54296875 C-23.61098022 14.0583313 -23.61098022 14.0583313 -24.64477539 12.54370117 C-25.09199951 11.70427979 -25.53922363 10.8648584 -26 10 C-25 7 -25 7 -23.0222168 5.90917969 C-22.17312744 5.58336914 -21.32403809 5.25755859 -20.44921875 4.921875 C-19.05993164 4.38820313 -19.05993164 4.38820313 -17.64257812 3.84375 C-16.66740234 3.4828125 -15.69222656 3.121875 -14.6875 2.75 C-13.72392578 2.37359375 -12.76035156 1.9971875 -11.76757812 1.609375 C-3.57111972 -1.48062734 -3.57111972 -1.48062734 0 0 Z " fill="#FEFDFE" transform="translate(189,313)"/>
<path d="M0 0 C0.45165527 0.39251953 0.90331055 0.78503906 1.36865234 1.18945312 C17.52282621 15.14720738 34.28185308 22.54460279 55.84375 22.36328125 C57.0153064 22.36377975 58.18686279 22.36427826 59.3939209 22.36479187 C61.85101025 22.3624695 64.30810282 22.35285102 66.76513672 22.33618164 C70.49078014 22.31255846 74.21570664 22.31563976 77.94140625 22.32226562 C80.34635836 22.31668804 82.75130751 22.30957765 85.15625 22.30078125 C86.25142944 22.30169266 87.34660889 22.30260406 88.47497559 22.30354309 C98.98397533 22.20888048 109.50702061 21.37827445 119.125 16.875 C119.7938623 16.57223145 120.46272461 16.26946289 121.15185547 15.95751953 C129.73018234 11.9224754 136.7836595 6.04499247 144 0 C144.40930046 21.73840209 141.90399428 39.50577246 128 57 C127.33097656 57.91265625 127.33097656 57.91265625 126.6484375 58.84375 C117.17077378 71.03723549 100.9932704 79.85887932 85.87109375 82.55859375 C63.33056721 85.12880515 43.58580961 81.18777857 25.55395508 66.96118164 C12.17016677 55.87776416 2.21264179 38.38504265 0 21 C-0.11605168 17.37383706 -0.09444973 13.75252275 -0.0625 10.125 C-0.05798828 9.15046875 -0.05347656 8.1759375 -0.04882812 7.171875 C-0.03710906 4.78118566 -0.02070219 2.3906256 0 0 Z " fill="#FEFEFE" transform="translate(184,163)"/>
<path d="M0 0 C12.54 0 25.08 0 38 0 C39.17623952 17.7242333 40.35029128 35.44860693 41.52036285 53.17324829 C42.06374469 61.40351713 42.60810447 69.63371909 43.15478516 77.86376953 C43.63139537 85.03897597 44.10615167 92.21430228 44.5787034 99.38977718 C44.82886485 103.1873819 45.07993981 106.98492113 45.33323669 110.78231812 C45.5719004 114.3607779 45.80807402 117.93939358 46.04238701 121.51814079 C46.16944555 123.44902396 46.29910058 125.37973573 46.42884827 127.31044006 C46.54243935 129.05604469 46.54243935 129.05604469 46.6583252 130.83691406 C46.75787884 132.34128021 46.75787884 132.34128021 46.85944366 133.8760376 C47.02612171 137.58057328 47 141.29171655 47 145 C28.52 145 10.04 145 -9 145 C-7.85117953 117.42830864 -7.85117953 117.42830864 -7.15209961 107.16796875 C-7.07392502 105.98428207 -6.99575043 104.8005954 -6.91520691 103.58103943 C-6.66369785 99.78300215 -6.4080885 95.98525418 -6.15234375 92.1875 C-5.97415294 89.5089686 -5.79619639 86.83042263 -5.61854553 84.15185547 C-5.20303544 77.89449398 -4.7845567 71.63733499 -4.3649202 65.38024902 C-3.88610587 58.2385113 -3.4107397 51.09654525 -2.93561542 43.95456123 C-1.96082341 29.30278955 -0.98140172 14.65133058 0 0 Z " fill="#FEFEFE" transform="translate(237,367)"/>
<path d="M0 0 C1.31669426 0.24816467 1.31669426 0.24816467 2.6599884 0.50134277 C5.48090616 1.03319022 8.30100888 1.5692242 11.12109375 2.10546875 C30.89407048 5.85218334 30.89407048 5.85218334 50.76782227 9.01293945 C57.70876643 10.07757442 61.46523463 11.6131458 65.72265625 17.3984375 C66.88635891 19.0855552 68.03949522 20.77999571 69.18359375 22.48046875 C69.79025879 23.36508789 70.39692383 24.24970703 71.02197266 25.16113281 C72.26686442 26.9781076 73.507582 28.79794926 74.74414062 30.62060547 C76.96858977 33.89681919 79.21694446 37.15615248 81.46630859 40.4152832 C83.50384965 43.36988724 85.53162121 46.33110684 87.55859375 49.29296875 C85.16100593 51.75905908 82.78209268 54.02358697 79.99609375 56.04296875 C79.12791016 56.68492188 79.12791016 56.68492188 78.2421875 57.33984375 C76.55859375 58.29296875 76.55859375 58.29296875 73.55859375 58.29296875 C72.87796875 57.38546875 72.19734375 56.47796875 71.49609375 55.54296875 C67.67377349 50.71678084 61.90740642 48.78164337 55.92938232 47.90930176 C53.19270346 47.74093168 50.48005331 47.68720543 47.73828125 47.68359375 C46.26127243 47.65878937 46.26127243 47.65878937 44.75442505 47.63348389 C41.64741549 47.58537734 38.54089395 47.56371625 35.43359375 47.54296875 C33.31117385 47.51477783 31.18877632 47.48484609 29.06640625 47.453125 C23.89717567 47.37962859 18.72821011 47.32982649 13.55859375 47.29296875 C14.2096367 43.24913214 15.01456879 39.36297077 16.12109375 35.41796875 C16.52521484 33.96777344 16.52521484 33.96777344 16.9375 32.48828125 C17.14246094 31.76382813 17.34742188 31.039375 17.55859375 30.29296875 C16.68533447 30.0196875 15.8120752 29.74640625 14.91235352 29.46484375 C11.74475696 28.35801814 8.88565618 27.06327021 5.8984375 25.54296875 C4.85751953 25.01703125 3.81660156 24.49109375 2.74414062 23.94921875 C1.67228516 23.40265625 0.60042969 22.85609375 -0.50390625 22.29296875 C-2.63969322 21.20779958 -4.77638043 20.12439998 -6.9140625 19.04296875 C-7.85515869 18.5634375 -8.79625488 18.08390625 -9.76586914 17.58984375 C-10.64879639 17.161875 -11.53172363 16.73390625 -12.44140625 16.29296875 C-13.29331543 15.86951172 -14.14522461 15.44605469 -15.02294922 15.00976562 C-17.38874735 14.07495311 -17.38874735 14.07495311 -19.56274414 14.88867188 C-20.2561792 15.27990234 -20.94961426 15.67113281 -21.6640625 16.07421875 C-22.44467041 16.5017041 -23.22527832 16.92918945 -24.02954102 17.36962891 C-25.25435181 18.07418213 -25.25435181 18.07418213 -26.50390625 18.79296875 C-28.20137232 19.72868248 -29.89928922 20.6635788 -31.59765625 21.59765625 C-32.83515625 22.28939941 -32.83515625 22.28939941 -34.09765625 22.99511719 C-37.19836892 24.71213683 -40.33676463 26.32671071 -43.50390625 27.91796875 C-44.88255859 28.61792969 -44.88255859 28.61792969 -46.2890625 29.33203125 C-48.44140625 30.29296875 -48.44140625 30.29296875 -50.44140625 30.29296875 C-50.23644531 31.01742187 -50.03148437 31.741875 -49.8203125 32.48828125 C-49.55089844 33.45507812 -49.28148437 34.421875 -49.00390625 35.41796875 C-48.73707031 36.36929688 -48.47023438 37.320625 -48.1953125 38.30078125 C-47.44305543 41.28642331 -46.93055424 44.25471367 -46.44140625 47.29296875 C-46.99549164 47.29439377 -47.54957703 47.29581879 -48.12045288 47.29728699 C-53.92926451 47.31709592 -59.73704104 47.37160648 -65.54541016 47.44555664 C-67.70809482 47.46863948 -69.87089034 47.48310936 -72.03369141 47.48852539 C-75.15727049 47.49788605 -78.27912903 47.53903258 -81.40234375 47.5859375 C-82.83421524 47.58003853 -82.83421524 47.58003853 -84.29501343 47.57402039 C-91.26496634 47.72280496 -96.585406 49.46574402 -102.44140625 53.29296875 C-105.01900345 55.87741953 -105.01900345 55.87741953 -106.44140625 58.29296875 C-110.20260101 57.66903224 -112.63100667 55.9452316 -115.69140625 53.73046875 C-117.02945313 52.76947266 -117.02945313 52.76947266 -118.39453125 51.7890625 C-119.07 51.29535156 -119.74546875 50.80164063 -120.44140625 50.29296875 C-115.69847753 41.60542604 -109.81347972 33.70925473 -104.09033203 25.65087891 C-102.70667319 23.67229183 -101.36994942 21.67764105 -100.0625 19.6484375 C-99.10537109 18.20404297 -99.10537109 18.20404297 -98.12890625 16.73046875 C-97.36126953 15.52197266 -97.36126953 15.52197266 -96.578125 14.2890625 C-90.41090775 8.52773158 -80.15822441 8.26553364 -72.19140625 7.04296875 C-69.53570359 6.62261765 -66.88069056 6.1995663 -64.2265625 5.76953125 C-63.53029251 5.65676849 -62.83402252 5.54400574 -62.11665344 5.42782593 C-56.57733153 4.51477193 -51.06966471 3.46797255 -45.5625 2.37890625 C-44.32123856 2.13521301 -44.32123856 2.13521301 -43.05490112 1.88659668 C-39.77538131 1.24168176 -36.49630044 0.59611123 -33.22229004 -0.07629395 C-30.93679857 -0.5454804 -28.64856383 -0.99847367 -26.359375 -1.44921875 C-25.35782631 -1.66283554 -25.35782631 -1.66283554 -24.33604431 -1.88076782 C-16.09031145 -3.47102873 -8.11869506 -1.55956344 0 0 Z " fill="#7AD4F3" transform="translate(272.44140625,17.70703125)"/>
<path d="M0 0 C46.86 0 93.72 0 142 0 C140.06283928 13.56012503 134.58331108 24.00193727 123.625 32.3125 C118.97114217 35.52359806 114.31048645 38.0671743 109 40 C108.09435806 40.34028229 107.18871613 40.68056458 106.25563049 41.03115845 C102.90991599 42.02680806 100.22262716 42.26565018 96.74194336 42.29052734 C95.52304916 42.30328705 94.30415497 42.31604675 93.04832458 42.32919312 C91.74202591 42.33141876 90.43572723 42.33364441 89.08984375 42.3359375 C87.71708543 42.3423769 86.34432844 42.34910608 84.97157288 42.35610962 C82.09600655 42.36805863 79.22056008 42.37179332 76.3449707 42.37060547 C72.69611415 42.37040334 69.04804576 42.39760464 65.39937496 42.43214989 C62.56196209 42.45462142 59.72473212 42.45843677 56.88723946 42.45738602 C54.89953434 42.46083396 52.91188633 42.4823802 50.92430115 42.50448608 C36.20660209 42.43150882 25.12786038 38.38896398 14.25 28.5 C13.5075 27.675 12.765 26.85 12 26 C11.50886719 25.47792969 11.01773438 24.95585937 10.51171875 24.41796875 C4.23504304 17.51829793 0 9.4525882 0 0 Z " fill="#8CE2F3" transform="translate(185,128)"/>
<path d="M0 0 C1.04781143 -0.01898849 2.09562286 -0.03797699 3.17518616 -0.05754089 C4.29614182 -0.05055679 5.41709747 -0.04357269 6.57202148 -0.03637695 C7.73185043 -0.04353226 8.89167938 -0.05068756 10.08665466 -0.05805969 C12.53513825 -0.06583475 14.98369118 -0.06082887 17.43212891 -0.04394531 C21.18386013 -0.02470567 24.931896 -0.06412589 28.68334961 -0.10864258 C31.06290911 -0.1089329 33.44247202 -0.10579398 35.82202148 -0.09887695 C37.50649132 -0.12180061 37.50649132 -0.12180061 39.22499084 -0.14518738 C42.15137812 -0.10124848 44.78231166 -0.01072543 47.63061523 0.6628418 C50.22802734 3.55419922 50.22802734 3.55419922 51.63061523 6.6628418 C56.02207057 11.54223661 61.16101519 16.61778154 67.54858398 18.54174805 C71.49547596 18.69682238 72.87872237 17.71155855 76.00561523 15.3503418 C76.87959961 14.71483398 77.75358398 14.07932617 78.65405273 13.42456055 C80.60240564 11.82451643 81.82995772 10.36395357 83.24241638 8.24615479 C87.98861421 1.21533686 87.98861421 1.21533686 92.3571167 -0.25456238 C95.55541948 -0.57486298 98.61722002 -0.59420831 101.82983398 -0.48950195 C102.98304642 -0.48721085 104.13625885 -0.48491974 105.32441711 -0.4825592 C107.75104656 -0.46751211 110.17763326 -0.42827252 112.60351562 -0.36621094 C116.31806122 -0.27465953 120.02638493 -0.26366446 123.74194336 -0.26489258 C126.10462744 -0.24032101 128.46726936 -0.21118117 130.82983398 -0.17700195 C132.49244514 -0.16865578 132.49244514 -0.16865578 134.18864441 -0.16014099 C135.22354507 -0.12824173 136.25844574 -0.09634247 137.32470703 -0.06347656 C138.68416695 -0.03488808 138.68416695 -0.03488808 140.0710907 -0.00572205 C142.63061523 0.6628418 142.63061523 0.6628418 147.63061523 5.6628418 C147.63061523 14.5728418 147.63061523 23.4828418 147.63061523 32.6628418 C95.49061523 32.6628418 43.35061523 32.6628418 -10.36938477 32.6628418 C-10.36938477 0.07897159 -10.36938477 0.07897159 0 0 Z " fill="#82D9F2" transform="translate(187.369384765625,79.337158203125)"/>
<path d="M0 0 C0.64324219 0.19335938 1.28648437 0.38671875 1.94921875 0.5859375 C22.30954147 6.45296345 45.03429183 7.98628327 65 0 C65.99 0 66.98 0 68 0 C69.65986659 16.63219859 69.65986659 16.63219859 66.11328125 21.69140625 C63.18640273 23.78703377 60.21393518 25.37683677 57 27 C54.91129696 28.26958376 52.85486614 29.58340294 50.796875 30.90209961 C48.15375639 32.59106464 45.48178657 34.22952372 42.79833984 35.85351562 C41.07948408 36.94932701 39.45145792 38.18384228 37.83203125 39.421875 C36.43017578 40.20304687 36.43017578 40.20304687 35 41 C31.17419563 39.86717992 28.04441271 37.87728772 24.7265625 35.69921875 C23.7365625 35.05146484 22.7465625 34.40371094 21.7265625 33.73632812 C20.70304687 33.06021484 19.67953125 32.38410156 18.625 31.6875 C17.60921875 31.02298828 16.5934375 30.35847656 15.546875 29.67382812 C13.57328302 28.37817781 11.60783067 27.07002508 9.65161133 25.74829102 C7.10302118 24.0174988 7.10302118 24.0174988 4.72924805 22.74975586 C2.80078125 21.6328125 2.80078125 21.6328125 0 19 C-0.81670924 15.67958991 -0.66771704 12.58003895 -0.4375 9.1875 C-0.40591797 8.30384766 -0.37433594 7.42019531 -0.34179688 6.50976562 C-0.25963742 4.3384086 -0.13408489 2.16876987 0 0 Z " fill="#FDFCFE" transform="translate(222,255)"/>
<path d="M0 0 C5.28 0 10.56 0 16 0 C16 26.73 16 53.46 16 81 C10.72 81 5.44 81 0 81 C0 54.27 0 27.54 0 0 Z " fill="#BE4FB6" transform="translate(358,431)"/>
<path d="M0 0 C5.28 0 10.56 0 16 0 C16 26.73 16 53.46 16 81 C10.72 81 5.44 81 0 81 C0 54.27 0 27.54 0 0 Z " fill="#BE4FB6" transform="translate(138,431)"/>
<path d="M0 0 C1.72338867 1.015625 1.72338867 1.015625 3.41796875 2.25 C4.33932617 2.91515625 4.33932617 2.91515625 5.27929688 3.59375 C5.90900391 4.0578125 6.53871094 4.521875 7.1875 5 C7.82880859 5.4640625 8.47011719 5.928125 9.13085938 6.40625 C13.79416023 9.79416023 13.79416023 9.79416023 15 11 C15.08737645 12.85369611 15.10698153 14.71067541 15.09765625 16.56640625 C15.09515869 17.57904541 15.09266113 18.59168457 15.09008789 19.63500977 C15.08098389 20.93108154 15.07187988 22.22715332 15.0625 23.5625 C15.041875 27.666875 15.02125 31.77125 15 36 C3.12 36 -8.76 36 -21 36 C-22.99341063 13.95522367 -22.99341063 13.95522367 -19.39599609 8.62207031 C-14.65474268 3.99994386 -6.90378714 -2.62369752 0 0 Z " fill="#FEFEFE" transform="translate(259,316)"/>
<path d="M0 0 C2.65999205 1.44289424 4.52251854 3.30182781 6.63671875 5.4609375 C7.4359375 6.26402344 8.23515625 7.06710937 9.05859375 7.89453125 C10.88671875 10.0234375 10.88671875 10.0234375 10.88671875 12.0234375 C11.54671875 12.0234375 12.20671875 12.0234375 12.88671875 12.0234375 C13.54671875 13.6734375 14.20671875 15.3234375 14.88671875 17.0234375 C14.53891357 17.45688477 14.1911084 17.89033203 13.83276367 18.33691406 C12.24593108 20.31523409 10.6600669 22.29432827 9.07421875 24.2734375 C8.52701172 24.95535156 7.97980469 25.63726562 7.41601562 26.33984375 C4.8580067 29.53347913 2.30954479 32.72499362 -0.11328125 36.0234375 C-3.57765527 34.7525734 -6.41250453 33.28730999 -9.3984375 31.125 C-10.17638672 30.56296875 -10.95433594 30.0009375 -11.75585938 29.421875 C-12.55443359 28.83664062 -13.35300781 28.25140625 -14.17578125 27.6484375 C-14.97822266 27.0709375 -15.78066406 26.4934375 -16.60742188 25.8984375 C-20.37750508 23.15769652 -23.96352154 20.48902678 -27.11328125 17.0234375 C-21.08002652 12.50465283 -14.95140386 8.13613751 -8.67578125 3.9609375 C-8.08522949 3.55496338 -7.49467773 3.14898926 -6.88623047 2.73071289 C-2.76267532 0.03063965 -2.76267532 0.03063965 0 0 Z " fill="#FCFBFD" transform="translate(297.11328125,287.9765625)"/>
<path d="M0 0 C3.86429257 1.40352577 7.09047122 3.21606483 10.51953125 5.4765625 C12.0519043 6.48203125 12.0519043 6.48203125 13.61523438 7.5078125 C14.67033203 8.20648438 15.72542969 8.90515625 16.8125 9.625 C18.42415039 10.68460937 18.42415039 10.68460937 20.06835938 11.765625 C22.71488802 13.50645273 25.35863055 15.2513582 28 17 C23.76845871 21.41268603 18.98606509 24.74550854 14 28.25 C13.09765625 28.8996875 12.1953125 29.549375 11.265625 30.21875 C10.39421875 30.83234375 9.5228125 31.4459375 8.625 32.078125 C7.43777344 32.91972168 7.43777344 32.91972168 6.2265625 33.77832031 C4 35 4 35 0 35 C-1.83593866 33.18197293 -3.36363579 31.46129646 -4.9375 29.4375 C-5.37626465 28.8919043 -5.8150293 28.34630859 -6.26708984 27.78417969 C-9.32409565 23.95412488 -12.24001544 20.04797735 -15 16 C-10.30233025 10.33870569 -5.25276628 5.14771096 0 0 Z " fill="#FCFBFD" transform="translate(215,288)"/>
<path d="M0 0 C2.40025393 1.5763889 3.57439146 3.32134072 5.12280273 5.72998047 C5.90397461 6.92107422 5.90397461 6.92107422 6.70092773 8.13623047 C7.87280273 10.22998047 7.87280273 10.22998047 7.87280273 12.22998047 C6.84541992 12.72626953 5.81803711 13.22255859 4.75952148 13.73388672 C-3.54933992 17.79128182 -11.39106599 22.14658958 -19.12719727 27.22998047 C-25.03299853 31.10841712 -29.92514245 33.7069899 -37.12719727 32.22998047 C-39.72511409 31.11522058 -41.77220297 29.83338084 -44.12719727 28.22998047 C-35.72404799 16.95259486 -22.25005728 9.8880711 -10.12719727 3.22998047 C-9.41772949 2.81844727 -8.70826172 2.40691406 -7.97729492 1.98291016 C-6.9319458 1.40524902 -6.9319458 1.40524902 -5.86547852 0.81591797 C-5.24326416 0.46319824 -4.6210498 0.11047852 -3.97998047 -0.25292969 C-2.12719727 -0.77001953 -2.12719727 -0.77001953 0 0 Z " fill="#ADF6F0" transform="translate(149.127197265625,328.77001953125)"/>
<path d="M0 0 C16.60367178 5.04447433 31.62320271 16.1819746 44 28 C41.68470663 31.47294006 40.93895836 31.91050088 37 33 C28.50809775 34.63573527 22.9094685 30.49115452 16 26 C14.35899388 24.99209809 12.71340048 23.9916123 11.0625 23 C10.27230469 22.52304687 9.48210937 22.04609375 8.66796875 21.5546875 C3.52521778 18.55788679 -1.74087489 15.78618227 -7 13 C-6.36610765 9.50155614 -4.94822306 7.15913124 -2.9375 4.25 C-2.38964844 3.45078125 -1.84179688 2.6515625 -1.27734375 1.828125 C-0.85582031 1.22484375 -0.43429687 0.6215625 0 0 Z " fill="#ADF6F0" transform="translate(363,328)"/>
<path d="M0 0 C0.95132812 0.53367187 1.90265625 1.06734375 2.8828125 1.6171875 C3.84960938 2.15601563 4.81640625 2.69484375 5.8125 3.25 C6.89917969 3.86488281 6.89917969 3.86488281 8.0078125 4.4921875 C6.33207901 15.0988188 -0.71944233 23.04166412 -7.9921875 30.4921875 C-15.83336579 24.73132182 -20.81690496 16.67727308 -23.9921875 7.4921875 C-23.9921875 6.5021875 -23.9921875 5.5121875 -23.9921875 4.4921875 C-21.62939096 3.09134375 -19.25587525 1.72256651 -16.8671875 0.3671875 C-16.20203125 -0.03113281 -15.536875 -0.42945313 -14.8515625 -0.83984375 C-8.81313336 -4.21426003 -6.1001843 -3.07398321 0 0 Z " fill="#FCFCFD" transform="translate(263.9921875,51.5078125)"/>
<path d="M0 0 C12.21 0 24.42 0 37 0 C37 4.95 37 9.9 37 15 C24.79 15 12.58 15 0 15 C0 10.05 0 5.1 0 0 Z " fill="#A347B1" transform="translate(313,402)"/>
<path d="M0 0 C12.21 0 24.42 0 37 0 C37 4.95 37 9.9 37 15 C24.79 15 12.58 15 0 15 C0 10.05 0 5.1 0 0 Z " fill="#A347B1" transform="translate(162,402)"/>
</svg>
